 <svg version="1.0" xmlns="http://www.w3.org/2000/svg" width="25.000000pt" height="25.000000pt" viewBox="0 0 700.000000 700.000000" preserveAspectRatio="xMidYMid meet">
<metadata>
Created by potrace 1.12, written by Peter Selinger 2001-2015
</metadata>
<g transform="translate(0.000000,700.000000) scale(0.100000,-0.100000)" fill="#3DB697" stroke="none">
<path d="M4109 5262 c-58 -15 -112 -32 -120 -38 -8 -6 -34 -21 -59 -33 -64
-30 -121 -73 -214 -161 -68 -64 -1704 -1703 -1759 -1762 -26 -28 -147 -210
-147 -223 0 -5 -14 -37 -30 -70 -17 -33 -30 -67 -30 -77 0 -10 -10 -46 -23
-80 -20 -57 -22 -81 -22 -248 1 -168 3 -190 23 -238 12 -29 22 -63 22 -76 0
-13 11 -43 24 -68 13 -24 27 -55 31 -69 26 -86 196 -287 315 -373 19 -14 54
-34 76 -45 23 -11 45 -24 48 -30 4 -6 33 -18 64 -27 31 -9 66 -23 77 -30 35
-23 291 -57 370 -49 130 12 270 36 290 49 11 7 38 19 60 26 50 16 151 68 187
95 14 11 46 33 70 50 57 39 1918 1896 1918 1913 0 19 -144 162 -162 162 -8 0
-429 -413 -935 -917 -506 -505 -935 -931 -954 -946 -45 -37 -121 -87 -135 -87
-5 0 -25 -11 -43 -24 -17 -13 -53 -27 -79 -31 -26 -4 -60 -14 -77 -23 -21 -11
-67 -17 -158 -20 -110 -4 -137 -1 -190 16 -34 12 -79 24 -99 27 -20 4 -51 18
-69 31 -18 13 -37 24 -42 24 -18 0 -111 67 -164 118 -56 54 -137 173 -158 233
-7 20 -20 50 -29 67 -24 47 -38 241 -26 361 14 128 65 253 158 382 19 25 450
462 960 971 759 758 934 928 966 938 22 7 55 22 75 34 31 18 52 21 166 21 115
0 134 -3 170 -22 22 -12 56 -29 75 -36 53 -22 154 -119 190 -184 37 -64 70
-191 70 -261 -1 -68 -33 -196 -58 -227 -12 -15 -22 -33 -22 -41 0 -7 -26 -40
-57 -75 -135 -145 -1776 -1778 -1814 -1805 -38 -26 -51 -29 -118 -29 -67 0
-81 3 -114 27 -21 15 -52 44 -68 64 -27 34 -29 43 -29 118 0 72 3 86 25 117
14 19 379 387 810 819 432 432 785 791 785 798 0 14 -125 149 -151 163 -15 8
-144 -117 -816 -788 -439 -439 -809 -814 -822 -833 -13 -19 -39 -72 -57 -118
-48 -118 -48 -197 1 -319 41 -102 89 -164 173 -220 69 -48 187 -87 262 -86 72
0 205 42 261 82 57 41 1853 1834 1887 1885 88 127 85 123 128 236 28 72 29 81
29 245 l-1 170 -33 80 c-37 89 -89 185 -100 185 -4 0 -15 14 -25 30 -20 34
-190 180 -209 180 -7 0 -28 11 -48 24 -19 13 -60 29 -90 35 -30 6 -79 18 -109
26 -79 22 -179 17 -301 -13z"></path>
</g>
</svg>