 <svg version="1.0" xmlns="http://www.w3.org/2000/svg" width="700.000000pt" height="700.000000pt" viewBox="0 0 700.000000 700.000000" preserveAspectRatio="xMidYMid meet">
<metadata>
Created by potrace 1.12, written by Peter Selinger 2001-2015
</metadata>
<g transform="translate(0.000000,700.000000) scale(0.100000,-0.100000)" fill="#000000" stroke="none">
<path d="M3315 6549 c-225 -55 -424 -214 -528 -421 -35 -69 -34 -68 -190 -133
-387 -162 -711 -492 -895 -910 -78 -178 -163 -478 -191 -675 -10 -69 -41 -470
-56 -720 -46 -758 -152 -1286 -305 -1504 -59 -85 -105 -120 -253 -198 -82 -42
-155 -88 -178 -111 -92 -93 -85 -247 15 -335 76 -67 -132 -62 2766 -62 2901 0
2690 -5 2767 63 41 36 83 117 83 163 0 58 -29 130 -68 171 -24 25 -87 64 -176
108 -116 59 -147 80 -195 131 -32 33 -71 86 -88 116 -147 260 -233 724 -283
1538 -41 657 -73 859 -187 1174 -179 497 -515 869 -950 1051 -155 64 -155 64
-188 131 -165 330 -547 510 -900 423z m355 -201 c102 -31 178 -77 255 -153 67
-67 113 -140 158 -256 13 -32 23 -38 93 -64 230 -83 386 -172 546 -309 248
-213 419 -520 522 -936 53 -212 62 -287 96 -805 23 -356 32 -451 66 -739 48
-406 98 -620 197 -843 97 -218 183 -310 398 -423 144 -76 164 -94 139 -125
-19 -22 -5261 -22 -5280 0 -25 30 0 52 142 126 204 107 292 198 389 404 96
204 154 452 203 861 34 289 43 383 66 739 29 446 39 545 67 679 53 256 130
478 224 648 196 355 459 573 873 723 70 26 80 32 93 64 44 111 91 188 158 256
159 161 384 219 595 153z"></path>
<path d="M2704 1150 c6 -74 45 -209 78 -275 92 -182 270 -342 446 -399 112
-36 172 -46 275 -46 96 0 207 22 310 60 63 24 188 109 255 173 44 43 115 143
150 212 33 66 72 201 78 275 l7 70 -803 0 -803 0 7 -70z m1356 -136 c0 -60
-129 -222 -233 -293 -146 -99 -357 -123 -533 -62 -133 47 -266 166 -333 298
-40 79 -87 73 539 73 508 0 560 -1 560 -16z"></path>
</g>
</svg>