 <svg version="1.0" xmlns="http://www.w3.org/2000/svg" width="700.000000pt" height="700.000000pt" viewBox="0 0 700.000000 700.000000" preserveAspectRatio="xMidYMid meet">
<metadata>
Created by potrace 1.12, written by Peter Selinger 2001-2015
</metadata>
<g transform="translate(0.000000,700.000000) scale(0.100000,-0.100000)" fill="#A5B492" stroke="none">
<path d="M1882 6508 c-32 -18 -58 -42 -68 -62 -8 -17 -21 -42 -29 -56 -12 -21
-15 -87 -15 -381 0 -340 1 -357 20 -381 11 -14 24 -37 29 -51 11 -27 89 -76
137 -84 43 -7 143 47 166 90 50 93 48 77 48 434 0 316 -1 340 -19 373 -11 19
-25 47 -31 62 -15 34 -108 88 -152 87 -18 0 -57 -14 -86 -31z"></path>
<path d="M4740 6515 c-19 -14 -40 -25 -46 -25 -7 0 -29 -29 -49 -65 l-36 -65
3 -352 3 -353 33 -57 c22 -37 40 -58 52 -58 10 0 32 -11 48 -25 37 -31 86 -33
127 -4 17 11 40 24 53 29 12 5 27 20 32 32 5 13 18 37 29 53 20 29 21 43 21
397 0 237 -4 369 -10 373 -6 4 -19 24 -30 45 -24 47 -110 100 -161 100 -19 -1
-49 -12 -69 -25z"></path>
<path d="M975 6100 c-27 -4 -66 -15 -85 -23 -19 -8 -57 -18 -85 -22 -27 -3
-66 -17 -85 -30 -19 -13 -46 -26 -60 -30 -14 -4 -38 -19 -55 -32 -16 -13 -43
-34 -58 -46 -77 -61 -169 -171 -206 -247 -12 -25 -28 -56 -36 -70 -8 -14 -15
-38 -15 -55 0 -16 -11 -61 -25 -100 l-25 -70 0 -2093 0 -2092 21 -58 c12 -31
25 -79 29 -107 9 -66 60 -164 127 -247 62 -76 205 -202 243 -213 14 -4 41 -17
60 -30 19 -12 59 -26 89 -29 30 -4 68 -15 85 -24 29 -16 200 -17 2478 -20
2230 -2 2451 -1 2490 14 24 9 66 21 93 26 108 22 257 110 354 209 80 82 172
240 185 318 3 24 15 70 26 102 20 57 20 96 20 2156 -1 1877 -3 2102 -16 2138
-9 22 -22 71 -29 108 -7 37 -19 76 -28 85 -8 9 -20 34 -26 54 -7 21 -17 40
-22 44 -5 3 -21 24 -35 45 -30 48 -134 152 -188 188 -80 54 -182 102 -226 107
-25 3 -67 15 -95 27 -47 20 -66 22 -325 22 l-275 0 -5 -280 -5 -280 -34 -60
c-19 -33 -44 -70 -55 -83 -61 -67 -114 -112 -138 -117 -15 -4 -40 -16 -55 -28
-25 -20 -39 -22 -163 -22 -134 0 -137 0 -201 33 -90 46 -187 139 -208 201 -6
19 -19 43 -29 54 -15 17 -17 49 -20 290 -2 174 -7 276 -14 284 -8 10 -194 13
-959 13 -589 0 -950 -4 -954 -10 -3 -5 -7 -130 -8 -277 l-3 -268 -37 -68 c-50
-91 -134 -174 -222 -217 -69 -35 -70 -35 -205 -35 -131 0 -136 1 -175 28 -22
15 -46 27 -53 27 -26 0 -140 131 -179 203 l-37 72 -6 270 -5 270 -240 1 c-132
1 -262 -2 -290 -6z m5153 -1502 c9 -9 12 -386 12 -1634 0 -1565 -1 -1622 -19
-1645 -10 -13 -26 -40 -36 -59 -22 -44 -94 -110 -165 -152 l-55 -33 -2482 0
-2481 0 -24 21 c-13 12 -38 29 -55 38 -51 25 -102 75 -125 120 -11 23 -29 52
-39 65 -18 23 -19 79 -19 1645 0 1248 3 1625 12 1634 17 17 5459 17 5476 0z"></path>
<path d="M2575 4132 c-47 -17 -97 -57 -120 -97 -24 -40 -25 -49 -25 -204 0
-159 1 -164 28 -212 15 -27 36 -52 47 -55 11 -4 31 -15 44 -25 22 -18 45 -19
295 -19 l271 0 46 29 c27 17 57 48 73 74 25 44 26 51 26 204 0 119 -4 164 -15
183 -8 14 -18 34 -24 46 -5 12 -31 34 -58 50 l-48 29 -260 2 c-143 1 -269 -1
-280 -5z"></path>
<path d="M3632 4113 c-32 -18 -62 -45 -81 -73 l-31 -45 0 -163 c0 -156 1 -165
25 -206 14 -23 44 -55 67 -72 l43 -29 285 0 285 0 36 25 c20 14 49 45 65 70
29 45 29 46 29 205 0 157 0 161 -28 206 -15 26 -47 60 -70 75 l-42 29 -266 3
-265 2 -52 -27z"></path>
<path d="M4765 4132 c-61 -21 -101 -53 -125 -98 -24 -46 -25 -57 -25 -206 0
-149 1 -160 25 -203 18 -33 40 -54 77 -75 l53 -30 268 0 c246 0 271 2 293 18
13 10 31 21 40 25 9 3 31 30 48 60 31 54 31 55 31 203 0 142 -1 151 -27 203
-15 29 -34 56 -43 59 -8 3 -28 15 -45 26 -28 20 -44 21 -290 23 -143 1 -269
-1 -280 -5z"></path>
<path d="M1433 3122 c-23 -15 -55 -45 -70 -67 -28 -40 -28 -40 -28 -210 0
-168 0 -171 27 -211 15 -24 47 -53 74 -68 l47 -26 272 0 c269 0 274 0 315 24
24 14 53 42 69 67 25 43 26 48 26 214 l0 170 -29 43 c-17 23 -49 53 -72 67
-43 25 -43 25 -316 25 l-273 0 -42 -28z"></path>
<path d="M2528 3124 c-32 -17 -56 -40 -74 -71 -26 -44 -26 -51 -27 -207 0
-159 0 -163 27 -209 21 -35 41 -54 79 -73 l52 -26 268 1 267 0 46 27 c25 15
50 36 55 48 6 12 16 32 24 46 11 19 15 64 15 184 0 152 -1 160 -26 205 -19 32
-41 55 -75 74 l-49 27 -268 -1 c-266 0 -267 0 -314 -25z"></path>
<path d="M3618 3122 c-34 -20 -53 -40 -72 -78 -25 -48 -26 -60 -26 -201 0
-145 1 -152 28 -201 20 -39 39 -57 75 -77 l48 -25 274 0 273 0 41 27 c23 15
53 47 68 72 27 45 27 50 27 207 -1 160 -1 161 -30 209 -19 31 -44 55 -74 71
-44 24 -48 24 -315 23 l-270 0 -47 -27z"></path>
<path d="M4713 3122 c-23 -15 -55 -45 -70 -67 -28 -40 -28 -40 -28 -210 l0
-170 29 -43 c17 -23 50 -54 75 -68 l46 -26 271 1 272 0 45 28 c32 20 53 43 72
80 26 51 27 55 23 210 -3 152 -4 160 -30 199 -14 23 -47 53 -72 68 l-45 26
-273 0 -273 0 -42 -28z"></path>
<path d="M1460 2152 c-66 -34 -79 -46 -105 -98 -26 -51 -26 -56 -23 -211 3
-155 4 -159 31 -198 16 -22 50 -52 79 -67 l51 -28 261 0 261 0 47 28 c26 15
60 46 75 67 l28 40 0 170 0 170 -30 47 c-20 33 -44 54 -80 72 -50 26 -52 26
-306 26 -226 0 -259 -2 -289 -18z"></path>
<path d="M2575 2162 c-47 -17 -96 -56 -120 -98 -25 -42 -26 -49 -26 -208 1
-162 1 -165 28 -209 20 -32 43 -53 79 -71 51 -26 51 -26 308 -26 l256 0 51 26
c32 17 61 42 77 68 26 40 27 47 30 204 3 152 2 165 -19 208 -14 28 -41 58 -69
77 l-45 32 -265 2 c-146 1 -274 -2 -285 -5z"></path>
<path d="M3633 2143 c-29 -16 -64 -45 -80 -68 -28 -39 -28 -42 -31 -208 l-3
-168 29 -45 c17 -24 47 -57 69 -72 l38 -27 268 -3 268 -3 56 28 c30 15 58 35
61 43 3 8 15 28 26 43 19 26 21 42 21 190 -1 159 -1 163 -28 208 -15 26 -46
60 -69 75 l-41 29 -266 3 -267 3 -51 -28z"></path>
</g>
</svg>