 <svg version="1.0" xmlns="http://www.w3.org/2000/svg" width="25.000000pt" height="25.000000pt" viewBox="0 0 700.000000 700.000000" preserveAspectRatio="xMidYMid meet">
<metadata>
Created by potrace 1.12, written by Peter Selinger 2001-2015
</metadata>
<g transform="translate(0.000000,700.000000) scale(0.100000,-0.100000)" fill="#3DB697" stroke="none">
<path d="M2115 6350 l-39 -40 -6 -181 c-5 -172 -6 -182 -27 -199 -21 -16 -57
-18 -445 -22 -375 -4 -428 -7 -468 -22 -25 -10 -67 -26 -95 -36 -117 -42 -217
-116 -313 -230 -66 -78 -93 -122 -129 -205 -49 -116 -55 -168 -64 -665 -5
-256 -9 -483 -9 -505 1 -22 4 -690 9 -1485 8 -1506 9 -1547 51 -1629 9 -20 21
-46 24 -58 10 -32 65 -120 106 -172 46 -57 191 -178 223 -186 14 -4 33 -15 43
-26 9 -10 33 -22 52 -25 20 -4 61 -19 92 -33 l55 -26 2325 0 2325 0 59 27 c32
16 66 28 75 28 9 0 30 8 46 17 17 9 44 24 62 33 45 24 85 57 156 125 85 83 99
101 135 170 62 119 82 171 94 235 8 45 13 503 19 1515 4 798 8 1468 8 1490 1
22 -3 245 -8 495 -8 465 -17 580 -51 635 -9 17 -21 43 -25 60 -15 67 -141 229
-231 298 -83 64 -154 108 -187 114 -18 3 -49 15 -71 25 -58 29 -181 37 -572
38 -331 0 -353 1 -375 19 -23 18 -24 26 -30 198 -4 98 -7 179 -8 180 0 2 -17
21 -37 43 -35 38 -39 40 -98 40 -57 0 -64 -3 -97 -35 -44 -42 -49 -71 -49
-262 0 -129 -1 -135 -25 -158 l-24 -25 -1089 0 c-1058 0 -1090 1 -1113 19 -23
19 -24 26 -30 193 -5 183 -10 202 -58 244 -21 19 -38 23 -86 24 -58 0 -63 -2
-100 -40z m-84 -753 l34 -23 5 -174 c6 -200 15 -230 74 -250 68 -22 141 -12
174 23 32 35 42 92 42 248 0 143 0 146 26 170 l26 24 1088 0 1088 0 25 -23
c24 -23 25 -28 29 -195 4 -210 11 -228 90 -252 47 -14 58 -14 105 0 79 23 86
43 90 235 2 85 6 165 9 178 2 12 19 31 37 42 30 19 51 20 346 20 277 0 327 -3
425 -21 75 -14 123 -29 147 -45 19 -13 40 -24 45 -24 16 0 118 -104 154 -156
17 -26 44 -86 58 -133 l27 -86 0 -357 0 -357 -23 -23 -23 -23 -2630 0 -2631 0
-23 28 -24 27 0 328 c-1 332 2 360 42 497 8 28 29 72 47 98 35 52 137 157 153
157 5 0 23 10 40 23 20 13 73 30 137 44 95 20 136 22 431 22 324 1 326 1 360
-22z m4116 -1521 l28 -24 0 -1349 0 -1348 -28 -87 c-15 -47 -36 -97 -47 -111
-11 -14 -20 -29 -20 -34 0 -7 -51 -61 -108 -114 -9 -8 -44 -30 -77 -49 -112
-62 -27 -60 -2395 -60 -2384 0 -2281 -2 -2401 64 -94 52 -228 197 -229 247 0
9 -10 42 -22 75 l-23 59 0 1353 0 1354 28 24 28 24 2619 0 2619 0 28 -24z"></path>
</g>
</svg>