 <svg version="1.0" xmlns="http://www.w3.org/2000/svg" width="700.000000pt" height="700.000000pt" viewBox="0 0 700.000000 700.000000" preserveAspectRatio="xMidYMid meet">
<metadata>
Created by potrace 1.12, written by Peter Selinger 2001-2015
</metadata>
<g transform="translate(0.000000,700.000000) scale(0.100000,-0.100000)" fill="#BFBFBF" stroke="none">
<path d="M3410 6751 c-25 -5 -74 -13 -110 -19 -36 -6 -120 -16 -187 -22 -72
-6 -142 -18 -170 -29 -26 -10 -77 -21 -113 -25 -36 -4 -79 -16 -96 -27 -17
-10 -53 -22 -80 -25 -27 -4 -67 -16 -89 -29 -22 -12 -59 -25 -82 -29 -23 -3
-59 -17 -79 -31 -20 -14 -47 -25 -58 -25 -12 0 -37 -11 -56 -25 -19 -14 -41
-25 -49 -25 -9 0 -36 -14 -61 -30 -25 -16 -50 -30 -56 -30 -5 0 -25 -11 -44
-25 -19 -14 -42 -25 -51 -25 -10 0 -30 -10 -46 -23 -15 -12 -39 -28 -53 -35
-14 -7 -41 -23 -60 -37 -108 -76 -185 -133 -211 -157 -16 -16 -34 -28 -40 -28
-17 0 -434 -422 -452 -456 -9 -17 -23 -34 -31 -37 -8 -3 -20 -17 -28 -30 -21
-38 -67 -106 -86 -126 -9 -10 -30 -42 -47 -70 -16 -29 -42 -68 -57 -88 -16
-20 -28 -44 -28 -54 0 -9 -11 -31 -25 -47 -14 -17 -25 -34 -25 -39 0 -6 -13
-30 -30 -54 -16 -24 -30 -54 -30 -65 0 -12 -9 -33 -20 -47 -12 -15 -27 -48
-35 -75 -8 -27 -21 -55 -29 -61 -8 -7 -17 -31 -21 -54 -4 -23 -17 -62 -30 -87
-12 -25 -26 -65 -30 -90 -4 -25 -16 -65 -26 -89 -11 -25 -24 -76 -29 -114 -6
-37 -17 -82 -26 -99 -10 -20 -20 -76 -25 -147 -11 -142 -16 -184 -36 -285 -19
-98 -13 -397 11 -526 8 -47 20 -137 25 -201 5 -75 15 -127 26 -149 10 -19 22
-69 26 -112 6 -49 18 -94 34 -124 14 -26 25 -63 25 -83 0 -20 11 -53 25 -76
14 -22 25 -49 25 -61 0 -12 11 -41 24 -66 13 -25 27 -59 31 -77 4 -18 18 -49
31 -68 13 -20 24 -44 24 -54 0 -9 12 -32 28 -50 24 -29 27 -41 27 -108 0 -57
-6 -89 -22 -128 -13 -28 -27 -81 -32 -116 -5 -36 -17 -76 -26 -90 -9 -14 -21
-55 -26 -92 -5 -37 -18 -88 -29 -113 -11 -26 -24 -77 -30 -114 -6 -37 -19 -82
-29 -100 -10 -18 -22 -59 -25 -91 -3 -32 -15 -75 -26 -96 -10 -21 -22 -62 -26
-92 -4 -30 -17 -79 -29 -109 -26 -65 -37 -161 -26 -247 7 -59 11 -66 65 -120
53 -53 61 -58 114 -63 78 -9 198 4 252 28 25 11 69 23 99 26 30 4 71 16 93 27
21 11 69 23 107 28 38 5 80 16 94 26 14 9 55 21 92 26 36 5 83 17 103 28 20
10 62 22 92 26 30 4 79 18 109 31 29 13 70 24 90 24 20 0 61 12 91 26 47 23
69 27 150 28 91 1 98 0 129 -27 18 -15 41 -27 52 -27 11 0 35 -11 52 -24 18
-13 49 -27 70 -31 20 -4 48 -16 61 -26 14 -11 45 -23 69 -28 25 -4 60 -17 78
-28 19 -11 55 -23 82 -27 26 -3 65 -15 88 -26 22 -12 73 -25 113 -29 39 -5 87
-16 106 -26 21 -11 74 -21 144 -26 60 -5 169 -19 240 -30 110 -18 159 -20 301
-16 94 2 206 12 250 20 44 9 136 20 206 25 80 6 136 15 157 26 17 9 66 21 109
27 42 6 90 17 105 25 16 8 54 19 85 25 31 6 77 21 102 34 25 13 64 27 86 31
22 3 47 13 57 21 9 8 37 21 63 28 25 8 58 23 72 35 14 11 32 20 39 20 17 0
137 63 171 90 14 11 34 20 44 20 9 0 30 10 46 23 51 41 121 87 132 87 5 0 22
11 37 25 15 14 30 25 35 25 8 0 83 58 115 89 12 12 27 21 33 21 16 0 431 414
462 461 37 55 122 170 139 187 8 8 22 27 30 41 32 56 56 94 83 128 15 20 27
44 27 54 0 9 11 31 25 47 14 17 25 37 25 45 0 9 11 28 24 44 14 16 28 43 32
59 4 16 17 47 30 70 13 22 24 48 24 56 0 8 11 31 24 50 13 20 27 55 31 79 4
24 16 59 27 78 10 19 24 59 30 90 5 31 18 70 28 86 11 18 22 61 26 100 3 39
15 89 25 113 12 27 22 90 29 170 6 70 18 168 28 217 24 127 24 434 -1 565 -10
52 -22 145 -26 206 -5 68 -15 122 -25 142 -9 17 -21 69 -27 113 -6 45 -22 105
-35 133 -13 28 -24 65 -24 82 0 17 -11 52 -24 77 -14 25 -28 63 -32 84 -4 21
-15 50 -25 65 -11 14 -22 41 -26 60 -3 18 -14 43 -24 56 -10 13 -23 40 -30 60
-6 20 -19 46 -29 57 -10 11 -23 36 -29 56 -7 20 -20 44 -30 54 -11 9 -22 29
-26 43 -4 15 -13 35 -22 44 -8 9 -22 30 -31 46 -30 53 -57 93 -84 130 -15 21
-40 54 -55 75 -146 198 -465 522 -613 624 -19 13 -53 37 -75 53 -69 52 -157
110 -165 110 -5 0 -21 11 -37 23 -15 13 -44 32 -63 42 -19 10 -53 27 -75 39
-22 11 -55 31 -74 43 -19 13 -43 23 -54 23 -11 0 -34 11 -51 23 -17 13 -46 27
-64 30 -19 4 -45 16 -59 27 -14 11 -38 20 -52 20 -15 0 -53 13 -86 30 -33 16
-73 30 -89 30 -16 0 -52 11 -80 24 -28 13 -88 29 -134 35 -45 6 -93 18 -107
27 -17 11 -62 19 -143 25 -64 4 -157 16 -207 25 -99 18 -418 28 -495 15z m660
-414 c25 -10 83 -23 130 -29 47 -5 111 -21 142 -34 32 -13 70 -24 85 -24 16 0
48 -11 73 -24 25 -13 61 -27 80 -31 19 -4 49 -15 66 -25 17 -9 48 -23 70 -30
21 -7 59 -24 83 -37 24 -12 49 -23 56 -23 7 0 20 -9 29 -19 10 -11 31 -23 47
-26 16 -4 42 -17 57 -29 15 -13 36 -26 47 -30 11 -3 45 -24 75 -46 30 -22 68
-48 84 -58 52 -31 279 -223 367 -311 86 -87 233 -258 279 -326 14 -20 36 -51
51 -68 34 -43 89 -131 89 -144 0 -5 9 -18 20 -28 10 -9 24 -34 31 -54 6 -20
19 -45 29 -56 10 -11 21 -31 25 -45 4 -14 18 -43 31 -66 13 -22 24 -47 24 -55
0 -8 11 -34 24 -59 13 -25 27 -61 31 -80 4 -19 18 -55 31 -80 13 -25 24 -57
24 -72 0 -15 11 -56 24 -91 13 -36 27 -95 31 -133 4 -38 17 -96 29 -129 20
-57 21 -77 21 -465 0 -389 -1 -408 -22 -470 -12 -36 -24 -96 -28 -134 -3 -37
-14 -85 -24 -105 -11 -20 -24 -62 -30 -93 -5 -32 -19 -74 -29 -95 -11 -21 -23
-56 -27 -78 -3 -21 -15 -51 -24 -65 -10 -14 -24 -43 -31 -65 -7 -22 -21 -51
-31 -64 -11 -13 -19 -31 -19 -41 0 -9 -11 -34 -25 -54 -14 -21 -31 -52 -39
-69 -7 -18 -20 -38 -29 -46 -10 -7 -17 -19 -17 -25 0 -7 -19 -40 -42 -75 -24
-35 -52 -78 -63 -95 -21 -34 -62 -88 -92 -120 -10 -11 -22 -28 -28 -37 -29
-50 -274 -298 -387 -392 -18 -15 -46 -39 -63 -53 -56 -48 -108 -84 -120 -84
-7 0 -18 -7 -26 -16 -20 -24 -157 -111 -228 -144 -23 -11 -54 -29 -68 -40 -14
-11 -35 -20 -45 -20 -11 0 -33 -11 -50 -25 -16 -14 -37 -25 -46 -25 -9 0 -44
-14 -77 -30 -33 -16 -68 -30 -78 -30 -10 0 -39 -11 -65 -24 -26 -13 -70 -27
-97 -31 -28 -4 -67 -16 -88 -27 -21 -10 -68 -21 -105 -24 -37 -3 -94 -15 -127
-27 -58 -21 -73 -22 -475 -22 -368 0 -420 2 -458 17 -23 10 -82 22 -130 29
-48 6 -106 20 -130 30 -23 11 -64 24 -92 29 -27 5 -68 19 -89 30 -22 11 -48
20 -58 20 -10 0 -45 13 -78 30 -33 16 -66 30 -73 30 -7 0 -34 11 -60 25 -26
14 -52 25 -59 25 -6 0 -24 11 -40 23 -15 13 -43 29 -61 35 -18 6 -45 20 -59
32 -22 17 -40 20 -117 20 -76 0 -98 -4 -136 -24 -25 -13 -70 -26 -101 -29 -31
-3 -75 -15 -97 -26 -22 -11 -67 -24 -99 -27 -32 -4 -76 -16 -98 -27 -22 -11
-66 -24 -97 -28 -31 -4 -76 -16 -100 -28 -24 -11 -74 -25 -111 -30 -38 -5 -79
-17 -92 -25 -29 -19 -147 -40 -180 -32 -15 4 -27 16 -31 30 -9 36 13 160 35
198 10 18 21 62 25 97 3 37 15 79 26 99 12 19 25 65 29 102 5 36 16 81 25 99
10 18 23 67 31 109 7 42 23 97 34 122 11 25 21 62 21 83 0 21 11 64 25 97 18
44 25 77 25 128 0 57 -4 74 -25 102 -14 19 -25 41 -25 51 0 9 -13 33 -30 54
-16 21 -30 45 -30 54 0 9 -10 32 -21 51 -12 19 -28 55 -35 81 -8 26 -20 52
-28 58 -8 7 -18 31 -21 53 -4 23 -18 61 -31 86 -13 25 -24 58 -24 74 0 16 -11
54 -24 86 -13 31 -29 96 -35 144 -7 48 -19 107 -29 130 -15 38 -17 90 -17 468
0 390 1 428 18 458 10 18 22 72 28 119 5 48 19 107 30 132 11 25 23 66 26 91
3 25 16 65 29 90 13 25 24 52 24 60 0 9 13 42 30 75 16 33 30 67 30 76 0 8 11
30 25 49 14 19 25 41 25 49 0 9 6 26 13 37 6 12 23 41 36 65 13 24 31 53 41
64 10 11 21 31 25 45 4 14 17 37 29 52 23 30 49 66 104 149 36 55 82 111 187
227 45 50 76 80 239 235 28 27 63 55 79 63 15 8 27 19 27 24 0 9 42 40 115 85
33 20 64 43 113 81 15 12 38 25 52 29 14 4 38 18 53 31 16 13 34 24 41 24 7 0
33 13 57 30 24 16 51 30 60 30 9 0 27 8 40 19 13 10 42 24 64 31 22 7 50 21
63 31 12 9 42 20 65 24 23 4 56 15 72 25 17 11 62 25 102 34 39 8 85 22 102
31 18 9 62 18 99 21 37 3 94 14 127 24 90 28 83 28 500 26 348 -1 395 -3 435
-19z"></path>
<path d="M2566 4572 c-380 -2 -421 -4 -439 -19 -10 -10 -32 -22 -50 -28 -21
-7 -34 -20 -40 -40 -6 -16 -18 -41 -28 -54 -27 -33 -24 -70 11 -135 24 -48 39
-62 86 -87 l57 -30 1455 0 c1232 1 1457 3 1471 15 9 7 31 21 48 30 18 9 40 31
48 49 9 17 22 43 30 57 21 37 18 72 -10 110 -14 19 -25 40 -25 47 0 7 -25 28
-54 47 l-55 35 -1043 3 c-574 2 -1232 2 -1462 0z"></path>
<path d="M2123 3676 c-16 -13 -39 -26 -52 -28 -17 -2 -28 -13 -34 -33 -6 -16
-18 -41 -28 -54 -23 -29 -24 -84 -2 -117 9 -14 23 -40 32 -57 9 -18 24 -33 34
-35 11 -2 35 -15 54 -28 l36 -24 1443 0 1444 0 59 31 c51 27 63 39 90 90 17
33 31 69 31 80 0 22 -57 131 -71 137 -5 2 -27 16 -51 32 l-43 30 -1457 0
-1456 0 -29 -24z"></path>
<path d="M2786 2822 c-588 -2 -641 -4 -659 -19 -10 -10 -32 -22 -50 -28 -21
-7 -34 -20 -40 -40 -6 -16 -18 -41 -28 -54 -25 -31 -24 -86 1 -121 11 -15 24
-39 29 -52 6 -16 21 -28 38 -32 15 -4 37 -16 49 -27 20 -19 44 -19 1040 -20
l1019 0 57 31 c33 18 60 40 64 53 4 12 15 33 25 46 20 25 27 105 10 115 -5 3
-18 26 -30 51 -12 25 -26 45 -33 45 -7 0 -28 11 -47 25 l-36 24 -385 3 c-212
2 -673 2 -1024 0z"></path>
</g>
</svg>