 <svg version="1.0" xmlns="http://www.w3.org/2000/svg" width="700.000000pt" height="700.000000pt" viewBox="0 0 700.000000 700.000000" preserveAspectRatio="xMidYMid meet">
<metadata>
Created by potrace 1.12, written by Peter Selinger 2001-2015
</metadata>
<g transform="translate(0.000000,700.000000) scale(0.100000,-0.100000)" fill="#A5B492" stroke="none">
<path d="M1010 6550 c-64 -10 -196 -56 -230 -80 -15 -11 -33 -20 -39 -20 -20
0 -177 -166 -207 -220 -17 -30 -44 -93 -60 -140 l-29 -85 0 -2070 0 -2070 32
-91 c71 -205 214 -347 420 -421 l78 -28 377 -3 c328 -3 378 -5 389 -19 10 -11
14 -59 16 -162 1 -107 6 -159 18 -191 9 -25 22 -65 29 -90 16 -55 45 -101 112
-183 79 -95 168 -155 298 -200 l91 -32 1850 0 1850 0 94 33 c51 18 106 41 121
52 16 11 33 20 39 20 15 0 191 178 191 194 0 7 9 25 20 38 11 14 34 68 52 119
l33 94 0 1850 0 1850 -29 85 c-17 47 -40 101 -53 120 -13 19 -23 40 -23 46 0
20 -141 157 -202 198 -32 21 -79 44 -105 51 -27 8 -68 21 -93 30 -34 13 -80
17 -185 17 -105 0 -146 3 -162 14 l-23 14 0 364 0 363 -31 94 c-17 51 -39 105
-48 119 -10 14 -21 34 -25 45 -6 20 -99 122 -146 160 -55 44 -117 78 -199 108
l-86 31 -2045 2 c-1125 1 -2065 -2 -2090 -6z m4136 -453 c23 -15 55 -50 73
-77 l32 -49 0 -2036 c1 -1843 -1 -2038 -15 -2060 -21 -31 -80 -90 -111 -111
-22 -14 -211 -16 -2061 -15 l-2036 1 -48 31 c-26 17 -61 50 -76 72 l-29 42 -3
2010 c-2 1106 0 2029 3 2052 5 33 17 53 61 98 31 31 65 60 77 65 13 5 908 8
2057 7 l2035 -2 41 -28z m875 -1313 c23 -17 56 -50 73 -73 l31 -43 0 -1823 0
-1823 -31 -43 c-17 -23 -50 -56 -73 -73 l-43 -31 -1821 0 -1822 0 -46 32 c-25
18 -59 51 -75 74 -28 41 -29 47 -32 174 -3 113 -1 134 13 148 15 16 127 17
1473 17 l1457 0 70 25 c39 14 76 25 84 25 39 0 186 112 250 191 63 76 80 109
118 219 l32 95 0 1457 c1 1345 2 1458 18 1473 14 14 35 16 149 13 129 -3 133
-4 175 -34z"></path>
<path d="M1730 5241 c-66 -7 -119 -44 -162 -110 -59 -94 -25 -210 81 -279 l49
-32 1374 2 1373 3 38 27 c53 37 98 109 105 163 7 68 -36 147 -107 194 l-54 36
-1321 1 c-727 0 -1346 -2 -1376 -5z"></path>
<path d="M1690 4142 c-50 -24 -91 -58 -118 -101 -27 -40 -32 -59 -32 -107 0
-48 5 -65 32 -103 17 -25 52 -59 77 -76 l46 -30 1365 0 1365 0 51 33 c75 49
108 102 108 177 1 77 -36 139 -109 184 l-51 31 -1359 -1 c-748 0 -1367 -4
-1375 -7z"></path>
<path d="M1700 3051 c-41 -13 -100 -58 -127 -98 -20 -28 -28 -54 -31 -100 -4
-56 -1 -66 28 -111 17 -27 51 -63 73 -78 l42 -29 720 0 720 0 43 29 c23 17 57
52 74 80 26 40 32 59 32 102 -2 75 -52 149 -126 187 l-53 27 -685 -1 c-377 0
-696 -4 -710 -8z"></path>
</g>
</svg>