<svg version="1.0" xmlns="http://www.w3.org/2000/svg" width="700.000000pt" height="700.000000pt" viewBox="0 0 700.000000 700.000000" preserveAspectRatio="xMidYMid meet">
    <metadata>
        Created by potrace 1.12, written by Peter Selinger 2001-2015
    </metadata>
    <g transform="translate(0.000000,700.000000) scale(0.100000,-0.100000)" fill="#ffffff" stroke="none">
        <path d="M1865 5240 c-11 -4 -40 -29 -64 -54 -39 -40 -45 -51 -49 -100 -2 -30
-1 -76 2 -101 7 -45 21 -60 713 -751 610 -608 706 -708 706 -733 0 -25 -96
-126 -706 -735 -779 -777 -723 -712 -715 -842 4 -63 6 -66 56 -117 51 -51 53
-51 121 -55 39 -2 85 1 106 8 28 9 196 171 737 713 603 603 704 700 729 700
25 0 126 -97 733 -706 694 -694 706 -706 752 -713 25 -3 71 -4 102 -1 50 5 61
11 106 56 48 48 50 53 54 115 8 131 64 65 -715 843 -601 599 -706 709 -706
733 0 24 105 134 706 733 694 694 706 705 712 751 4 26 5 72 3 102 -4 51 -9
60 -56 106 -46 47 -55 52 -106 56 -30 2 -76 1 -101 -3 -46 -6 -60 -20 -751
-712 -598 -599 -710 -706 -733 -706 -24 0 -136 107 -733 705 -569 568 -712
706 -738 711 -45 9 -141 8 -165 -3z"></path>
    </g>
</svg>