 <svg version="1.0" xmlns="http://www.w3.org/2000/svg" width="700.000000pt" height="700.000000pt" viewBox="0 0 700.000000 700.000000" preserveAspectRatio="xMidYMid meet">
<metadata>
Created by potrace 1.12, written by Peter Selinger 2001-2015
</metadata>
<g transform="translate(0.000000,700.000000) scale(0.100000,-0.100000)" fill="#000000" stroke="none">
<path d="M2290 6986 c0 -19 -140 -163 -749 -769 -684 -682 -651 -647 -657
-671 -2 -12 -3 -1229 -2 -2706 l3 -2685 33 -47 c18 -26 42 -50 53 -53 11 -4
25 -18 31 -31 l11 -24 2487 0 2487 0 11 24 c6 13 20 27 31 31 11 3 35 27 53
53 l33 47 0 3345 0 3345 -33 47 c-18 26 -42 50 -53 53 -11 4 -25 18 -31 31
l-11 24 -1849 0 c-1556 0 -1848 -2 -1848 -14z m3381 -426 c19 -11 19 -55 19
-3060 0 -3005 0 -3049 -19 -3060 -27 -14 -4315 -14 -4342 0 -19 11 -19 48 -19
2406 0 1907 3 2396 13 2399 6 2 265 6 573 9 l562 4 46 27 c25 15 60 48 78 73
l33 47 3 570 c2 520 4 571 19 583 22 16 3003 18 3034 2z m-3487 -346 c3 -9 6
-128 6 -264 0 -236 -1 -250 -19 -260 -25 -13 -470 -14 -505 0 -14 5 -26 13
-26 18 0 15 505 519 521 520 9 1 20 -5 23 -14z"></path>
<path d="M2305 4118 c-28 -17 -64 -52 -80 -77 -61 -94 -28 -215 78 -283 l52
-33 1365 0 1365 0 48 32 c72 47 107 104 107 176 0 76 -34 135 -104 183 l-51
34 -1365 0 -1365 0 -50 -32z"></path>
<path d="M1920 3271 c-43 -14 -100 -59 -131 -103 -23 -35 -29 -54 -29 -101 0
-76 34 -135 104 -183 l51 -34 1585 0 1585 0 51 34 c70 48 104 107 104 183 0
72 -35 129 -107 176 l-48 32 -1570 2 c-863 1 -1581 -2 -1595 -6z"></path>
<path d="M1864 2366 c-70 -48 -104 -107 -104 -183 0 -72 35 -129 107 -176 l48
-32 1585 0 1585 0 48 32 c72 47 107 104 107 176 0 76 -34 135 -104 183 l-51
34 -1585 0 -1585 0 -51 -34z"></path>
</g>
</svg>