 <svg version="1.0" xmlns="http://www.w3.org/2000/svg" width="700.000000pt" height="700.000000pt" viewBox="0 0 700.000000 700.000000" preserveAspectRatio="xMidYMid meet">
<metadata>
Created by potrace 1.12, written by Peter Selinger 2001-2015
</metadata>
<g transform="translate(0.000000,700.000000) scale(0.100000,-0.100000)" fill="#CE3816" stroke="none">
<path d="M3331 4245 c-18 -8 -43 -15 -55 -15 -12 0 -31 -7 -42 -15 -10 -8 -25
-15 -33 -15 -7 0 -49 -21 -93 -47 -87 -52 -176 -132 -225 -204 -43 -62 -113
-203 -113 -227 0 -11 -7 -36 -15 -55 -11 -26 -15 -73 -15 -167 0 -94 4 -141
15 -167 8 -19 15 -45 15 -57 0 -12 7 -31 15 -42 8 -10 15 -24 15 -31 0 -29
105 -186 161 -242 56 -56 213 -161 242 -161 7 0 21 -7 31 -15 11 -8 30 -15 42
-15 12 0 38 -7 57 -15 52 -21 271 -21 346 1 31 9 68 23 83 30 14 8 32 14 38
14 28 0 189 109 245 166 58 59 155 207 155 236 0 8 7 23 15 34 8 10 15 29 15
40 0 12 7 38 15 57 21 51 21 271 -1 346 -53 185 -162 347 -297 439 -61 42
-201 112 -225 112 -11 0 -36 7 -55 15 -50 21 -288 20 -336 0z"></path>
</g>
</svg>