 <svg version="1.0" xmlns="http://www.w3.org/2000/svg" width="25.000000pt" height="25.000000pt" viewBox="0 0 700.000000 700.000000" preserveAspectRatio="xMidYMid meet">
<metadata>
Created by potrace 1.12, written by Peter Selinger 2001-2015
</metadata>
<g transform="translate(0.000000,700.000000) scale(0.100000,-0.100000)" fill="#3DB697" stroke="none">
<path d="M359 5960 c-121 -15 -270 -128 -305 -233 -10 -31 -23 -51 -35 -54
-19 -5 -19 -61 -19 -2173 0 -2112 0 -2168 19 -2173 12 -3 25 -23 35 -54 20
-61 102 -148 183 -193 41 -23 75 -33 136 -40 112 -13 6144 -13 6256 0 62 7 94
16 122 35 21 14 42 25 47 25 23 0 117 110 143 167 17 38 34 63 44 63 13 0 15
222 15 2169 0 2113 0 2169 -19 2174 -12 3 -25 23 -35 55 -21 62 -100 146 -182
192 -42 23 -76 33 -137 40 -99 12 -6171 11 -6268 0z m6065 -276 c23 -9 20 -41
-4 -49 -11 -3 -39 -22 -62 -40 -24 -19 -52 -41 -63 -49 -11 -9 -53 -41 -92
-73 -40 -32 -91 -71 -113 -88 -23 -16 -54 -41 -70 -55 -16 -14 -47 -38 -70
-55 -22 -16 -59 -45 -83 -62 -23 -18 -51 -39 -62 -48 -11 -8 -49 -38 -85 -66
-35 -28 -76 -58 -90 -67 -14 -9 -66 -50 -117 -92 -50 -41 -120 -96 -155 -122
-85 -64 -227 -172 -258 -197 -116 -95 -165 -133 -183 -143 -12 -6 -60 -43
-107 -82 -48 -39 -106 -84 -129 -101 -23 -16 -73 -55 -111 -85 -38 -30 -88
-68 -110 -85 -22 -16 -83 -65 -136 -107 -52 -43 -105 -83 -117 -90 -23 -12
-128 -94 -162 -126 -11 -11 -30 -24 -42 -31 -12 -6 -65 -46 -117 -89 -52 -42
-114 -90 -137 -107 -23 -16 -70 -52 -104 -80 -34 -27 -75 -60 -91 -73 -51 -40
-68 -33 -211 83 -34 27 -83 66 -110 85 -26 19 -55 40 -63 47 -21 19 -139 112
-194 153 -26 19 -75 58 -110 85 -35 28 -85 66 -110 85 -25 19 -87 68 -137 108
-50 40 -101 78 -112 84 -12 6 -60 43 -107 82 -48 39 -106 85 -129 101 -24 17
-70 53 -104 80 -34 28 -106 84 -160 125 -54 41 -117 90 -140 107 -23 18 -53
41 -67 50 -14 10 -53 40 -87 68 -34 27 -92 73 -129 100 -36 28 -97 75 -135
105 -38 30 -87 69 -109 85 -50 37 -167 129 -199 156 -13 11 -31 24 -41 29 -10
5 -49 35 -86 65 -106 87 -115 94 -173 136 -30 22 -68 51 -85 64 -17 14 -40 31
-51 40 -11 8 -39 29 -62 47 -23 18 -52 41 -65 50 -23 17 -23 18 -4 33 18 13
345 15 2927 15 1599 0 2914 -3 2923 -6z m-6037 -243 c17 -14 55 -44 84 -66 29
-22 87 -67 128 -100 42 -33 98 -76 124 -95 26 -19 79 -60 117 -90 38 -30 88
-68 110 -85 40 -30 171 -133 200 -158 8 -7 37 -28 63 -47 26 -19 67 -50 90
-68 83 -66 165 -129 223 -172 26 -19 58 -44 70 -55 12 -11 41 -33 64 -50 24
-16 73 -53 109 -82 116 -92 200 -157 244 -190 23 -18 53 -42 67 -54 14 -11 67
-52 118 -89 51 -38 99 -75 107 -82 8 -7 47 -38 86 -68 101 -77 129 -105 129
-130 0 -15 -313 -334 -1077 -1099 -593 -592 -1092 -1087 -1109 -1099 -23 -16
-34 -18 -42 -10 -9 9 -12 499 -12 1960 0 1795 1 1948 16 1956 23 13 53 4 91
-27z m6333 -1932 c0 -2130 4 -1981 -57 -1942 -15 10 -513 503 -1105 1095 -747
746 -1078 1084 -1078 1099 0 22 31 54 99 104 22 17 54 41 70 55 16 14 48 39
71 55 24 17 72 53 106 80 35 28 95 75 135 105 94 73 149 115 179 140 14 11 61
46 105 79 44 32 91 68 105 80 62 51 91 73 141 110 71 53 81 61 165 129 39 31
90 71 113 87 24 17 70 53 104 80 34 28 85 67 112 87 55 41 92 69 139 109 17
14 56 43 86 64 30 21 62 45 70 52 33 29 162 130 207 163 26 19 71 54 99 77 59
50 92 64 117 51 16 -8 17 -112 17 -1959z m-3848 9 c50 -41 85 -69 164 -128 67
-50 230 -176 286 -220 116 -92 130 -100 171 -100 44 0 104 33 192 105 28 22
72 56 98 75 50 37 113 85 159 123 58 48 201 156 236 179 15 10 38 18 52 18 20
0 253 -228 1139 -1114 968 -968 1113 -1117 1102 -1130 -12 -14 -296 -16 -2965
-16 -2567 0 -2955 2 -2972 15 -18 13 46 79 1096 1130 l1115 1116 37 -4 c25 -3
55 -20 90 -49z"></path>
</g>
</svg>