 <svg version="1.0" xmlns="http://www.w3.org/2000/svg" width="700.000000pt" height="700.000000pt" viewBox="0 0 700.000000 700.000000" preserveAspectRatio="xMidYMid meet">
<metadata>
Created by potrace 1.12, written by Peter Selinger 2001-2015
</metadata>
<g transform="translate(0.000000,700.000000) scale(0.100000,-0.100000)" fill="#A5B492" stroke="none">
<path d="M3255 6390 c-80 -4 -176 -16 -225 -28 -47 -11 -112 -23 -145 -27 -33
-4 -80 -15 -105 -26 -25 -10 -72 -23 -105 -28 -34 -5 -76 -18 -95 -29 -19 -11
-53 -23 -75 -27 -22 -4 -53 -15 -70 -25 -16 -10 -41 -21 -55 -25 -33 -9 -171
-75 -190 -91 -8 -7 -33 -17 -56 -23 -22 -6 -49 -20 -59 -31 -10 -11 -23 -20
-29 -20 -5 0 -26 -10 -45 -23 -104 -68 -180 -120 -216 -147 -22 -16 -51 -37
-65 -47 -23 -16 -142 -117 -180 -153 -9 -8 -34 -31 -55 -50 -41 -36 -171 -181
-235 -259 -19 -24 -46 -57 -60 -75 -14 -17 -33 -42 -43 -56 -9 -14 -37 -54
-61 -90 -25 -36 -46 -69 -46 -74 0 -4 -11 -21 -25 -38 -14 -16 -25 -35 -25
-42 0 -7 -9 -21 -20 -31 -10 -9 -25 -34 -31 -54 -6 -20 -20 -47 -29 -61 -10
-14 -21 -36 -25 -50 -4 -14 -18 -44 -31 -67 -13 -23 -24 -48 -24 -56 0 -8 -11
-35 -24 -60 -14 -25 -28 -63 -32 -84 -4 -21 -17 -58 -30 -83 -13 -25 -24 -58
-24 -75 -1 -16 -10 -55 -21 -85 -11 -30 -28 -104 -39 -165 -10 -60 -26 -144
-36 -185 -24 -110 -24 -690 0 -800 10 -41 26 -124 36 -185 11 -60 28 -135 39
-165 11 -30 20 -69 21 -85 0 -17 11 -50 24 -75 13 -25 26 -62 30 -83 4 -21 18
-59 32 -84 13 -25 24 -52 24 -58 0 -7 14 -39 30 -70 17 -31 30 -63 30 -70 0
-7 7 -18 14 -25 8 -6 22 -34 31 -61 9 -27 20 -49 25 -49 4 0 17 -19 28 -43 11
-24 27 -49 36 -56 9 -8 16 -19 16 -25 0 -6 21 -40 46 -76 24 -36 52 -76 62
-90 20 -30 151 -189 236 -285 82 -94 306 -292 416 -367 14 -10 51 -35 84 -58
32 -22 61 -40 66 -40 4 0 24 -13 45 -30 21 -16 43 -30 50 -30 6 0 20 -9 30
-20 10 -11 37 -25 59 -31 23 -6 47 -15 53 -21 19 -16 166 -88 179 -88 6 0 32
-11 57 -24 25 -14 63 -28 84 -32 21 -3 54 -15 73 -26 19 -11 63 -24 98 -29 35
-5 77 -16 94 -25 17 -9 85 -25 152 -35 67 -11 135 -24 151 -30 94 -33 752 -29
875 5 30 9 93 21 140 26 47 6 117 22 157 35 39 14 82 25 95 25 13 0 41 9 63
21 21 12 59 27 84 34 55 15 133 47 216 86 33 16 64 29 68 29 5 0 21 8 35 19
15 10 43 24 63 30 20 6 45 21 54 31 10 11 24 20 31 20 7 0 25 11 41 23 15 13
39 30 54 38 47 26 91 54 127 81 106 79 181 139 236 188 34 30 79 71 101 91 78
70 273 297 353 411 12 18 34 49 47 68 14 19 30 46 37 60 7 14 23 38 35 53 13
16 23 33 23 39 0 6 11 26 25 44 14 18 25 39 25 47 0 8 11 30 24 50 13 19 27
46 31 58 4 13 18 43 31 66 13 23 24 48 24 55 0 8 9 32 21 53 11 22 26 63 33
91 8 27 23 68 35 89 12 22 21 53 21 70 0 16 12 62 25 100 14 39 30 106 35 150
6 44 17 105 26 135 9 33 19 134 25 253 11 233 -2 563 -25 647 -9 30 -20 91
-26 135 -5 44 -21 112 -35 150 -13 39 -25 84 -25 100 0 17 -11 50 -24 75 -13
25 -26 62 -30 83 -4 21 -18 59 -32 84 -13 25 -24 52 -24 60 0 8 -11 33 -24 56
-13 23 -27 53 -31 66 -4 12 -18 39 -31 58 -13 20 -24 44 -24 54 0 9 -11 30
-24 46 -13 15 -26 38 -30 49 -4 12 -15 29 -26 39 -11 10 -20 24 -20 31 0 7
-11 25 -24 41 -13 15 -31 42 -40 58 -9 17 -31 49 -49 72 -111 145 -150 193
-187 233 -23 25 -59 63 -80 85 -54 58 -195 185 -268 241 -35 27 -82 64 -105
81 -23 18 -55 40 -72 49 -16 9 -43 27 -58 40 -16 13 -33 24 -39 24 -5 0 -23
11 -40 25 -16 14 -35 25 -42 25 -7 0 -21 9 -31 20 -9 10 -34 25 -54 31 -20 6
-47 20 -61 29 -14 10 -36 21 -50 25 -14 4 -43 18 -66 31 -22 13 -47 24 -55 24
-8 0 -37 11 -65 24 -27 14 -69 30 -94 36 -25 7 -62 21 -82 31 -20 10 -48 19
-60 19 -13 1 -48 10 -78 21 -30 11 -107 28 -170 39 -63 10 -146 25 -185 33
-85 19 -450 28 -650 17z m485 -415 c151 -11 230 -22 271 -35 32 -11 87 -24
123 -29 35 -5 75 -16 88 -25 13 -8 48 -20 77 -27 30 -6 68 -20 85 -30 17 -10
38 -19 47 -19 10 0 43 -13 74 -30 31 -16 63 -30 70 -30 7 0 28 -11 48 -24 19
-13 46 -27 58 -31 13 -4 33 -15 44 -25 11 -10 36 -25 55 -34 19 -9 51 -27 70
-41 19 -13 66 -46 104 -72 194 -135 483 -430 597 -608 14 -22 34 -53 45 -69
23 -34 64 -104 96 -166 14 -25 29 -54 35 -65 29 -51 83 -172 83 -185 0 -8 12
-37 25 -65 14 -27 25 -58 25 -68 0 -10 9 -35 20 -56 10 -21 24 -69 30 -107 6
-37 19 -92 29 -123 58 -172 58 -850 0 -1022 -10 -31 -23 -86 -29 -123 -6 -36
-19 -85 -29 -109 -10 -23 -26 -64 -36 -92 -39 -114 -54 -153 -80 -205 -15 -30
-31 -62 -36 -70 -5 -8 -21 -37 -35 -65 -14 -27 -35 -66 -47 -85 -12 -20 -31
-50 -42 -69 -57 -94 -89 -138 -201 -271 -152 -181 -352 -364 -499 -457 -27
-17 -61 -40 -75 -51 -14 -11 -41 -27 -60 -36 -19 -10 -57 -30 -85 -46 -27 -16
-66 -37 -85 -46 -19 -9 -62 -30 -94 -45 -32 -16 -66 -29 -74 -29 -8 0 -29 -9
-46 -19 -17 -10 -55 -24 -84 -30 -29 -6 -67 -18 -83 -27 -17 -8 -58 -20 -92
-25 -34 -5 -87 -18 -117 -28 -38 -13 -124 -24 -275 -36 -187 -14 -248 -15
-405 -5 -219 14 -308 25 -356 45 -19 8 -59 17 -87 21 -29 4 -78 17 -109 30
-32 13 -65 24 -75 24 -10 0 -40 11 -68 25 -27 13 -57 25 -65 25 -24 0 -302
143 -419 215 -148 91 -397 308 -524 458 -104 122 -184 226 -222 288 -56 92
-110 188 -139 249 -9 19 -26 52 -37 73 -19 36 -31 68 -74 192 -10 28 -26 69
-36 92 -10 24 -23 73 -29 109 -6 37 -19 92 -30 123 -57 171 -57 851 0 1022 11
31 24 85 30 121 5 36 19 86 30 109 11 24 20 51 20 59 0 8 11 38 25 65 13 28
25 57 25 66 0 10 14 43 30 74 17 31 30 62 30 69 0 6 11 27 24 46 13 19 27 46
31 60 4 14 18 39 31 56 13 17 24 35 24 40 0 5 14 27 30 48 17 22 30 43 30 48
0 4 27 43 61 86 33 42 79 102 102 132 89 119 381 384 510 465 26 17 64 42 84
58 20 15 40 27 46 27 6 0 25 11 43 25 18 14 36 25 41 25 4 0 62 27 127 60 66
33 127 60 135 60 9 0 39 12 66 25 28 14 59 25 70 25 11 0 40 10 65 21 25 11
72 25 104 30 33 6 85 18 115 29 34 11 113 23 201 29 80 6 163 13 185 14 93 8
163 6 365 -8z"></path>
<path d="M2528 4421 c-21 -4 -46 -15 -55 -23 -10 -9 -33 -23 -50 -32 -47 -24
-109 -113 -127 -184 -48 -184 29 -348 197 -419 101 -44 162 -44 260 -2 56 23
85 44 128 91 49 51 59 70 73 127 31 127 12 229 -60 323 -25 32 -49 58 -53 58
-4 0 -28 14 -54 31 -41 27 -56 31 -134 34 -48 2 -105 0 -125 -4z"></path>
<path d="M4278 4421 c-21 -4 -46 -15 -55 -23 -10 -9 -33 -23 -50 -32 -47 -24
-109 -113 -127 -184 -48 -184 29 -348 197 -419 101 -44 162 -44 260 -2 56 23
85 44 128 91 49 51 59 70 73 127 31 127 12 229 -60 323 -25 32 -49 58 -53 58
-4 0 -28 14 -54 31 -41 27 -56 31 -134 34 -48 2 -105 0 -125 -4z"></path>
<path d="M2260 2749 c-107 -28 -160 -88 -168 -189 -3 -51 -1 -60 36 -115 70
-107 208 -243 349 -345 26 -19 52 -39 58 -43 16 -14 87 -55 130 -77 22 -10 54
-29 70 -40 17 -11 36 -20 44 -20 8 0 37 -11 65 -24 67 -32 168 -65 236 -77 30
-6 98 -20 150 -32 137 -32 403 -32 540 0 52 12 120 26 150 32 68 12 169 45
236 77 28 13 58 24 66 24 8 0 31 11 51 24 19 13 46 27 58 31 13 4 31 13 39 20
8 7 33 23 55 35 85 47 274 207 367 311 128 144 145 218 74 324 -31 47 -42 56
-88 70 -28 8 -64 15 -80 15 -53 0 -124 -35 -164 -81 -68 -79 -168 -174 -229
-219 -78 -58 -157 -110 -168 -110 -5 0 -20 -9 -34 -20 -14 -11 -44 -25 -67
-31 -22 -6 -48 -17 -57 -25 -9 -8 -47 -21 -86 -29 -38 -8 -87 -22 -109 -32
-34 -16 -71 -18 -284 -18 -213 0 -250 2 -284 18 -22 10 -71 24 -109 32 -39 8
-77 21 -86 29 -9 8 -37 20 -63 26 -26 7 -54 21 -64 31 -9 10 -22 19 -28 19
-14 0 -87 47 -171 110 -61 45 -161 140 -229 218 -55 64 -141 98 -206 81z"></path>
</g>
</svg>