 <svg version="1.0" xmlns="http://www.w3.org/2000/svg" width="700.000000pt" height="700.000000pt" viewBox="0 0 700.000000 700.000000" preserveAspectRatio="xMidYMid meet">
<metadata>
Created by potrace 1.12, written by Peter Selinger 2001-2015
</metadata>
<g transform="translate(0.000000,700.000000) scale(0.100000,-0.100000)" fill="#BFBFBF" stroke="none">
<path d="M3330 5205 c-63 -8 -185 -18 -270 -24 -114 -7 -168 -14 -205 -29 -28
-11 -86 -23 -130 -27 -46 -4 -96 -16 -119 -27 -21 -11 -64 -24 -97 -29 -32 -5
-73 -18 -91 -28 -18 -10 -51 -22 -73 -26 -22 -4 -58 -18 -81 -31 -22 -13 -52
-24 -66 -24 -14 0 -37 -10 -52 -21 -15 -12 -46 -26 -68 -31 -23 -5 -53 -17
-67 -27 -14 -10 -37 -22 -51 -26 -14 -4 -37 -18 -52 -31 -15 -12 -41 -25 -57
-29 -16 -3 -37 -15 -47 -26 -9 -10 -34 -24 -56 -29 -21 -6 -38 -15 -38 -20 0
-5 -23 -22 -51 -37 -90 -50 -104 -58 -130 -83 -14 -14 -41 -34 -59 -45 -66
-39 -71 -43 -91 -64 -11 -11 -23 -21 -27 -21 -4 0 -29 -21 -57 -47 -27 -26
-85 -78 -127 -116 -97 -85 -195 -182 -230 -228 -14 -19 -50 -60 -78 -89 -29
-30 -63 -71 -77 -90 -13 -19 -37 -53 -54 -75 -16 -22 -40 -56 -53 -75 -13 -19
-31 -41 -40 -49 -9 -7 -16 -19 -16 -26 0 -8 -11 -27 -25 -43 -14 -17 -32 -53
-41 -81 -15 -43 -15 -57 -4 -97 7 -25 23 -61 36 -79 12 -18 25 -42 28 -53 4
-11 18 -27 31 -36 14 -9 25 -23 25 -31 0 -8 14 -30 30 -48 17 -19 30 -38 30
-43 0 -5 9 -17 20 -29 11 -11 62 -71 114 -133 118 -138 242 -261 411 -406 130
-110 143 -121 200 -154 16 -9 41 -29 56 -44 15 -16 32 -28 37 -28 6 0 23 -11
39 -24 15 -13 38 -26 51 -30 12 -4 34 -18 49 -32 14 -13 34 -24 44 -24 9 0 30
-11 46 -23 15 -13 44 -29 63 -36 19 -6 43 -20 55 -30 11 -10 37 -24 57 -30 20
-7 42 -18 48 -26 6 -7 28 -16 50 -20 21 -4 53 -17 71 -31 18 -13 44 -24 58
-24 13 0 43 -11 65 -24 23 -13 61 -27 85 -31 24 -4 64 -18 89 -31 25 -13 59
-24 76 -24 17 0 54 -11 82 -24 31 -14 81 -26 129 -31 44 -4 102 -16 128 -26
29 -12 85 -21 140 -24 51 -3 187 -15 303 -27 207 -21 214 -21 360 -4 82 10
212 21 289 26 97 5 159 14 200 28 33 12 92 24 130 28 39 3 87 15 109 26 21 11
66 24 99 29 34 6 75 18 92 28 16 10 49 21 72 25 23 3 63 17 89 31 26 14 59 25
75 25 15 0 40 11 56 23 15 13 44 27 63 31 19 3 43 15 55 25 11 11 38 24 61 30
22 6 49 20 59 31 10 11 23 20 30 20 7 0 32 13 56 30 24 16 51 30 60 30 9 0 24
9 35 21 10 12 36 28 57 36 20 8 37 19 37 24 0 5 18 16 40 25 22 9 40 20 40 25
0 8 33 32 112 83 17 11 41 29 53 40 13 12 38 32 55 46 18 14 63 53 99 87 36
35 73 65 81 69 13 5 135 134 278 293 17 20 43 47 55 61 13 14 40 50 61 80 56
83 85 123 107 146 10 11 19 25 19 31 0 6 10 24 23 40 25 30 57 107 57 135 0
28 -31 112 -49 133 -9 11 -22 32 -29 48 -6 15 -16 27 -22 27 -5 0 -18 17 -29
38 -10 20 -28 46 -40 56 -12 11 -21 24 -21 31 0 6 -11 22 -25 35 -14 13 -25
29 -25 36 0 7 -6 17 -14 21 -8 5 -49 49 -91 98 -98 115 -209 224 -360 353 -66
56 -128 110 -137 119 -18 16 -26 22 -88 58 -19 11 -46 32 -61 48 -15 15 -31
27 -37 27 -5 0 -25 12 -45 28 -58 43 -123 82 -140 82 -9 0 -28 11 -44 24 -16
14 -41 28 -55 31 -15 4 -34 15 -43 26 -10 10 -34 24 -54 30 -20 7 -47 20 -60
30 -12 10 -39 21 -60 25 -20 4 -49 17 -64 30 -17 14 -42 24 -59 24 -17 0 -50
11 -73 25 -24 13 -62 27 -86 31 -24 3 -56 15 -71 25 -15 10 -57 23 -93 28 -36
5 -80 18 -98 29 -21 13 -60 23 -112 27 -44 4 -102 16 -129 27 -36 14 -93 22
-200 28 -83 5 -178 14 -211 19 -104 18 -284 21 -405 6z m297 -535 c108 -7 154
-14 190 -30 26 -11 68 -25 92 -31 24 -5 56 -18 70 -28 14 -10 37 -22 51 -26
14 -4 41 -18 60 -31 19 -13 40 -24 46 -24 6 0 21 -11 34 -25 13 -14 29 -25 35
-25 12 0 219 -211 266 -272 15 -18 30 -44 34 -58 4 -14 15 -34 25 -45 10 -11
21 -31 25 -45 4 -13 16 -36 26 -50 10 -14 23 -47 29 -73 6 -27 20 -67 31 -88
44 -86 43 -556 -1 -641 -11 -21 -25 -60 -30 -86 -6 -26 -19 -58 -29 -72 -10
-14 -23 -42 -30 -62 -7 -21 -16 -38 -20 -38 -4 0 -17 -20 -29 -45 -12 -25 -26
-45 -31 -45 -5 0 -14 -12 -20 -28 -18 -43 -291 -302 -318 -302 -6 0 -26 -11
-46 -24 -19 -13 -46 -27 -58 -31 -13 -4 -35 -16 -48 -26 -12 -10 -39 -21 -60
-25 -20 -4 -62 -18 -95 -31 -47 -19 -87 -26 -193 -33 -181 -11 -405 3 -448 29
-18 10 -56 24 -86 30 -29 7 -60 18 -69 26 -9 8 -35 21 -59 30 -23 8 -54 24
-68 35 -14 11 -30 20 -35 20 -6 0 -26 12 -45 28 -57 43 -266 254 -291 292 -12
19 -36 55 -52 80 -16 25 -30 52 -30 61 0 8 -11 30 -24 48 -14 18 -29 55 -35
81 -6 27 -20 66 -31 88 -45 86 -44 559 1 645 11 21 24 60 30 87 6 26 21 63 35
81 13 18 24 40 24 48 0 9 14 36 30 61 16 25 40 61 52 80 43 65 309 320 335
320 4 0 24 11 43 24 19 13 46 27 59 31 12 4 39 18 58 31 20 13 48 24 62 24 14
0 51 12 81 26 45 21 77 27 175 34 66 4 125 8 130 8 6 1 74 -3 152 -8z"></path>
</g>
</svg>