 <svg version="1.0" xmlns="http://www.w3.org/2000/svg" width="700.000000pt" height="700.000000pt" viewBox="0 0 700.000000 700.000000" preserveAspectRatio="xMidYMid meet">
<metadata>
Created by potrace 1.12, written by Peter Selinger 2001-2015
</metadata>
<g transform="translate(0.000000,700.000000) scale(0.100000,-0.100000)" fill="#000000" stroke="none">
<path d="M5854 5512 c-11 -4 -35 -18 -52 -32 -61 -48 -111 -85 -147 -110 -20
-14 -54 -38 -75 -55 -22 -16 -58 -43 -80 -60 -23 -16 -49 -37 -58 -45 -10 -8
-39 -31 -65 -50 -27 -19 -66 -48 -87 -65 -21 -16 -55 -41 -75 -55 -20 -14 -48
-37 -63 -51 -67 -66 -122 -99 -167 -99 -47 0 -120 23 -145 45 -8 7 -37 19 -63
25 -27 6 -60 19 -75 29 -15 11 -49 22 -77 26 -27 4 -64 16 -82 26 -17 11 -59
24 -91 29 -33 6 -80 19 -105 30 -25 11 -80 23 -124 26 -43 4 -97 15 -121 25
-33 14 -100 22 -310 35 -225 14 -303 14 -497 5 -324 -16 -343 -18 -405 -39
-30 -11 -89 -23 -130 -27 -41 -3 -95 -15 -119 -26 -24 -10 -70 -23 -103 -29
-32 -5 -74 -18 -91 -28 -18 -11 -53 -23 -79 -26 -26 -4 -57 -15 -70 -25 -13
-10 -49 -24 -80 -30 -31 -7 -62 -18 -68 -26 -6 -8 -35 -21 -65 -29 -29 -9 -58
-22 -64 -30 -7 -8 -24 -17 -39 -21 -15 -4 -47 -20 -71 -36 -25 -16 -50 -29
-56 -29 -7 0 -18 -6 -24 -14 -7 -8 -36 -25 -65 -39 -30 -14 -57 -31 -61 -36
-3 -6 -14 -11 -24 -11 -9 0 -30 -13 -46 -30 -16 -16 -34 -30 -41 -30 -7 0 -26
-11 -42 -25 -17 -14 -33 -25 -37 -25 -4 0 -22 -12 -41 -27 -18 -16 -51 -41
-74 -58 -23 -16 -54 -41 -70 -55 -16 -14 -53 -45 -81 -70 -71 -61 -269 -259
-349 -349 -36 -40 -77 -86 -93 -102 -15 -17 -27 -34 -27 -38 0 -5 -16 -29 -35
-53 -62 -75 -104 -134 -131 -183 -9 -16 -26 -40 -37 -53 -30 -32 -31 -152 -2
-200 11 -19 27 -46 35 -60 8 -15 23 -36 33 -47 10 -11 35 -45 57 -75 147 -209
350 -426 580 -620 124 -105 152 -126 214 -165 40 -25 96 -88 96 -108 0 -8 -15
-25 -32 -36 -40 -26 -86 -59 -130 -95 -18 -15 -42 -33 -53 -42 -11 -8 -40 -30
-63 -49 -24 -19 -48 -35 -52 -35 -5 0 -20 -10 -35 -23 -14 -12 -43 -35 -65
-52 -22 -16 -58 -43 -80 -60 -21 -16 -55 -41 -76 -55 -20 -14 -46 -34 -58 -46
-11 -11 -35 -30 -53 -42 -42 -29 -50 -58 -26 -85 11 -12 28 -35 39 -51 10 -16
29 -43 42 -60 12 -17 32 -46 43 -63 16 -25 28 -33 51 -33 31 0 63 13 88 37 8
7 33 27 55 43 105 77 164 121 225 171 84 68 113 89 119 89 5 0 20 10 34 22 14
13 42 34 62 48 20 14 52 40 70 58 19 17 38 32 43 32 9 0 62 38 112 80 28 24
150 115 194 145 47 33 81 57 145 107 34 27 64 48 68 48 3 0 15 9 27 21 20 19
59 50 146 114 23 17 54 41 70 55 16 14 46 38 67 53 79 58 113 83 148 107 20
14 64 48 98 76 34 28 72 57 84 63 13 6 33 21 45 32 54 49 171 139 180 139 5 0
39 25 74 55 36 30 69 55 73 55 5 0 26 14 47 30 22 17 49 38 62 48 13 9 38 29
55 44 55 47 109 88 118 88 4 0 19 10 33 23 13 12 45 38 71 57 25 19 61 47 80
63 18 15 37 27 42 27 5 0 20 11 33 25 13 14 29 25 36 25 7 0 18 8 23 19 6 10
27 29 47 42 21 13 51 33 69 44 17 11 58 41 91 67 32 26 76 60 97 75 21 16 52
40 69 56 17 15 35 27 39 27 5 0 18 11 31 24 13 13 51 42 84 65 34 23 67 48 74
56 7 8 17 15 22 15 6 0 36 22 67 49 31 26 67 54 80 61 14 7 64 46 113 86 48
40 98 79 110 85 13 7 35 21 49 33 15 12 41 32 59 46 18 14 47 37 65 53 18 15
37 27 43 27 6 0 24 11 39 25 33 30 97 80 148 115 20 14 55 40 78 58 23 18 52
40 65 50 13 9 39 32 58 50 19 17 38 32 43 32 5 0 24 12 44 28 20 15 52 38 72
52 38 26 102 75 145 109 40 32 106 84 147 114 149 110 163 127 149 182 -3 13
-20 40 -36 59 -17 18 -30 38 -30 42 -1 5 -18 28 -38 51 -38 43 -71 57 -108 45z
m-2053 -875 c31 -15 71 -27 91 -27 21 0 47 -10 67 -24 19 -14 46 -28 62 -31
15 -4 33 -13 41 -22 7 -9 31 -24 53 -35 83 -39 165 -112 165 -148 0 -12 -15
-30 -37 -45 -21 -13 -56 -38 -78 -54 -22 -17 -51 -38 -65 -48 -14 -9 -50 -38
-80 -64 -30 -25 -65 -52 -78 -58 -13 -7 -31 -19 -40 -27 -42 -37 -156 -126
-176 -136 -20 -10 -48 -31 -106 -78 -14 -11 -41 -33 -60 -48 -19 -16 -57 -44
-85 -63 -27 -19 -78 -58 -113 -86 -35 -29 -67 -53 -72 -53 -7 0 -90 -63 -170
-130 -55 -46 -115 -90 -124 -90 -5 0 -18 -9 -30 -21 -20 -19 -50 -43 -146
-114 -22 -16 -69 -52 -104 -80 -36 -27 -81 -61 -101 -75 -21 -14 -54 -40 -75
-57 -20 -18 -47 -33 -59 -33 -19 0 -81 26 -81 33 0 30 -26 129 -40 152 -45 73
-44 553 1 638 11 22 24 61 29 87 5 26 21 65 35 85 14 21 25 44 25 52 0 9 11
28 25 45 14 16 25 35 25 43 0 7 7 19 16 26 9 8 27 30 39 49 30 47 199 216 244
244 20 13 42 31 50 40 7 9 22 16 31 16 10 0 31 11 47 23 15 13 43 29 62 36 19
6 42 18 52 27 9 8 42 19 72 23 30 4 68 16 83 26 42 27 117 34 344 31 199 -3
207 -4 261 -29z"></path>
<path d="M5550 4434 c-25 -19 -57 -45 -72 -57 -14 -12 -39 -32 -55 -45 -15
-12 -44 -36 -64 -52 -20 -17 -41 -30 -47 -30 -6 0 -56 -38 -112 -85 -56 -47
-107 -85 -114 -85 -7 0 -23 -11 -36 -25 -13 -14 -29 -25 -36 -25 -7 0 -19 -8
-26 -18 -7 -9 -24 -25 -38 -35 -109 -77 -101 -71 -218 -168 l-72 -60 6 -112
c3 -62 7 -117 9 -124 2 -7 0 -78 -6 -158 -8 -121 -14 -155 -33 -193 -13 -26
-26 -64 -29 -86 -3 -21 -13 -46 -21 -55 -9 -10 -21 -33 -27 -52 -7 -19 -23
-47 -36 -62 -12 -16 -23 -34 -23 -41 0 -7 -11 -23 -25 -36 -14 -13 -25 -28
-25 -35 0 -16 -188 -213 -233 -243 -21 -15 -53 -35 -69 -44 -17 -9 -40 -25
-52 -36 -11 -11 -34 -23 -51 -26 -16 -4 -39 -16 -50 -26 -11 -10 -41 -24 -67
-29 -25 -6 -61 -19 -80 -30 -23 -14 -71 -23 -163 -32 -163 -17 -199 -17 -365
0 -106 10 -144 18 -175 35 -22 13 -56 26 -75 30 -19 3 -45 16 -58 29 -17 15
-36 22 -66 22 -45 0 -44 0 -180 -110 -41 -33 -91 -71 -111 -85 -63 -43 -109
-78 -140 -105 -48 -42 -88 -71 -120 -88 -69 -37 -96 -77 -52 -77 12 0 40 -10
62 -21 22 -12 68 -28 102 -35 34 -7 74 -19 90 -27 15 -8 59 -17 96 -21 37 -4
91 -16 119 -27 38 -15 91 -23 197 -29 80 -5 162 -13 181 -19 123 -34 452 -37
583 -6 34 9 130 20 214 25 109 7 166 15 202 30 28 10 81 22 118 26 38 4 91 17
119 30 28 13 66 24 84 24 18 0 56 11 84 24 28 14 71 31 96 39 105 35 148 51
195 73 28 13 61 26 75 30 14 3 34 14 45 24 11 10 31 21 45 25 24 7 66 31 153
87 23 15 49 28 58 28 9 0 23 7 30 17 8 9 32 25 54 35 22 10 60 34 85 53 44 34
91 68 140 102 14 9 41 30 60 46 19 15 48 38 63 50 120 95 280 249 390 377 49
58 97 112 106 120 9 8 24 26 34 40 9 14 33 45 52 70 19 25 42 59 51 75 9 17
25 36 35 43 11 7 19 19 19 27 0 7 11 26 24 42 12 15 31 52 40 81 16 48 16 56
2 98 -8 25 -25 58 -38 73 -13 16 -31 41 -40 57 -29 49 -42 68 -68 101 -14 17
-36 48 -50 68 -25 36 -134 169 -174 213 -18 19 -218 219 -281 280 -58 56 -169
142 -183 141 -10 0 -37 -16 -62 -35z"></path>
</g>
</svg>