 <svg version="1.0" xmlns="http://www.w3.org/2000/svg" width="700.000000pt" height="700.000000pt" viewBox="0 0 700.000000 700.000000" preserveAspectRatio="xMidYMid meet">
<metadata>
Created by potrace 1.12, written by Peter Selinger 2001-2015
</metadata>
<g transform="translate(0.000000,700.000000) scale(0.100000,-0.100000)" fill="#BFBFBF" stroke="none">
<path d="M4584 6391 c-53 -14 -125 -77 -163 -144 l-36 -62 -3 -465 c-2 -310
-7 -469 -14 -477 -6 -7 -30 -13 -54 -13 -24 0 -106 -9 -181 -19 -76 -10 -193
-22 -261 -26 -68 -3 -142 -13 -165 -21 -23 -8 -94 -22 -158 -29 -64 -8 -134
-21 -156 -29 -22 -8 -72 -19 -112 -25 -40 -6 -89 -20 -110 -31 -21 -10 -66
-22 -102 -25 -35 -4 -83 -16 -107 -26 -23 -10 -68 -23 -98 -28 -31 -6 -70 -19
-88 -30 -17 -10 -53 -24 -81 -29 -27 -6 -68 -20 -90 -32 -21 -11 -49 -20 -61
-20 -11 0 -42 -11 -68 -25 -26 -14 -52 -25 -59 -25 -7 0 -41 -14 -77 -31 -137
-65 -166 -78 -190 -85 -14 -3 -36 -13 -50 -22 -14 -9 -63 -35 -109 -59 -46
-23 -91 -49 -100 -57 -9 -7 -33 -19 -53 -25 -21 -7 -41 -17 -44 -23 -4 -6 -25
-19 -48 -30 -22 -10 -61 -34 -86 -53 -25 -19 -62 -44 -82 -55 -20 -11 -40 -25
-44 -31 -3 -6 -21 -17 -38 -25 -17 -8 -51 -30 -76 -49 -25 -19 -56 -43 -70
-52 -120 -83 -281 -223 -435 -379 -156 -158 -211 -219 -282 -314 -26 -36 -53
-72 -60 -80 -24 -29 -61 -86 -123 -185 -34 -55 -70 -111 -79 -125 -15 -22 -41
-74 -125 -249 -14 -30 -26 -61 -26 -69 0 -8 -9 -29 -19 -46 -11 -17 -25 -53
-32 -81 -6 -27 -20 -66 -30 -85 -9 -20 -20 -58 -25 -85 -4 -28 -15 -74 -26
-104 -10 -30 -23 -95 -28 -144 -14 -120 -26 -169 -44 -183 -14 -10 -16 -49
-16 -291 0 -245 2 -282 16 -294 25 -21 34 -56 44 -164 5 -56 18 -124 28 -151
11 -27 23 -74 27 -104 4 -30 18 -76 31 -102 13 -26 24 -56 24 -66 0 -10 9 -35
19 -56 11 -21 27 -58 35 -83 11 -30 34 -62 72 -99 67 -63 126 -80 230 -69 103
11 186 84 231 203 7 18 21 46 33 61 11 16 20 35 20 43 0 7 15 37 32 65 18 28
44 69 58 92 50 83 170 238 260 334 56 60 245 229 305 273 11 8 39 29 61 47 23
17 57 41 75 52 70 42 94 58 118 76 13 10 27 19 32 19 4 0 44 22 88 49 44 27
90 52 103 56 13 4 35 16 50 27 15 10 42 24 60 30 18 6 44 19 58 28 14 10 41
21 60 25 19 4 53 18 76 31 22 13 48 24 56 24 8 0 36 11 61 24 25 14 63 28 84
32 21 3 52 14 68 24 17 10 54 23 83 29 29 6 67 18 83 27 17 8 63 21 102 29 40
8 97 23 127 34 30 11 70 20 88 21 18 0 58 9 89 20 31 11 95 25 142 31 47 6
120 19 161 30 41 10 129 23 195 29 66 6 152 17 190 25 102 21 571 41 590 25
12 -10 15 -96 17 -563 l3 -552 31 -61 c39 -79 87 -121 166 -145 78 -24 92 -24
167 0 66 20 111 55 179 135 56 66 151 174 177 200 12 12 74 84 140 161 65 77
141 165 169 195 28 30 76 84 106 119 30 35 62 71 71 80 9 9 71 81 139 161 68
80 131 152 140 160 10 8 85 94 167 190 152 177 218 253 263 299 13 14 90 103
171 197 80 93 157 181 170 195 82 84 293 340 306 371 7 14 21 29 32 33 19 6
21 14 21 95 0 78 -2 89 -19 95 -10 3 -25 20 -32 38 -12 28 -109 149 -150 187
-9 8 -69 78 -134 155 -65 77 -125 147 -134 155 -9 8 -72 80 -140 160 -69 80
-147 170 -175 200 -28 30 -73 82 -101 114 -27 33 -59 69 -71 80 -11 12 -76 86
-144 166 -68 80 -133 154 -144 165 -12 11 -73 81 -136 154 -63 74 -124 144
-135 157 -11 12 -45 51 -75 85 -30 34 -68 76 -83 93 -62 67 -78 86 -193 221
-222 259 -309 350 -352 366 -35 13 -161 20 -198 10z m466 -1123 c48 -59 281
-331 295 -343 6 -5 40 -44 76 -85 35 -41 69 -79 75 -85 7 -5 69 -77 139 -160
70 -82 133 -154 139 -160 7 -5 68 -75 135 -155 68 -80 131 -152 140 -160 9 -8
45 -49 81 -90 35 -41 81 -93 102 -114 21 -22 49 -56 63 -76 23 -33 24 -40 13
-67 -11 -26 -78 -109 -143 -177 -11 -11 -49 -55 -83 -96 -89 -105 -163 -189
-192 -219 -13 -14 -80 -91 -148 -171 -110 -128 -215 -247 -292 -330 -14 -15
-41 -46 -60 -70 -19 -23 -56 -66 -81 -94 -25 -28 -74 -85 -110 -126 -36 -41
-83 -95 -106 -120 -23 -25 -49 -55 -60 -67 -10 -13 -33 -26 -50 -29 l-33 -6
-1 138 c-2 311 -9 448 -25 503 -21 72 -65 125 -138 164 l-61 32 -225 -3 c-124
-2 -281 -9 -350 -17 -69 -8 -206 -19 -305 -25 -99 -6 -225 -19 -280 -30 -55
-10 -148 -24 -206 -30 -58 -6 -130 -19 -160 -29 -30 -10 -90 -22 -134 -26 -44
-4 -101 -15 -127 -26 -25 -10 -70 -21 -100 -25 -29 -4 -80 -17 -113 -29 -33
-12 -85 -25 -115 -29 -30 -4 -65 -14 -77 -22 -12 -8 -48 -20 -80 -28 -32 -8
-78 -23 -103 -34 -25 -11 -63 -24 -85 -28 -22 -4 -60 -18 -84 -31 -24 -12 -52
-23 -61 -23 -10 0 -28 -9 -42 -19 -14 -11 -47 -25 -74 -32 -27 -7 -61 -20 -76
-31 -14 -10 -30 -18 -34 -18 -9 0 -148 -65 -174 -81 -8 -5 -37 -20 -65 -34
-27 -14 -72 -39 -100 -55 -27 -16 -69 -39 -92 -50 -23 -11 -45 -25 -48 -30 -4
-6 -23 -19 -43 -30 -20 -11 -57 -36 -82 -55 -25 -19 -61 -44 -80 -55 -45 -27
-88 -59 -125 -93 -16 -16 -61 -53 -100 -84 -80 -64 -298 -284 -323 -325 -20
-34 -56 -37 -73 -6 -26 48 -5 475 28 562 8 23 21 73 29 111 7 39 20 81 28 95
8 14 19 45 25 70 6 25 20 63 31 85 130 268 178 356 241 440 16 22 41 58 56 80
81 124 338 393 528 551 95 78 120 97 281 205 55 36 112 74 127 85 41 27 114
70 172 100 28 14 73 38 100 54 28 16 66 36 85 45 19 8 56 26 81 40 26 14 56
25 66 25 11 0 34 11 53 25 19 14 41 25 49 25 9 0 43 14 76 30 33 17 68 30 79
30 10 0 42 11 70 24 28 13 69 27 91 31 22 4 54 16 70 26 17 10 51 21 75 25 25
4 72 17 105 29 33 12 81 26 108 29 26 4 66 16 90 26 23 10 71 21 107 25 36 4
94 15 130 25 36 10 106 24 155 30 50 6 121 17 159 25 73 15 232 28 586 45 269
14 324 27 392 97 67 69 80 123 82 343 1 97 6 181 10 188 4 7 20 12 35 12 20 0
36 -11 61 -42z"></path>
</g>
</svg>