 <svg version="1.0" xmlns="http://www.w3.org/2000/svg" width="25.000000pt" height="25.000000pt" viewBox="0 0 700.000000 700.000000" preserveAspectRatio="xMidYMid meet">
<metadata>
Created by potrace 1.12, written by Peter Selinger 2001-2015
</metadata>
<g transform="translate(0.000000,700.000000) scale(0.100000,-0.100000)" fill="#3DB697" stroke="none">
<path d="M5490 6294 c-74 -19 -121 -68 -139 -146 -12 -50 -12 -61 5 -107 10
-28 34 -67 55 -87 34 -33 44 -37 116 -45 43 -4 146 -8 228 -9 285 -1 289 -15
60 -240 -81 -80 -195 -193 -253 -252 -58 -60 -114 -108 -124 -108 -10 0 -53
24 -96 53 -118 78 -282 166 -310 167 -7 0 -30 9 -52 20 -22 11 -63 25 -92 31
-29 6 -77 19 -107 30 -140 51 -637 48 -786 -6 -38 -13 -82 -25 -96 -25 -14 0
-47 -11 -73 -25 -26 -14 -53 -25 -60 -25 -7 0 -43 -16 -82 -35 -38 -19 -74
-35 -80 -35 -6 0 -17 -7 -24 -16 -8 -8 -27 -22 -44 -30 -17 -8 -47 -25 -66
-39 -19 -13 -50 -35 -68 -47 -19 -13 -41 -30 -50 -39 -9 -8 -51 -47 -92 -85
-142 -131 -250 -274 -338 -447 -30 -60 -52 -91 -68 -97 -12 -5 -99 -7 -191 -3
-186 6 -401 -9 -460 -32 -21 -8 -67 -21 -103 -29 -133 -29 -335 -128 -509
-248 -18 -13 -42 -32 -54 -42 -11 -11 -51 -46 -88 -78 -59 -50 -108 -103 -204
-219 -33 -40 -95 -133 -95 -143 0 -5 -6 -17 -14 -25 -18 -20 -86 -150 -86
-165 0 -6 -14 -38 -30 -71 -16 -33 -30 -70 -30 -82 0 -13 -11 -51 -24 -85 -28
-74 -56 -294 -56 -438 0 -136 34 -396 59 -450 11 -25 21 -56 21 -70 0 -14 10
-43 21 -65 12 -22 28 -61 35 -87 8 -26 19 -50 25 -53 5 -4 21 -30 35 -58 36
-74 55 -106 89 -151 22 -29 30 -50 30 -80 0 -39 -6 -47 -134 -174 -127 -126
-136 -132 -165 -126 -22 5 -78 53 -192 164 -180 176 -197 186 -302 177 -59 -4
-68 -8 -104 -45 -53 -52 -72 -119 -57 -200 10 -56 13 -59 175 -223 150 -151
170 -177 165 -217 -1 -7 -72 -83 -158 -169 -85 -86 -162 -171 -169 -189 -18
-43 -18 -145 0 -187 19 -44 51 -72 114 -96 67 -27 72 -26 138 5 41 20 95 65
211 180 86 85 166 157 180 160 21 6 45 -15 186 -153 229 -227 265 -243 382
-177 59 32 66 40 85 92 25 65 23 129 -6 184 -9 18 -85 102 -168 186 -99 100
-152 162 -154 178 -3 20 20 49 118 152 67 70 131 132 143 139 39 22 68 14 151
-40 97 -63 129 -82 176 -102 19 -8 56 -26 81 -40 26 -14 54 -25 63 -25 9 0 42
-11 74 -24 31 -13 82 -27 112 -31 30 -3 89 -16 130 -28 65 -19 100 -21 270
-21 167 0 207 3 275 21 44 12 104 25 134 28 30 4 77 18 105 31 28 13 59 24 69
24 16 0 120 44 172 73 11 6 39 21 63 34 23 12 55 31 70 41 15 11 38 27 52 36
14 9 41 27 61 40 40 27 151 128 213 195 76 81 91 99 116 136 14 20 34 48 45
63 25 33 90 141 97 163 4 8 23 42 43 73 42 66 17 61 205 36 71 -9 120 -10 195
-2 135 14 300 41 355 59 25 8 72 22 105 32 33 10 78 27 100 39 22 12 47 22 55
22 8 0 31 11 50 24 19 13 46 27 60 31 14 4 34 15 45 25 11 10 31 23 45 30 101
52 358 289 440 406 43 61 96 142 110 169 54 98 99 196 106 230 4 17 15 44 25
60 10 17 23 60 28 95 6 36 19 92 30 125 38 121 36 546 -3 654 -9 24 -21 73
-27 110 -5 36 -18 79 -28 96 -10 16 -21 44 -25 60 -10 45 -122 261 -172 333
-24 35 -44 73 -44 86 0 16 73 95 257 280 252 253 298 289 318 255 5 -6 12
-102 16 -213 13 -300 13 -300 64 -351 49 -50 85 -61 177 -52 54 5 65 10 103
47 62 61 65 85 55 465 -5 176 -9 410 -10 520 0 180 -2 203 -19 229 -31 46
-100 96 -133 96 -104 0 -932 20 -973 24 -27 2 -75 -2 -105 -10z m-912 -1065
c13 -5 64 -16 112 -23 49 -8 107 -24 129 -35 22 -12 46 -21 53 -21 18 0 140
-63 173 -89 15 -11 34 -21 41 -21 7 0 55 -35 106 -79 124 -104 243 -237 280
-311 7 -14 22 -38 34 -55 12 -16 25 -43 28 -60 4 -16 14 -37 22 -47 9 -9 22
-42 31 -74 8 -32 21 -71 30 -87 48 -95 48 -589 0 -684 -9 -16 -22 -55 -30 -87
-9 -32 -22 -65 -31 -74 -8 -10 -18 -30 -22 -47 -4 -16 -16 -43 -28 -60 -11
-16 -28 -42 -36 -56 -54 -96 -213 -267 -305 -329 -139 -93 -237 -150 -258
-150 -8 0 -35 -11 -60 -24 -25 -14 -73 -30 -107 -36 -33 -6 -79 -18 -102 -26
-28 -10 -95 -18 -188 -21 -216 -8 -245 11 -221 143 14 71 14 175 2 241 -6 27
-15 98 -21 158 -7 63 -22 135 -36 172 -13 35 -24 72 -24 82 0 10 -11 39 -25
65 -14 26 -25 52 -25 58 0 16 -80 177 -92 184 -5 4 -17 21 -24 38 -67 143
-336 417 -514 521 -29 17 -67 40 -85 51 -18 12 -44 25 -56 29 -56 17 -63 49
-24 107 14 20 25 40 25 44 0 8 65 108 89 136 46 56 196 201 228 222 21 14 63
43 95 64 31 22 71 45 89 51 18 6 40 18 48 25 9 8 36 20 61 26 25 7 61 20 80
30 19 10 64 21 100 25 36 4 76 12 90 18 62 25 307 29 368 6z m-1909 -988 c34
-5 57 -14 63 -25 5 -9 11 -122 12 -249 3 -202 6 -240 23 -292 12 -33 24 -85
28 -115 4 -30 16 -71 26 -92 10 -20 23 -58 29 -84 6 -27 18 -56 25 -64 8 -9
21 -35 30 -59 8 -23 24 -55 35 -71 11 -15 20 -32 20 -38 0 -5 14 -26 30 -47
17 -21 30 -42 30 -48 0 -5 12 -24 28 -42 15 -18 38 -47 52 -64 85 -109 247
-260 362 -339 18 -12 49 -34 68 -47 19 -13 46 -29 60 -35 50 -20 73 -36 94
-63 20 -27 20 -28 1 -65 -22 -41 -70 -117 -112 -175 -49 -67 -229 -238 -278
-264 -16 -8 -37 -22 -46 -30 -9 -8 -32 -22 -50 -31 -19 -10 -43 -23 -54 -29
-54 -30 -157 -72 -196 -78 -24 -4 -66 -17 -94 -29 -46 -19 -67 -21 -290 -21
-220 1 -244 2 -290 21 -27 12 -68 25 -90 29 -22 4 -67 19 -100 35 -33 15 -67
31 -75 35 -26 11 -104 58 -165 99 -61 40 -239 215 -288 282 -116 161 -199 366
-239 594 -14 82 -5 325 16 379 9 24 21 72 26 107 6 35 19 78 29 96 11 18 22
47 26 64 3 17 17 46 31 65 13 18 24 37 24 43 0 17 62 109 128 188 64 79 209
218 226 218 6 0 20 9 32 21 12 11 37 29 55 39 77 42 196 99 219 105 14 4 43
15 65 25 22 10 76 23 120 30 44 6 96 15 115 19 44 11 168 12 239 2z m595 -208
c137 -101 322 -290 352 -360 7 -17 18 -34 23 -37 11 -7 74 -133 95 -191 36
-100 46 -136 63 -220 10 -52 18 -136 18 -200 l0 -110 -32 -3 c-21 -2 -46 6
-75 24 -136 87 -293 251 -385 403 -40 66 -101 195 -108 231 -4 19 -14 48 -22
64 -28 54 -62 371 -44 405 17 31 69 28 115 -6z"></path>
</g>
</svg>