 <svg version="1.0" xmlns="http://www.w3.org/2000/svg" width="700.000000pt" height="700.000000pt" viewBox="0 0 700.000000 700.000000" preserveAspectRatio="xMidYMid meet">
<metadata>
Created by potrace 1.12, written by Peter Selinger 2001-2015
</metadata>
<g transform="translate(0.000000,700.000000) scale(0.100000,-0.100000)" fill="#000000" stroke="none">
<path d="M4205 6550 c-66 -5 -117 -14 -146 -27 -25 -11 -67 -23 -94 -28 -27
-4 -65 -15 -85 -25 -19 -11 -73 -38 -120 -60 -47 -23 -106 -54 -131 -68 -145
-85 -399 -330 -399 -386 0 -14 10 -30 26 -41 14 -9 34 -25 45 -36 31 -31 72
-25 105 17 39 50 164 173 211 207 67 49 107 76 129 86 11 5 38 21 59 35 21 14
44 26 52 26 8 0 29 10 45 22 17 11 51 25 76 30 25 4 64 17 86 28 30 14 87 24
211 35 94 8 181 13 195 11 14 -3 79 -10 144 -16 76 -7 135 -18 163 -30 24 -11
61 -22 81 -26 32 -6 121 -45 172 -75 8 -5 35 -20 60 -34 131 -74 304 -231 382
-346 13 -19 33 -45 46 -59 12 -13 22 -29 22 -35 0 -6 11 -26 25 -45 14 -19 25
-41 25 -50 0 -9 11 -31 24 -49 14 -18 28 -52 31 -74 4 -23 16 -56 26 -74 12
-19 24 -65 29 -117 6 -47 15 -98 22 -113 15 -37 14 -266 -1 -321 -7 -23 -16
-78 -21 -121 -5 -44 -17 -92 -28 -112 -11 -19 -23 -53 -27 -76 -3 -22 -17 -56
-31 -74 -13 -18 -24 -41 -24 -50 0 -10 -11 -31 -25 -47 -14 -17 -25 -34 -25
-39 0 -25 -90 -142 -179 -231 -92 -94 -130 -124 -218 -178 -18 -11 -59 -43
-90 -69 -51 -45 -54 -49 -37 -62 10 -7 33 -13 51 -13 19 0 55 -11 81 -24 26
-13 69 -27 97 -31 27 -4 71 -18 97 -31 26 -13 55 -24 64 -24 10 0 36 -11 58
-24 23 -13 54 -26 71 -30 16 -4 36 -13 44 -19 14 -12 78 -47 166 -90 28 -13
56 -31 64 -40 7 -10 17 -17 21 -17 4 0 34 -18 66 -40 33 -23 70 -48 84 -58
106 -71 312 -262 397 -368 17 -21 53 -66 80 -99 48 -59 145 -215 177 -285 9
-19 23 -46 31 -60 7 -14 21 -47 30 -75 9 -27 23 -68 30 -90 7 -22 17 -62 23
-90 6 -27 18 -75 26 -105 22 -75 22 -318 0 -375 -9 -22 -22 -62 -30 -89 -23
-83 -123 -214 -207 -270 -60 -41 -174 -94 -217 -101 -23 -4 -61 -15 -84 -25
-22 -10 -75 -22 -116 -25 -41 -4 -111 -15 -155 -25 -44 -10 -137 -22 -207 -26
-69 -3 -132 -10 -139 -14 -20 -13 -13 -151 9 -168 22 -18 196 -9 282 13 32 8
109 19 172 24 72 6 129 17 158 29 25 11 70 23 100 26 30 4 74 18 97 32 23 13
50 24 61 24 11 0 31 9 45 20 14 11 41 27 59 36 66 30 184 136 233 209 46 67
94 183 105 252 9 57 17 77 36 92 24 19 24 22 24 179 0 151 -1 161 -20 167 -23
7 -36 50 -46 150 -4 39 -18 93 -31 120 -12 28 -23 58 -23 68 0 16 -23 71 -69
167 -7 14 -25 48 -41 75 -16 28 -37 66 -47 85 -10 19 -36 60 -59 90 -22 30
-47 66 -54 80 -7 14 -22 34 -32 45 -11 11 -56 60 -101 109 -143 156 -276 276
-392 356 -20 14 -51 36 -68 50 -18 14 -43 31 -57 38 -14 7 -50 28 -80 47 -30
19 -71 42 -90 51 -19 9 -47 25 -62 35 -14 11 -33 19 -41 19 -8 0 -30 11 -50
24 -19 13 -60 31 -90 40 -58 17 -97 52 -97 88 0 11 26 46 58 78 31 32 67 71
80 86 12 16 38 49 57 72 19 24 35 48 35 54 0 6 11 23 25 40 14 16 25 35 25 42
0 7 11 27 25 46 14 19 25 43 25 54 0 10 11 38 25 61 13 23 29 64 35 91 5 27
19 69 30 94 13 32 24 97 34 220 14 158 14 192 0 345 -10 115 -21 184 -34 215
-11 25 -24 67 -30 95 -6 27 -19 63 -29 80 -11 16 -22 44 -26 62 -3 17 -13 37
-21 44 -8 6 -23 30 -35 53 -54 109 -67 129 -155 233 -70 82 -222 228 -264 253
-69 40 -95 57 -119 76 -14 12 -37 25 -51 29 -14 4 -41 18 -60 31 -19 13 -42
24 -50 24 -8 0 -36 11 -60 24 -25 13 -71 29 -103 35 -31 5 -70 17 -87 26 -58
30 -335 42 -575 25z"></path>
<path d="M2490 5610 c-36 -4 -77 -13 -92 -19 -15 -5 -66 -15 -114 -22 -48 -6
-101 -19 -118 -30 -17 -10 -53 -23 -80 -29 -27 -6 -60 -19 -73 -30 -13 -10
-37 -21 -52 -25 -16 -3 -37 -15 -47 -26 -9 -10 -22 -19 -28 -19 -16 0 -89 -48
-177 -117 -79 -61 -147 -128 -215 -210 -88 -107 -107 -134 -127 -173 -9 -19
-35 -66 -57 -105 -21 -38 -39 -77 -39 -85 -1 -8 -12 -35 -25 -60 -13 -25 -27
-68 -31 -95 -4 -28 -17 -72 -29 -100 -20 -47 -21 -67 -21 -330 0 -250 2 -284
18 -320 10 -22 25 -73 33 -114 8 -41 21 -82 28 -90 8 -9 19 -33 24 -53 6 -21
20 -51 31 -67 12 -16 21 -36 21 -44 0 -8 14 -31 30 -52 17 -21 30 -43 30 -50
0 -7 13 -30 30 -51 16 -22 39 -52 52 -69 38 -51 236 -243 267 -259 31 -17 56
-71 45 -99 -6 -18 -54 -37 -92 -37 -14 0 -44 -11 -66 -24 -23 -13 -57 -27 -76
-31 -19 -4 -53 -18 -76 -31 -22 -13 -47 -24 -55 -24 -9 0 -30 -11 -49 -25 -19
-14 -41 -25 -51 -25 -9 0 -32 -11 -52 -24 -19 -13 -46 -27 -58 -31 -13 -4 -33
-16 -44 -26 -11 -10 -36 -25 -55 -34 -19 -8 -55 -31 -80 -50 -25 -20 -58 -43
-74 -53 -58 -34 -263 -212 -357 -308 -102 -106 -231 -260 -264 -315 -11 -18
-31 -52 -44 -74 -45 -77 -111 -204 -111 -216 0 -6 -9 -24 -20 -39 -11 -16 -24
-49 -29 -74 -4 -25 -16 -57 -26 -72 -9 -15 -23 -71 -32 -132 -15 -113 -25
-142 -48 -142 -13 0 -15 -26 -15 -157 0 -156 0 -157 25 -178 21 -16 28 -35 39
-101 8 -53 20 -91 34 -109 12 -15 22 -34 22 -41 0 -47 184 -226 266 -260 21
-9 46 -23 55 -31 10 -8 40 -20 69 -28 28 -7 62 -21 75 -29 13 -9 56 -20 95
-26 39 -6 96 -18 128 -29 40 -13 102 -21 207 -25 248 -11 365 -24 413 -47 42
-21 51 -21 480 -14 240 4 516 6 612 5 1275 -10 1255 -10 1308 10 63 24 97 28
367 44 152 9 232 18 257 29 21 9 72 21 114 27 43 5 91 19 108 29 17 11 49 23
71 26 22 4 47 13 55 21 9 7 33 21 55 31 60 27 89 50 180 141 55 54 88 95 96
120 6 20 18 45 26 54 8 9 23 54 33 100 10 46 23 96 29 111 17 43 14 295 -4
348 -8 24 -21 85 -29 135 -8 50 -24 109 -35 130 -12 21 -21 49 -21 61 0 20
-29 87 -75 173 -7 14 -25 48 -40 75 -14 28 -36 66 -48 85 -12 20 -31 50 -42
69 -34 56 -102 145 -150 196 -131 138 -211 218 -265 265 -34 30 -75 66 -91 80
-47 41 -87 70 -97 70 -6 0 -28 15 -51 32 -76 61 -114 88 -127 88 -7 0 -25 11
-41 24 -15 13 -39 27 -53 31 -14 4 -34 15 -45 25 -11 9 -35 22 -53 28 -18 6
-45 20 -59 32 -14 11 -34 20 -45 20 -10 0 -44 14 -75 30 -31 17 -63 30 -72 30
-9 0 -38 11 -66 25 -27 13 -57 25 -65 25 -33 1 -88 21 -93 34 -10 25 12 84 34
91 21 7 240 220 277 270 13 17 36 47 52 69 17 21 30 44 30 51 0 7 7 18 15 25
16 14 95 166 95 184 0 6 11 31 24 56 13 25 27 65 31 90 4 25 17 68 28 95 19
45 21 75 25 321 4 267 4 271 -21 345 -14 41 -29 94 -32 119 -4 25 -16 57 -26
71 -10 14 -21 38 -25 54 -13 51 -82 179 -158 291 -32 47 -126 155 -180 208
-45 43 -76 68 -191 153 -16 12 -51 34 -77 47 -26 14 -49 30 -52 35 -4 5 -19
12 -35 16 -16 3 -43 17 -62 31 -18 13 -45 24 -59 24 -15 0 -47 11 -72 24 -24
13 -69 27 -99 31 -30 3 -91 15 -137 26 -97 22 -278 32 -372 19z m377 -209 c32
-11 84 -25 117 -30 32 -6 73 -20 91 -31 18 -11 38 -20 45 -20 17 0 143 -64
190 -96 19 -13 50 -34 69 -46 116 -79 302 -283 349 -383 11 -22 26 -46 35 -53
9 -8 19 -27 22 -43 4 -16 17 -49 30 -72 12 -23 26 -59 29 -79 4 -20 15 -56 26
-80 45 -104 45 -563 0 -665 -11 -24 -22 -61 -26 -81 -6 -33 -41 -112 -80 -182
-7 -14 -22 -44 -33 -67 -11 -24 -25 -43 -30 -43 -5 0 -13 -9 -16 -21 -16 -49
-228 -273 -290 -306 -16 -9 -53 -34 -82 -57 -29 -23 -80 -59 -115 -81 -35 -21
-75 -48 -90 -60 -14 -11 -49 -33 -77 -50 -28 -16 -49 -34 -48 -39 2 -6 25 -15
53 -21 27 -6 60 -18 74 -27 14 -9 50 -18 80 -21 30 -3 80 -17 110 -31 30 -14
69 -26 85 -26 17 0 53 -12 80 -25 28 -14 59 -25 70 -25 11 0 47 -14 80 -30 33
-16 67 -30 75 -30 8 0 33 -11 55 -25 22 -13 47 -25 56 -25 9 0 32 -11 52 -24
19 -13 46 -27 58 -31 13 -4 37 -18 52 -31 16 -13 35 -24 42 -24 7 0 26 -10 42
-23 15 -13 57 -41 93 -63 36 -21 74 -48 86 -59 11 -11 49 -40 84 -65 87 -61
265 -238 343 -340 36 -47 74 -94 85 -105 10 -11 25 -31 32 -45 7 -14 20 -34
30 -45 10 -11 21 -31 25 -45 4 -14 15 -34 25 -45 10 -11 23 -37 29 -57 7 -20
19 -42 26 -48 8 -7 20 -31 25 -54 6 -22 20 -58 31 -79 11 -21 25 -67 30 -103
5 -36 17 -80 27 -97 14 -27 17 -60 17 -222 0 -178 -2 -192 -23 -230 -12 -21
-22 -48 -22 -58 0 -30 -73 -132 -123 -174 -48 -40 -129 -93 -142 -93 -5 0 -31
-11 -59 -24 -28 -13 -71 -27 -96 -31 -25 -3 -71 -15 -103 -26 -35 -12 -110
-23 -195 -29 -75 -5 -184 -17 -242 -27 -96 -16 -222 -17 -1405 -18 -1178 0
-1309 2 -1395 17 -52 9 -140 20 -195 23 -118 7 -233 24 -258 37 -10 5 -45 14
-79 19 -33 5 -81 21 -107 34 -25 14 -52 25 -60 25 -24 0 -145 85 -181 128 -68
79 -83 104 -92 150 -6 26 -18 55 -27 66 -14 15 -16 46 -16 200 0 163 2 187 23
244 12 34 22 77 22 96 0 18 11 54 25 80 14 26 25 53 25 60 0 7 16 43 35 82 19
38 35 74 35 80 0 6 9 19 20 29 11 10 22 27 26 39 10 32 92 150 177 254 108
132 277 290 434 405 21 15 55 41 77 57 21 17 43 30 48 30 6 0 23 11 40 25 16
14 36 25 43 25 7 0 26 11 42 24 15 13 39 27 53 31 14 4 36 16 49 26 13 11 29
19 36 19 7 0 37 13 68 30 31 16 63 30 70 30 8 0 35 11 60 24 25 14 63 28 84
32 21 4 58 17 83 29 25 13 70 26 100 30 30 4 72 16 92 26 21 11 59 22 85 25
27 4 62 15 78 25 17 10 50 21 73 25 42 7 66 24 44 32 -6 2 -26 15 -45 30 -20
15 -50 36 -68 47 -93 56 -192 125 -327 227 -93 70 -220 210 -272 298 -14 24
-36 59 -49 79 -13 20 -29 52 -36 71 -7 19 -22 51 -34 70 -11 19 -21 45 -21 58
0 12 -11 49 -25 82 -21 49 -26 84 -33 202 -11 205 1 412 26 474 12 27 28 75
36 106 9 31 21 60 26 63 5 3 15 25 21 48 6 23 21 54 32 68 12 15 36 50 52 79
37 64 135 182 195 235 25 22 48 45 52 50 14 21 214 155 231 155 5 0 21 9 36
19 15 11 40 23 57 27 16 4 47 17 69 29 22 13 64 26 93 29 29 4 74 15 100 26
40 16 74 19 239 19 166 1 201 -2 250 -18z"></path>
</g>
</svg>