 <svg version="1.0" xmlns="http://www.w3.org/2000/svg" width="700.000000pt" height="700.000000pt" viewBox="0 0 700.000000 700.000000" preserveAspectRatio="xMidYMid meet">
<metadata>
Created by potrace 1.12, written by Peter Selinger 2001-2015
</metadata>
<g transform="translate(0.000000,700.000000) scale(0.100000,-0.100000)" fill="#BFBFBF" stroke="none">
<path d="M1850 6040 c-30 -11 -84 -25 -120 -31 -35 -5 -78 -18 -95 -28 -16
-10 -43 -22 -59 -25 -64 -15 -228 -105 -337 -185 -88 -65 -274 -251 -299 -301
-10 -19 -27 -44 -39 -54 -12 -11 -21 -24 -21 -31 0 -7 -9 -20 -20 -30 -10 -9
-24 -34 -31 -54 -6 -20 -18 -43 -25 -51 -7 -9 -20 -34 -27 -56 -8 -22 -24 -57
-36 -79 -11 -22 -21 -46 -21 -54 0 -7 -11 -39 -24 -70 -13 -31 -31 -85 -40
-121 -9 -36 -22 -88 -30 -117 -8 -28 -20 -139 -27 -246 -11 -168 -11 -217 4
-378 11 -123 22 -201 35 -234 11 -27 23 -72 27 -100 3 -27 15 -64 25 -81 10
-17 21 -47 25 -65 4 -19 15 -48 25 -65 9 -17 25 -54 34 -82 10 -29 22 -55 28
-58 5 -3 18 -25 29 -48 11 -22 33 -61 49 -86 17 -25 38 -58 48 -74 88 -147
642 -716 1117 -1147 32 -30 71 -65 85 -79 14 -14 102 -91 196 -172 94 -80 182
-156 197 -169 41 -37 82 -72 113 -96 27 -21 154 -124 214 -173 119 -98 277
-221 385 -300 44 -32 94 -69 110 -83 128 -105 181 -105 312 2 17 14 66 51 108
81 42 30 107 80 145 110 38 30 88 69 110 85 22 17 98 77 169 135 71 58 146
119 166 135 72 57 116 94 153 128 34 32 113 101 158 138 44 36 190 163 205
178 9 9 58 54 110 101 484 439 979 953 1103 1145 22 33 50 76 63 96 12 19 23
40 23 45 0 6 11 25 24 43 14 19 28 48 32 65 3 17 17 49 29 71 13 22 26 56 30
75 4 19 15 49 25 65 10 17 21 53 25 80 4 28 16 73 27 100 13 34 24 110 35 235
14 159 15 212 4 375 -7 105 -16 206 -21 225 -6 19 -19 73 -31 120 -12 47 -31
110 -44 140 -12 30 -26 68 -29 84 -4 17 -16 41 -26 55 -10 15 -23 45 -29 67
-6 23 -18 47 -25 54 -8 6 -17 23 -21 38 -3 15 -21 50 -41 77 -19 28 -50 73
-69 101 -73 110 -316 332 -425 387 -19 10 -64 34 -100 53 -36 19 -87 42 -114
51 -27 8 -59 21 -70 28 -12 8 -57 20 -101 28 -44 8 -100 22 -125 32 -39 14
-77 16 -290 12 -187 -3 -258 -8 -300 -20 -30 -9 -90 -21 -132 -27 -43 -5 -97
-18 -120 -28 -24 -11 -61 -22 -83 -26 -22 -3 -62 -17 -90 -30 -141 -66 -193
-93 -218 -113 -16 -13 -33 -23 -38 -23 -28 0 -219 -172 -316 -284 -27 -32 -58
-33 -83 -3 -94 110 -291 287 -319 287 -5 0 -22 10 -38 23 -25 20 -77 47 -218
113 -27 13 -68 27 -90 30 -22 4 -59 15 -83 26 -24 10 -79 23 -122 28 -44 5
-103 17 -132 26 -43 14 -101 18 -303 21 -231 3 -254 2 -305 -17z m577 -264
c28 -9 85 -21 127 -26 42 -5 93 -18 113 -28 21 -11 56 -23 78 -27 21 -3 51
-15 65 -24 14 -10 42 -24 62 -30 21 -7 40 -17 44 -22 3 -5 24 -19 47 -31 89
-45 283 -226 318 -297 7 -14 22 -36 32 -47 10 -12 24 -39 30 -61 18 -59 69
-132 97 -140 30 -8 89 -8 122 1 25 6 77 86 97 147 6 20 21 45 31 54 11 10 20
24 20 31 0 20 147 179 220 238 36 30 84 63 105 75 22 12 51 28 65 36 54 30
158 75 174 75 9 0 34 9 56 20 22 11 74 25 117 31 43 6 103 18 133 27 44 14 97
17 275 17 203 0 225 -2 283 -22 34 -13 75 -23 90 -23 15 0 46 -9 67 -21 22
-11 58 -26 80 -33 22 -7 58 -25 79 -39 21 -15 43 -27 48 -27 12 0 38 -20 159
-118 82 -68 199 -192 199 -211 0 -5 12 -24 28 -43 15 -20 39 -60 54 -89 67
-137 88 -183 88 -196 0 -7 8 -30 19 -51 10 -20 24 -64 31 -97 7 -33 19 -76 27
-95 9 -20 21 -107 29 -200 19 -222 0 -522 -37 -591 -5 -11 -14 -45 -20 -76 -6
-32 -19 -71 -29 -88 -10 -16 -21 -45 -25 -63 -8 -39 -108 -238 -135 -267 -9
-11 -23 -31 -30 -45 -61 -119 -549 -626 -1020 -1060 -62 -58 -123 -114 -134
-126 -12 -11 -86 -76 -166 -144 -143 -122 -166 -141 -219 -190 -15 -14 -45
-38 -65 -55 -21 -16 -96 -77 -166 -135 -70 -58 -162 -132 -205 -165 -43 -33
-103 -80 -134 -105 -31 -25 -78 -61 -104 -80 -27 -19 -63 -47 -82 -63 -43 -36
-82 -35 -131 3 -85 64 -179 137 -239 185 -35 28 -84 66 -110 85 -66 50 -430
349 -463 381 -9 9 -82 72 -162 140 -80 67 -156 135 -170 149 -14 14 -88 84
-164 155 -341 321 -459 436 -696 681 -186 192 -290 321 -349 430 -12 21 -25
46 -30 54 -45 76 -89 189 -151 385 -38 119 -54 355 -40 570 8 121 18 197 30
233 11 29 24 78 30 110 7 31 20 73 30 92 10 19 24 51 30 71 16 52 106 226 135
261 14 16 25 33 25 38 0 14 125 158 168 193 22 18 58 46 81 62 23 17 58 42 78
58 20 15 41 27 47 27 7 0 27 11 45 24 19 14 47 28 64 32 17 3 50 17 75 30 25
13 55 24 67 24 13 0 51 9 86 19 96 29 98 29 319 27 158 -2 217 -7 257 -20z"></path>
</g>
</svg>