 <svg version="1.0" xmlns="http://www.w3.org/2000/svg" width="700.000000pt" height="700.000000pt" viewBox="0 0 700.000000 700.000000" preserveAspectRatio="xMidYMid meet">
<metadata>
Created by potrace 1.12, written by Peter Selinger 2001-2015
</metadata>
<g transform="translate(0.000000,700.000000) scale(0.100000,-0.100000)" fill="#ffffff" stroke="none">
<path d="M1010 6550 c-64 -10 -196 -56 -230 -80 -15 -11 -33 -20 -39 -20 -20
0 -177 -166 -207 -220 -17 -30 -44 -93 -60 -140 l-29 -85 0 -2505 0 -2505 32
-93 c18 -52 42 -107 53 -122 11 -15 20 -33 20 -39 0 -15 178 -191 194 -191 7
0 25 -9 38 -20 14 -11 68 -34 119 -52 l94 -33 2505 0 2505 0 94 33 c51 18 106
41 121 52 16 11 33 20 39 20 15 0 191 178 191 194 0 7 9 25 20 38 11 14 34 68
52 119 l33 94 0 2505 0 2505 -33 95 c-18 52 -39 102 -46 110 -8 8 -17 25 -20
37 -10 32 -151 173 -216 215 -30 20 -71 39 -90 43 -19 4 -57 17 -85 29 l-50
21 -2480 1 c-1364 1 -2500 -2 -2525 -6z m5015 -457 c22 -18 54 -50 70 -70 l30
-38 0 -2482 0 -2481 -31 -43 c-17 -23 -50 -56 -73 -73 l-43 -31 -1138 0 c-874
0 -1142 3 -1151 12 -9 9 -8 24 5 65 15 49 16 147 14 1148 l-3 1095 -22 45
c-13 25 -23 62 -23 84 0 37 10 48 339 377 290 289 360 353 373 337 1 -2 4
-138 7 -303 l6 -300 28 -40 c15 -22 49 -55 75 -72 93 -64 214 -33 284 72 l33
50 0 605 0 605 -32 45 c-17 25 -51 59 -75 75 l-43 30 -605 0 -605 0 -48 -32
c-70 -46 -100 -95 -105 -170 -4 -56 -1 -66 28 -111 17 -27 51 -63 73 -78 l42
-29 298 -5 c245 -4 299 -8 307 -19 6 -11 -75 -99 -336 -359 l-345 -345 -45 7
c-24 3 -59 14 -77 23 -30 17 -102 18 -1134 21 -967 2 -1107 0 -1139 -13 -52
-22 -73 -19 -84 11 -11 28 -14 2210 -4 2263 7 34 100 136 137 151 13 5 1097 8
2497 7 l2475 -2 40 -32z m-2855 -2836 c25 -16 61 -52 80 -80 l35 -51 0 -1051
0 -1051 -27 -33 c-16 -18 -28 -36 -28 -40 0 -4 -21 -23 -47 -42 l-48 -34
-1056 0 -1056 0 -40 28 c-22 15 -56 47 -74 70 l-34 42 -3 1035 c-1 569 0 1049
3 1065 10 59 101 150 165 166 14 4 489 6 1055 5 l1030 -1 45 -28z"></path>
</g>
</svg>