 <svg version="1.0" xmlns="http://www.w3.org/2000/svg" width="700.000000pt" height="700.000000pt" viewBox="0 0 700.000000 700.000000" preserveAspectRatio="xMidYMid meet">
<metadata>
Created by potrace 1.12, written by Peter Selinger 2001-2015
</metadata>
<g transform="translate(0.000000,700.000000) scale(0.100000,-0.100000)" fill="#000000" stroke="none">
<path d="M1010 6550 c-64 -10 -196 -56 -230 -80 -15 -11 -33 -20 -39 -20 -20
0 -177 -166 -207 -220 -17 -30 -44 -93 -60 -140 l-29 -85 0 -2505 0 -2505 32
-93 c18 -52 42 -107 53 -122 11 -15 20 -33 20 -39 0 -15 178 -191 194 -191 7
0 25 -9 38 -20 14 -11 68 -34 119 -52 l94 -33 2505 0 2505 0 94 33 c51 18 106
41 121 52 16 11 33 20 39 20 15 0 191 178 191 194 0 7 9 25 20 38 11 14 34 68
52 119 l33 94 0 2505 0 2505 -33 95 c-18 52 -39 102 -46 110 -8 8 -17 25 -20
37 -10 32 -151 173 -216 215 -30 20 -71 39 -90 43 -19 4 -57 17 -85 29 l-50
21 -2480 1 c-1364 1 -2500 -2 -2525 -6z m2301 -437 c9 -9 8 -24 -5 -65 -15
-49 -16 -147 -14 -1148 l3 -1095 22 -45 c13 -25 23 -62 23 -83 0 -37 -11 -49
-339 -378 -289 -289 -360 -353 -373 -336 -1 1 -4 137 -7 302 l-6 300 -29 42
c-15 22 -51 56 -78 73 -45 29 -55 32 -111 28 -75 -5 -124 -35 -170 -105 l-32
-48 0 -605 0 -605 35 -49 c23 -32 54 -59 89 -78 l55 -29 591 3 590 3 48 32
c70 46 100 95 105 170 4 56 1 66 -28 111 -17 27 -51 63 -73 78 l-42 29 -298 5
c-242 4 -299 8 -306 19 -7 11 78 102 334 358 382 382 361 367 455 320 l45 -22
1095 -3 c1011 -3 1099 -2 1153 14 45 14 60 15 70 5 9 -9 12 -269 12 -1151 l0
-1138 -31 -43 c-17 -23 -50 -56 -73 -73 l-43 -31 -2477 0 -2478 0 -40 28 c-22
15 -56 47 -74 70 l-34 42 -3 2450 c-2 1348 0 2469 3 2492 5 33 17 53 61 98 31
31 65 60 77 65 36 14 2283 8 2298 -7z m2714 -20 c22 -18 54 -50 70 -70 l30
-38 0 -1060 0 -1060 -34 -47 c-19 -27 -38 -48 -42 -48 -4 0 -22 -12 -40 -27
l-33 -28 -1050 0 -1051 0 -52 34 c-29 19 -53 38 -53 42 0 4 -12 22 -27 40
l-28 33 0 1056 0 1056 28 33 c15 18 27 36 27 40 0 8 71 59 100 73 8 4 488 6
1065 5 l1050 -2 40 -32z"></path>
</g>
</svg>