 <svg version="1.0" xmlns="http://www.w3.org/2000/svg" width="700.000000pt" height="700.000000pt" viewBox="0 0 700.000000 700.000000" preserveAspectRatio="xMidYMid meet">
<metadata>
Created by potrace 1.12, written by Peter Selinger 2001-2015
</metadata>
<g transform="translate(0.000000,700.000000) scale(0.100000,-0.100000)" fill="#ffffff" stroke="none">
<path d="M2904 4986 c-401 -188 -698 -513 -838 -915 -58 -167 -77 -273 -83
-476 -5 -154 -2 -198 16 -304 110 -646 588 -1143 1235 -1283 86 -19 133 -22
316 -23 189 0 227 3 318 23 496 111 887 418 1103 867 52 106 59 144 33 169
-22 22 -33 20 -88 -14 -145 -92 -337 -166 -509 -196 -122 -22 -334 -22 -457 0
-698 121 -1190 758 -1129 1462 19 224 77 393 220 641 23 41 23 42 5 62 -26 29
-59 26 -142 -13z m-34 -141 c0 -3 -11 -27 -24 -53 -38 -76 -92 -248 -112 -357
-24 -135 -24 -373 0 -510 102 -571 532 -1031 1094 -1171 324 -80 649 -47 985
100 20 9 37 13 37 8 0 -17 -138 -219 -186 -271 -319 -354 -718 -527 -1169
-508 -288 13 -525 89 -759 244 -132 87 -319 273 -404 401 -290 437 -331 973
-110 1451 110 241 337 491 572 633 61 36 76 43 76 33z"></path>
</g>
</svg>