 <svg version="1.0" xmlns="http://www.w3.org/2000/svg" width="25.000000pt" height="25.000000pt" viewBox="0 0 700.000000 700.000000" preserveAspectRatio="xMidYMid meet">
<metadata>
Created by potrace 1.12, written by Peter Selinger 2001-2015
</metadata>
<g transform="translate(0.000000,700.000000) scale(0.100000,-0.100000)" fill="#3DB697" stroke="none">
<path d="M3330 6330 c-36 -4 -90 -15 -120 -23 -30 -9 -77 -19 -105 -23 -27 -3
-64 -14 -81 -24 -17 -10 -47 -21 -65 -25 -19 -4 -54 -18 -79 -31 -25 -13 -61
-31 -80 -39 -41 -19 -86 -45 -165 -100 -32 -22 -69 -47 -81 -56 -31 -20 -233
-223 -253 -253 -9 -13 -38 -57 -65 -97 -27 -41 -57 -87 -68 -102 -10 -15 -25
-45 -32 -65 -8 -21 -23 -53 -35 -72 -11 -19 -21 -44 -21 -55 0 -11 -12 -42
-25 -70 -14 -27 -25 -61 -25 -75 0 -14 -12 -70 -26 -125 -25 -98 -26 -110 -31
-510 -3 -252 -9 -415 -15 -422 -8 -10 -113 -13 -463 -13 l-452 0 -49 -32 c-27
-18 -51 -36 -52 -41 -2 -4 -16 -22 -30 -39 l-27 -32 0 -1706 0 -1707 29 -42
c16 -23 50 -56 75 -74 l46 -32 2465 0 2465 0 45 32 c25 17 59 51 75 75 l30 43
0 1700 0 1700 -33 50 c-19 29 -51 60 -80 77 l-47 28 -450 0 c-337 0 -454 3
-463 12 -9 9 -12 95 -12 323 -1 359 -11 518 -39 629 -12 44 -21 91 -21 105 0
14 -12 49 -25 76 -14 28 -25 57 -25 66 0 9 -11 36 -24 61 -13 24 -27 54 -30
66 -4 13 -24 49 -44 80 -20 32 -47 74 -59 93 -37 58 -67 99 -93 128 -85 94
-111 121 -155 161 -57 50 -128 106 -177 135 -18 11 -48 30 -68 42 -19 12 -51
29 -70 38 -19 8 -55 26 -80 39 -25 13 -61 27 -80 31 -19 4 -45 14 -58 22 -13
8 -58 21 -100 29 -42 8 -99 21 -127 30 -60 17 -329 27 -425 14z m425 -447 c28
-11 68 -24 90 -27 21 -4 59 -19 84 -32 25 -13 50 -24 55 -24 6 0 26 -11 45
-24 20 -12 68 -43 106 -68 39 -25 105 -81 148 -124 74 -76 207 -263 207 -294
0 -8 12 -33 25 -55 14 -22 25 -48 25 -57 0 -10 12 -52 27 -95 l27 -78 4 -415
c3 -387 2 -415 -14 -427 -26 -19 -2142 -19 -2168 0 -16 12 -17 40 -14 427 l4
415 27 78 c15 43 27 85 27 93 0 9 11 37 24 63 13 25 31 62 40 81 9 19 29 53
44 76 15 22 37 56 49 75 69 105 255 260 383 319 25 12 61 29 80 39 19 10 60
24 90 31 30 7 63 17 73 22 40 21 111 27 282 24 154 -2 187 -6 230 -23z m1933
-3577 c1 -1033 -1 -1412 -9 -1422 -16 -19 -4338 -21 -4357 -2 -9 9 -12 338
-12 1418 0 774 3 1410 7 1413 3 4 988 6 2187 5 l2181 -3 3 -1409z"></path>
<path d="M3415 3270 c-33 -3 -73 -14 -90 -22 -16 -9 -46 -19 -65 -23 -19 -4
-51 -17 -70 -30 -19 -12 -43 -27 -53 -32 -29 -15 -177 -164 -177 -178 0 -7
-10 -24 -21 -39 -12 -15 -35 -66 -53 -114 -28 -79 -31 -98 -31 -207 0 -109 3
-128 31 -207 18 -48 41 -99 53 -114 11 -15 21 -32 21 -39 0 -6 39 -49 88 -96
59 -58 109 -96 156 -119 44 -22 71 -42 77 -58 5 -13 9 -134 9 -269 l0 -246 30
-47 c16 -26 52 -61 79 -78 96 -63 209 -31 280 78 l31 48 0 245 c0 135 4 256 9
269 6 15 36 37 86 63 59 31 94 59 153 121 93 99 115 133 156 244 28 78 31 95
31 205 0 109 -3 128 -31 207 -18 48 -41 99 -53 114 -11 15 -21 32 -21 38 0 20
-153 164 -211 199 -31 19 -74 39 -95 45 -21 6 -57 17 -79 25 -51 19 -163 27
-240 17z"></path>
</g>
</svg>