 <svg version="1.0" xmlns="http://www.w3.org/2000/svg" width="25.000000pt" height="25.000000pt" viewBox="0 0 700.000000 700.000000" preserveAspectRatio="xMidYMid meet">
<metadata>
Created by potrace 1.12, written by Peter Selinger 2001-2015
</metadata>
<g transform="translate(0.000000,700.000000) scale(0.100000,-0.100000)" fill="#3DB697" stroke="none">
<path d="M3350 6470 c-232 -24 -283 -31 -327 -49 -27 -11 -71 -23 -98 -27 -27
-4 -69 -18 -94 -30 -24 -13 -52 -24 -62 -24 -17 0 -100 -37 -169 -76 -14 -7
-44 -22 -67 -33 -24 -11 -55 -29 -70 -39 -16 -10 -48 -32 -73 -48 -96 -62
-331 -259 -364 -305 -6 -9 -41 -49 -78 -90 -70 -77 -106 -124 -134 -174 -9
-16 -27 -43 -40 -58 -13 -16 -24 -33 -24 -39 0 -6 -10 -25 -23 -42 -12 -17
-37 -62 -55 -101 -19 -38 -44 -91 -58 -116 -13 -26 -24 -55 -24 -66 0 -10 -9
-37 -20 -58 -19 -37 -30 -72 -74 -250 -56 -225 -76 -580 -41 -734 9 -40 14
-86 11 -102 -4 -19 -36 -60 -93 -117 -104 -103 -152 -189 -183 -325 -19 -86
-20 -122 -20 -1165 l0 -1077 24 -113 c13 -62 31 -121 39 -130 8 -9 22 -33 30
-52 18 -44 149 -185 196 -211 20 -11 47 -26 61 -34 14 -7 59 -26 100 -42 l75
-28 1805 0 1805 0 75 28 c41 16 86 35 100 42 14 8 41 23 61 34 47 26 178 167
196 211 8 19 22 42 30 52 8 9 25 69 39 133 l24 118 0 1072 c0 1040 -1 1076
-20 1162 -32 138 -79 221 -189 331 l-93 95 5 46 c3 25 11 78 17 116 14 85 14
339 0 415 -5 30 -15 96 -21 145 -6 50 -22 126 -35 170 -13 44 -27 96 -31 115
-3 19 -17 58 -30 85 -12 28 -23 57 -23 66 0 10 -13 41 -28 71 -16 29 -31 62
-35 73 -4 11 -22 47 -41 80 -20 33 -44 79 -56 102 -11 23 -25 45 -30 48 -6 4
-19 23 -31 43 -72 133 -260 330 -489 516 -25 20 -120 80 -190 121 -36 20 -72
41 -80 46 -8 5 -31 16 -50 24 -19 8 -56 26 -81 40 -26 14 -56 25 -66 25 -11 0
-40 11 -64 24 -25 12 -67 26 -94 30 -27 4 -71 16 -98 27 -27 11 -92 24 -145
29 -304 33 -340 34 -482 20z m340 -750 c19 -6 70 -17 112 -25 42 -8 94 -23
115 -33 21 -11 52 -23 70 -26 18 -4 42 -15 55 -25 13 -10 38 -23 57 -30 19 -6
43 -19 53 -28 10 -9 26 -21 36 -27 105 -63 257 -199 325 -293 15 -21 40 -55
55 -75 46 -64 80 -122 87 -150 4 -15 13 -32 21 -39 8 -6 21 -35 29 -64 9 -28
24 -69 35 -90 11 -22 20 -49 20 -60 0 -11 7 -45 15 -75 9 -30 20 -75 26 -100
14 -63 13 -402 -1 -444 -23 -70 59 -66 -1300 -66 -1092 0 -1226 2 -1255 16
-18 8 -37 23 -41 32 -27 64 -20 451 10 528 8 21 20 65 25 96 6 31 19 75 31 97
11 22 20 45 20 52 0 16 74 163 108 215 52 80 67 100 126 169 84 99 263 255
292 255 6 0 17 7 24 15 13 16 170 95 189 95 7 0 30 9 52 21 22 11 75 26 117
34 42 7 85 17 95 20 63 25 322 28 397 5z m-1 -2479 c46 -17 91 -37 100 -44 9
-8 26 -18 38 -21 28 -9 149 -129 169 -169 9 -18 23 -39 31 -48 8 -10 20 -39
28 -65 8 -27 21 -67 29 -89 9 -25 15 -74 15 -130 0 -56 -6 -105 -15 -130 -8
-22 -21 -60 -28 -85 -21 -74 -97 -178 -174 -240 -99 -80 -89 -44 -94 -336 -3
-166 -9 -269 -16 -287 -21 -49 -78 -111 -136 -145 -54 -33 -57 -34 -148 -30
-86 3 -97 6 -140 36 -51 36 -100 93 -120 138 -7 19 -14 121 -17 293 -6 260 -6
264 -29 280 -121 86 -210 195 -238 291 -7 25 -20 65 -29 90 -24 65 -17 225 14
306 22 57 28 69 70 145 29 53 132 152 194 187 46 26 156 68 222 86 53 13 192
-3 274 -33z"></path>
</g>
</svg>