 <svg version="1.0" xmlns="http://www.w3.org/2000/svg" width="25.000000pt" height="25.000000pt" viewBox="0 0 700.000000 700.000000" preserveAspectRatio="xMidYMid meet">
<metadata>
Created by potrace 1.12, written by Peter Selinger 2001-2015
</metadata>
<g transform="translate(0.000000,700.000000) scale(0.100000,-0.100000)" fill="#3DB697" stroke="none">
<path d="M1259 6979 c-9 -12 -36 -26 -67 -34 -29 -8 -65 -23 -81 -35 -16 -11
-34 -20 -39 -20 -17 0 -150 -115 -326 -284 -337 -321 -482 -470 -528 -541 -56
-86 -108 -183 -108 -202 0 -8 -11 -35 -25 -61 -14 -26 -25 -56 -25 -68 0 -37
-30 -122 -45 -128 -13 -5 -15 -49 -15 -313 0 -296 1 -307 21 -329 14 -15 25
-49 35 -113 8 -51 23 -113 33 -139 10 -26 22 -69 25 -95 4 -27 18 -69 32 -94
13 -25 24 -55 24 -67 0 -12 11 -45 25 -74 14 -30 25 -59 25 -66 0 -6 13 -38
30 -71 16 -33 30 -66 30 -73 0 -7 14 -43 31 -80 56 -123 82 -177 95 -202 8
-14 21 -41 29 -60 9 -19 20 -42 25 -50 6 -8 33 -61 60 -117 28 -56 55 -105 60
-108 5 -3 19 -25 30 -48 31 -64 78 -144 130 -222 15 -22 30 -48 33 -59 4 -10
16 -30 28 -45 11 -14 53 -75 92 -135 40 -60 82 -123 95 -140 12 -17 33 -47 47
-66 14 -19 41 -55 60 -80 19 -25 43 -56 52 -70 26 -37 75 -100 98 -125 11 -12
31 -36 45 -55 43 -56 201 -244 218 -260 9 -8 54 -58 99 -110 75 -87 325 -338
518 -520 130 -123 437 -375 575 -473 14 -10 43 -31 65 -48 68 -51 172 -122
229 -157 16 -9 41 -27 56 -39 15 -13 32 -23 38 -23 5 0 15 -7 23 -16 7 -8 33
-26 58 -40 25 -13 78 -44 116 -69 39 -24 75 -44 81 -45 6 0 18 -7 25 -16 8 -9
32 -25 54 -36 22 -11 67 -35 100 -53 33 -19 71 -39 85 -44 14 -6 36 -18 50
-26 14 -9 48 -27 75 -41 28 -13 61 -30 75 -38 26 -14 98 -48 190 -89 30 -14
80 -36 110 -50 54 -25 104 -44 244 -93 38 -13 74 -28 80 -34 7 -5 44 -16 83
-24 39 -8 85 -22 101 -30 17 -9 57 -19 89 -22 32 -4 83 -16 113 -26 30 -10
102 -23 160 -28 58 -5 144 -17 192 -27 73 -14 100 -15 175 -5 48 6 142 18 207
27 66 8 129 21 142 30 12 8 44 20 71 26 26 7 55 18 63 25 8 7 35 21 60 32 25
11 51 27 59 36 7 9 18 16 23 16 19 0 131 94 209 174 164 170 229 235 362 361
136 129 239 247 275 315 11 19 26 49 35 65 9 17 17 36 17 43 0 7 10 32 22 55
25 49 39 214 28 339 -6 63 -15 92 -54 171 -26 52 -55 104 -64 114 -10 10 -33
38 -53 63 -60 74 -880 890 -960 956 -97 79 -147 107 -261 146 -82 28 -106 31
-198 31 -83 0 -115 -5 -155 -21 -27 -12 -69 -26 -92 -32 -23 -6 -45 -15 -49
-21 -3 -6 -23 -18 -42 -26 -72 -30 -192 -133 -422 -364 -130 -130 -249 -243
-264 -251 -26 -13 -33 -13 -80 6 -28 12 -62 28 -76 36 -31 19 -72 42 -131 74
-25 13 -51 32 -58 40 -8 9 -17 16 -22 16 -8 0 -57 33 -162 108 -18 12 -50 34
-72 49 -70 46 -390 319 -492 420 -114 113 -343 360 -382 412 -28 38 -51 67
-91 112 -14 15 -38 46 -55 69 -16 22 -45 59 -62 83 -52 68 -61 79 -98 134 -19
29 -35 57 -35 62 0 4 -7 15 -16 22 -16 13 -40 56 -88 156 -14 28 -29 54 -35
57 -11 7 -41 104 -41 135 0 12 8 29 18 39 11 9 81 76 158 147 208 195 367 359
409 423 73 110 83 127 90 162 4 19 17 55 28 80 19 39 22 63 22 180 -1 107 -4
142 -17 166 -9 17 -22 53 -29 80 -7 27 -23 63 -36 80 -12 17 -23 35 -23 41 0
10 -35 59 -87 121 -50 60 -748 755 -824 822 -41 35 -82 72 -91 82 -32 32 -153
124 -183 141 -60 32 -91 45 -134 57 -28 7 -45 18 -48 31 -5 18 -16 19 -158 19
-144 0 -153 -1 -166 -21z m294 -450 c112 -72 302 -245 671 -612 336 -333 389
-390 417 -447 45 -89 45 -153 1 -230 -29 -52 -316 -344 -568 -580 -54 -51
-103 -107 -122 -141 -30 -52 -32 -63 -32 -150 0 -80 4 -102 25 -144 13 -27 25
-54 25 -59 0 -8 60 -130 105 -214 25 -47 78 -134 113 -188 15 -22 37 -56 49
-75 29 -45 58 -86 119 -167 27 -37 54 -74 60 -84 22 -39 302 -344 470 -512 55
-56 147 -144 204 -196 186 -171 185 -170 340 -290 18 -14 49 -38 70 -55 21
-16 73 -55 115 -85 42 -30 89 -64 103 -76 15 -12 41 -29 57 -38 17 -9 55 -32
85 -51 30 -19 70 -41 88 -49 18 -9 44 -24 58 -35 14 -11 38 -22 53 -26 16 -3
37 -15 47 -26 9 -10 23 -19 29 -19 7 0 29 -13 49 -29 21 -17 63 -36 104 -46
66 -16 72 -16 146 4 44 11 90 30 105 43 14 12 159 155 321 315 162 161 317
308 343 326 97 68 241 69 334 1 48 -35 973 -956 973 -968 0 -6 12 -28 28 -50
25 -36 27 -47 27 -135 0 -94 -1 -97 -36 -151 -36 -54 -216 -242 -355 -370 -39
-36 -122 -119 -185 -185 -161 -169 -214 -207 -369 -263 l-95 -34 -215 0 c-172
0 -226 3 -270 16 -30 9 -94 23 -142 31 -48 7 -99 20 -115 28 -15 8 -55 20 -88
27 -33 7 -73 20 -90 30 -16 9 -51 22 -77 29 -27 6 -63 20 -80 31 -18 11 -40
20 -49 20 -8 0 -38 11 -64 25 -27 13 -61 27 -77 30 -15 4 -37 14 -50 24 -13
10 -40 24 -62 31 -21 7 -95 42 -165 77 -69 36 -139 72 -156 80 -16 8 -37 19
-45 24 -8 5 -38 20 -67 34 -28 13 -54 29 -58 35 -3 5 -21 17 -38 25 -18 9 -57
31 -87 50 -30 19 -74 44 -97 55 -23 11 -45 25 -48 30 -4 6 -23 19 -43 30 -20
11 -57 36 -82 55 -25 20 -58 42 -75 51 -31 15 -81 49 -125 85 -14 11 -61 47
-105 79 -409 302 -758 625 -1182 1095 -39 44 -89 103 -110 130 -21 28 -62 79
-90 115 -29 36 -62 76 -73 90 -10 14 -33 42 -49 64 -17 21 -31 42 -31 45 0 4
-8 16 -17 27 -35 39 -80 100 -97 129 -9 17 -32 50 -51 75 -19 25 -43 61 -54
81 -11 19 -27 41 -35 48 -9 8 -16 19 -16 26 0 8 -11 26 -24 42 -13 15 -33 46
-45 68 -12 22 -33 58 -46 80 -70 117 -133 228 -169 300 -14 28 -30 57 -35 65
-5 8 -16 29 -24 45 -7 17 -18 39 -24 50 -10 19 -43 89 -96 205 -14 30 -31 73
-37 95 -7 22 -21 53 -31 70 -11 16 -19 39 -19 50 0 11 -11 43 -24 71 -13 28
-27 71 -31 95 -4 24 -15 62 -26 85 -10 22 -25 81 -33 130 -9 49 -23 114 -32
144 -13 44 -17 105 -18 305 l-1 250 28 75 c16 41 35 86 43 100 7 14 21 41 30
60 26 55 99 135 386 420 295 293 288 287 335 311 19 10 40 23 49 29 23 20 75
29 137 25 44 -2 70 -11 110 -36z"></path>
</g>
</svg>