 <svg version="1.0" xmlns="http://www.w3.org/2000/svg" width="700.000000pt" height="700.000000pt" viewBox="0 0 700.000000 700.000000" preserveAspectRatio="xMidYMid meet">
<metadata>
Created by potrace 1.12, written by Peter Selinger 2001-2015
</metadata>
<g transform="translate(0.000000,700.000000) scale(0.100000,-0.100000)" fill="#ffffff" stroke="none">
<path d="M3403 6111 c-18 -5 -39 -13 -45 -18 -7 -5 -34 -17 -60 -27 -65 -24
-151 -112 -191 -195 l-32 -66 -5 -928 c-4 -810 -7 -929 -20 -937 -9 -6 -369
-10 -925 -10 -887 0 -912 -1 -950 -20 -21 -11 -53 -24 -71 -30 -48 -16 -149
-121 -170 -178 -10 -26 -25 -58 -33 -72 -23 -34 -23 -226 0 -260 8 -14 23 -46
33 -72 22 -59 123 -162 175 -179 20 -7 47 -19 61 -28 21 -14 124 -17 952 -21
811 -4 930 -7 938 -20 6 -9 10 -369 10 -925 0 -887 1 -912 20 -950 11 -21 24
-53 30 -70 15 -45 115 -144 169 -167 25 -11 62 -27 81 -36 24 -12 62 -17 125
-17 80 0 100 4 173 34 66 27 95 46 142 94 33 33 64 75 71 96 7 20 19 47 28 61
14 21 17 124 21 951 3 510 9 931 13 936 5 4 426 10 935 13 l927 5 40 22 c22
13 45 23 51 23 19 0 100 71 132 116 17 23 43 73 59 110 37 91 40 214 6 290
-12 27 -27 64 -34 82 -16 43 -122 148 -163 162 -18 6 -50 19 -71 30 -38 19
-62 20 -951 20 -816 0 -914 2 -928 16 -14 14 -16 112 -16 928 0 889 -1 913
-20 951 -11 21 -24 53 -30 71 -16 48 -121 149 -178 170 -26 10 -57 24 -70 32
-26 17 -180 25 -229 13z"></path>
</g>
</svg>