 <svg version="1.0" xmlns="http://www.w3.org/2000/svg" width="700.000000pt" height="700.000000pt" viewBox="0 0 700.000000 700.000000" preserveAspectRatio="xMidYMid meet">
<metadata>
Created by potrace 1.12, written by Peter Selinger 2001-2015
</metadata>
<g transform="translate(0.000000,700.000000) scale(0.100000,-0.100000)" fill="#ADADAD" stroke="none">
<path d="M2815 6634 c-22 -3 -110 -11 -196 -19 -86 -8 -174 -21 -195 -30 -22
-8 -73 -21 -114 -29 -85 -16 -182 -47 -255 -81 -27 -12 -65 -25 -83 -29 -19
-3 -46 -14 -60 -24 -15 -11 -42 -24 -61 -31 -19 -6 -42 -17 -50 -25 -9 -7 -33
-19 -53 -25 -21 -7 -40 -17 -44 -22 -3 -5 -28 -22 -56 -37 -84 -46 -101 -56
-163 -99 -254 -178 -536 -463 -676 -683 -20 -30 -44 -68 -55 -84 -46 -71 -154
-274 -154 -292 0 -5 -8 -21 -17 -34 -17 -23 -39 -78 -78 -195 -9 -27 -25 -72
-35 -100 -11 -27 -24 -80 -30 -116 -5 -37 -17 -83 -25 -103 -24 -57 -48 -330
-48 -541 0 -193 23 -468 44 -521 6 -16 19 -67 30 -114 20 -93 48 -185 84 -270
12 -30 26 -68 29 -84 4 -16 16 -41 27 -54 10 -14 19 -29 19 -35 0 -15 76 -165
115 -227 19 -30 40 -66 47 -80 42 -84 223 -313 349 -441 67 -67 156 -145 252
-219 144 -112 142 -111 263 -180 155 -89 194 -110 217 -115 14 -4 31 -13 38
-21 6 -8 32 -20 58 -28 26 -7 64 -23 86 -35 22 -11 49 -21 60 -21 11 0 43 -11
70 -24 28 -13 73 -26 100 -30 28 -4 82 -18 122 -32 39 -13 89 -24 111 -24 22
0 93 -10 158 -21 155 -28 475 -31 599 -6 44 9 123 21 175 27 52 6 118 19 145
29 28 11 73 22 100 26 28 4 66 15 85 25 19 9 58 23 85 29 28 7 64 21 81 32 17
10 37 19 44 19 13 0 146 60 180 81 8 5 38 20 65 34 28 14 70 38 95 55 25 16
61 39 80 50 19 12 60 38 90 60 30 21 65 39 78 39 17 1 207 -184 776 -751 414
-414 771 -768 794 -786 31 -24 62 -37 121 -49 76 -16 82 -16 157 3 74 18 99
32 148 80 48 49 63 75 81 146 17 72 18 80 2 157 -10 49 -26 95 -39 113 -13 17
-366 374 -785 794 -559 559 -763 770 -763 786 0 13 18 48 40 78 22 30 49 71
60 90 11 19 34 55 50 80 17 25 41 68 55 95 14 28 29 57 34 65 22 36 81 168 81
181 0 8 9 29 20 47 11 17 25 53 31 80 7 26 20 63 29 82 10 19 21 57 24 83 4
26 16 73 27 105 11 31 25 98 30 147 5 50 17 126 26 170 22 112 22 447 0 565
-9 47 -21 127 -27 177 -6 51 -19 114 -29 140 -10 27 -22 72 -26 102 -4 30 -18
77 -31 105 -13 28 -24 60 -24 71 0 11 -10 38 -21 60 -12 22 -28 60 -35 86 -8
26 -21 52 -29 59 -8 7 -15 18 -15 25 0 10 -31 72 -114 226 -13 25 -32 51 -40
58 -9 8 -16 19 -16 26 0 7 -13 30 -30 51 -16 22 -42 56 -57 77 -115 156 -296
350 -417 445 -32 26 -84 67 -115 93 -31 25 -85 63 -121 84 -36 21 -74 46 -85
55 -11 9 -36 24 -55 33 -19 10 -62 33 -95 52 -33 18 -76 39 -95 46 -19 6 -46
20 -60 29 -14 10 -45 23 -70 30 -25 6 -55 18 -66 25 -12 8 -50 21 -85 30 -35
9 -75 22 -89 30 -14 7 -58 18 -99 25 -41 7 -89 19 -107 26 -66 28 -549 62
-679 48z m401 -675 c52 -5 113 -17 136 -25 22 -8 70 -19 105 -24 36 -6 82 -19
102 -29 20 -10 52 -22 71 -26 19 -4 54 -18 77 -31 23 -13 50 -24 60 -24 11 0
34 -11 53 -25 19 -14 39 -25 45 -25 6 0 34 -14 61 -32 27 -17 74 -47 104 -66
75 -48 254 -198 315 -264 74 -79 136 -152 168 -195 15 -21 41 -55 57 -77 17
-21 30 -44 30 -51 0 -7 6 -18 14 -24 8 -7 26 -35 40 -64 14 -29 30 -59 35 -67
25 -43 71 -145 71 -159 0 -9 11 -40 25 -68 13 -29 28 -77 34 -107 5 -30 17
-71 26 -92 22 -52 55 -392 48 -494 -12 -174 -35 -364 -47 -388 -8 -15 -19 -56
-26 -90 -6 -34 -22 -86 -35 -114 -14 -29 -25 -60 -25 -69 0 -14 -47 -118 -71
-159 -5 -8 -17 -31 -27 -50 -9 -19 -27 -49 -39 -67 -13 -17 -23 -35 -23 -41 0
-5 -13 -27 -30 -48 -16 -22 -42 -56 -57 -77 -37 -50 -145 -178 -184 -216 -38
-39 -166 -147 -216 -184 -21 -15 -55 -41 -77 -57 -21 -17 -43 -30 -48 -30 -6
0 -24 -10 -41 -22 -18 -13 -48 -31 -67 -40 -19 -10 -42 -22 -50 -27 -41 -24
-145 -71 -159 -71 -9 0 -40 -11 -69 -25 -28 -13 -80 -29 -114 -35 -34 -7 -74
-18 -89 -26 -36 -18 -285 -44 -429 -44 -152 0 -412 26 -448 44 -15 8 -56 19
-90 26 -34 6 -86 22 -114 35 -29 14 -59 25 -66 25 -17 0 -179 77 -186 89 -3 5
-18 12 -33 16 -15 3 -40 17 -56 31 -16 13 -34 24 -41 24 -7 0 -31 13 -52 30
-22 16 -56 42 -77 57 -21 15 -48 37 -59 47 -12 11 -52 46 -90 79 -84 72 -244
256 -306 352 -24 39 -52 81 -62 95 -9 14 -36 66 -59 115 -23 50 -50 106 -60
125 -10 19 -22 51 -26 70 -4 19 -16 51 -26 71 -10 20 -23 66 -29 102 -5 35
-17 83 -25 106 -39 113 -47 615 -11 741 9 30 21 80 27 110 6 30 18 74 25 98
50 152 45 140 120 297 50 106 107 198 184 298 25 33 52 68 60 79 25 35 182
192 250 250 103 88 311 227 341 228 8 0 30 11 49 25 19 14 40 25 48 25 7 0 32
11 55 24 23 13 58 27 77 31 19 4 51 16 71 26 20 10 66 23 102 29 35 5 84 17
108 26 24 8 78 19 119 23 112 12 418 12 526 0z"></path>
</g>
</svg>