 <svg version="1.0" xmlns="http://www.w3.org/2000/svg" width="25.000000pt" height="25.000000pt" viewBox="0 0 700.000000 700.000000" preserveAspectRatio="xMidYMid meet">
<metadata>
Created by potrace 1.12, written by Peter Selinger 2001-2015
</metadata>
<g transform="translate(0.000000,700.000000) scale(0.100000,-0.100000)" fill="#E2E2E2" stroke="none">
<path d="M2465 6660 c-49 -4 -117 -14 -150 -23 -33 -8 -87 -18 -120 -22 -33
-3 -92 -17 -132 -31 -39 -13 -80 -24 -90 -24 -10 0 -37 -9 -58 -20 -22 -12
-63 -27 -92 -36 -28 -8 -57 -21 -63 -29 -6 -7 -26 -17 -43 -21 -30 -6 -108
-45 -187 -92 -19 -11 -57 -33 -83 -49 -27 -15 -65 -40 -85 -55 -20 -15 -54
-40 -75 -55 -225 -165 -449 -408 -599 -648 -17 -27 -42 -66 -55 -86 -12 -19
-23 -40 -23 -46 0 -5 -11 -26 -24 -46 -13 -19 -27 -46 -31 -58 -4 -13 -17 -46
-30 -74 -45 -99 -68 -161 -85 -235 -10 -41 -25 -93 -33 -115 -9 -22 -18 -74
-22 -115 -4 -41 -13 -113 -21 -160 -18 -109 -18 -310 0 -425 8 -49 17 -124 21
-165 4 -41 18 -109 30 -150 13 -41 26 -93 30 -115 4 -21 15 -55 25 -75 9 -19
21 -51 25 -70 11 -51 93 -229 158 -345 74 -130 82 -143 136 -221 96 -141 284
-344 425 -461 76 -63 79 -65 187 -137 41 -27 85 -56 99 -65 38 -26 269 -137
320 -154 25 -8 65 -22 90 -31 100 -35 218 -65 275 -71 33 -4 94 -14 135 -23
106 -24 494 -24 595 0 39 9 101 19 139 23 38 4 103 18 143 31 41 13 84 24 96
24 12 0 45 11 73 24 28 13 66 27 85 31 19 4 48 15 65 25 17 9 53 25 81 34 28
9 56 23 63 31 6 7 23 16 38 20 15 3 43 17 62 29 76 50 137 86 145 86 4 0 22
12 40 27 18 16 58 46 89 68 31 22 56 42 56 46 0 13 50 27 74 21 14 -4 137
-116 273 -249 266 -259 570 -554 747 -723 153 -148 212 -205 551 -535 165
-161 314 -304 331 -319 44 -36 90 -35 132 3 26 25 32 37 32 73 0 49 66 -21
-594 623 -170 165 -359 350 -421 410 -124 121 -592 577 -777 756 -126 122
-134 138 -95 181 12 14 36 42 52 63 17 21 41 52 55 69 25 30 54 70 75 105 5 9
33 52 61 96 29 44 57 97 63 117 7 20 19 42 27 48 7 7 14 18 14 25 0 6 12 34
26 61 14 27 32 69 39 94 7 25 22 68 33 95 33 83 68 212 98 365 28 139 29 157
29 420 0 251 -2 282 -22 355 -12 44 -25 105 -29 135 -3 30 -17 78 -30 106 -13
28 -24 61 -24 73 0 28 -84 229 -125 301 -8 14 -26 48 -40 75 -14 28 -39 70
-55 95 -17 25 -38 58 -48 74 -9 16 -71 95 -138 175 -105 126 -250 271 -350
349 -16 12 -47 37 -70 55 -23 17 -60 43 -83 57 -23 14 -58 37 -78 53 -20 15
-40 27 -46 27 -6 0 -24 11 -41 23 -17 13 -46 29 -64 35 -18 6 -45 20 -59 32
-14 11 -32 20 -40 20 -8 0 -33 11 -56 24 -23 13 -58 27 -77 31 -19 4 -49 16
-66 26 -18 11 -58 24 -90 30 -32 6 -71 17 -86 25 -16 8 -73 21 -129 30 -55 8
-124 21 -152 28 -65 17 -332 27 -452 16z m481 -225 c27 -8 92 -22 144 -31 52
-8 110 -24 130 -34 19 -9 52 -20 73 -24 21 -4 59 -18 84 -32 25 -13 54 -24 63
-24 10 0 28 -8 41 -19 13 -10 35 -22 49 -26 14 -4 46 -20 71 -36 25 -16 50
-29 55 -29 9 0 80 -45 119 -75 23 -17 73 -53 125 -89 106 -73 351 -329 448
-468 79 -114 202 -336 202 -366 0 -8 9 -25 20 -39 11 -14 22 -41 26 -62 4 -20
17 -61 29 -91 12 -30 26 -77 29 -103 4 -26 13 -62 21 -80 27 -66 38 -222 32
-475 -4 -194 -8 -257 -21 -292 -9 -24 -23 -82 -31 -127 -8 -46 -24 -101 -35
-123 -11 -21 -20 -50 -20 -62 0 -13 -14 -50 -30 -83 -16 -33 -30 -65 -30 -71
0 -7 -19 -49 -42 -94 -24 -45 -49 -94 -57 -108 -17 -34 -94 -153 -168 -262
-51 -75 -202 -234 -312 -330 -29 -25 -65 -57 -82 -72 -16 -16 -33 -28 -38 -28
-5 0 -24 -12 -44 -27 -74 -59 -298 -182 -357 -198 -14 -4 -39 -15 -56 -25 -17
-10 -55 -23 -83 -29 -29 -6 -65 -18 -80 -26 -16 -8 -59 -19 -97 -25 -38 -6
-108 -19 -156 -30 -137 -32 -606 -27 -660 6 -5 3 -52 12 -104 20 -53 8 -108
20 -122 28 -15 8 -53 19 -86 26 -32 7 -79 23 -104 36 -25 13 -52 24 -60 24 -8
0 -35 11 -61 24 -25 13 -63 32 -85 42 -89 43 -156 84 -272 166 -105 74 -123
90 -243 208 -127 127 -252 284 -310 390 -58 108 -151 297 -151 308 0 8 -13 44
-30 82 -16 38 -30 77 -30 87 0 10 -11 54 -24 98 -13 44 -37 160 -52 258 -24
160 -26 194 -21 340 4 91 13 185 21 216 8 29 18 79 21 110 7 61 56 232 85 296
10 22 23 57 28 77 6 21 20 50 31 64 12 15 21 34 21 44 0 9 13 37 30 61 16 24
30 49 30 55 0 6 9 19 20 29 11 10 22 27 26 39 15 49 219 301 326 402 79 76
213 185 277 227 19 12 53 34 75 50 23 15 64 38 91 52 28 14 82 43 120 65 39
21 77 39 86 39 9 1 36 12 61 25 24 13 68 29 97 35 28 6 62 17 74 25 12 8 56
20 97 26 41 6 98 19 125 28 73 24 186 31 406 26 131 -3 212 -9 245 -19z"></path>
</g>
</svg>