 <svg version="1.0" xmlns="http://www.w3.org/2000/svg" width="700.000000pt" height="700.000000pt" viewBox="0 0 700.000000 700.000000" preserveAspectRatio="xMidYMid meet">
<metadata>
Created by potrace 1.12, written by Peter Selinger 2001-2015
</metadata>
<g transform="translate(0.000000,700.000000) scale(0.100000,-0.100000)" fill="#A5B492" stroke="none">
<path d="M6565 6383 c-16 -2 -39 -13 -50 -23 -11 -10 -40 -24 -65 -30 -25 -7
-52 -18 -60 -25 -8 -7 -38 -20 -65 -28 -28 -8 -66 -24 -85 -36 -19 -11 -45
-21 -58 -21 -13 0 -44 -11 -70 -25 -26 -14 -54 -25 -62 -25 -8 0 -42 -14 -75
-30 -33 -16 -68 -30 -78 -30 -10 0 -39 -11 -65 -24 -26 -13 -63 -27 -82 -31
-19 -4 -46 -16 -60 -25 -14 -10 -43 -21 -65 -25 -21 -4 -59 -18 -84 -31 -25
-13 -53 -24 -61 -24 -8 0 -42 -14 -75 -30 -33 -17 -66 -30 -75 -30 -8 0 -37
-12 -65 -25 -27 -14 -59 -25 -69 -25 -11 0 -38 -11 -60 -24 -23 -13 -59 -27
-81 -31 -22 -4 -52 -16 -67 -26 -15 -11 -42 -22 -60 -25 -18 -4 -51 -17 -73
-29 -22 -13 -58 -27 -80 -31 -22 -4 -60 -18 -84 -31 -24 -12 -51 -23 -60 -23
-9 0 -36 -11 -61 -24 -25 -13 -61 -27 -80 -31 -19 -4 -55 -18 -80 -31 -25 -13
-52 -24 -61 -24 -9 0 -36 -11 -60 -23 -24 -13 -62 -27 -84 -31 -22 -4 -53 -16
-70 -26 -16 -10 -49 -23 -73 -30 -24 -6 -58 -20 -75 -31 -18 -10 -41 -19 -52
-19 -11 0 -47 -14 -80 -30 -33 -17 -69 -30 -80 -30 -11 0 -34 -9 -52 -19 -17
-11 -51 -25 -75 -31 -24 -6 -58 -20 -76 -31 -18 -10 -51 -22 -72 -25 -22 -4
-54 -17 -72 -30 -17 -13 -44 -24 -58 -24 -15 0 -47 -11 -72 -24 -25 -13 -60
-27 -79 -31 -19 -4 -52 -18 -74 -30 -22 -13 -58 -26 -79 -30 -22 -4 -50 -15
-63 -25 -13 -10 -39 -21 -58 -24 -20 -4 -57 -18 -82 -32 -25 -13 -55 -24 -67
-24 -12 0 -42 -11 -68 -25 -26 -14 -53 -25 -60 -25 -8 0 -40 -13 -73 -30 -33
-16 -71 -30 -84 -30 -13 0 -43 -11 -65 -24 -23 -13 -56 -27 -75 -31 -19 -4
-54 -18 -79 -31 -25 -13 -54 -24 -66 -24 -12 0 -36 -9 -54 -20 -17 -11 -53
-25 -80 -31 -26 -7 -59 -20 -73 -30 -14 -10 -47 -23 -73 -29 -26 -6 -58 -17
-71 -26 -14 -9 -43 -20 -66 -25 -23 -6 -54 -18 -68 -29 -15 -10 -45 -21 -66
-25 -22 -4 -59 -18 -82 -31 -23 -13 -50 -24 -60 -24 -10 0 -45 -14 -78 -30
-33 -16 -71 -30 -85 -30 -14 0 -43 -12 -65 -25 -22 -14 -49 -25 -59 -25 -11 0
-38 -11 -60 -24 -23 -13 -59 -28 -81 -31 -22 -4 -58 -18 -80 -30 -22 -13 -56
-26 -75 -30 -19 -4 -48 -15 -65 -25 -16 -10 -46 -21 -65 -25 -19 -4 -55 -18
-80 -31 -25 -13 -52 -24 -60 -24 -8 0 -37 -11 -65 -25 -27 -13 -57 -25 -65
-25 -8 0 -42 -14 -75 -30 -33 -16 -71 -30 -86 -30 -14 0 -44 -14 -67 -31 -45
-33 -70 -88 -59 -131 11 -40 46 -88 65 -88 9 0 34 -11 54 -25 20 -14 45 -25
54 -25 9 0 40 -13 68 -29 28 -16 65 -32 83 -36 17 -3 37 -13 43 -21 7 -7 31
-19 53 -25 22 -6 57 -22 76 -35 20 -13 45 -24 57 -24 12 0 33 -9 47 -20 15
-12 48 -27 75 -35 27 -8 55 -22 61 -29 7 -8 27 -18 44 -21 18 -4 52 -18 77
-31 25 -12 77 -37 115 -54 39 -17 91 -42 118 -55 26 -14 53 -25 60 -25 7 0 28
-10 47 -23 19 -13 54 -29 76 -35 23 -7 47 -19 54 -27 7 -8 28 -17 49 -21 20
-3 52 -16 71 -29 19 -13 46 -26 60 -30 29 -9 84 -55 123 -103 l27 -35 0 -887
c0 -604 3 -896 11 -916 16 -45 66 -79 116 -79 38 0 47 5 85 46 24 26 54 63 68
84 14 20 37 52 53 70 15 18 27 35 27 38 0 5 64 99 111 162 16 22 37 51 47 65
25 37 80 113 94 129 7 8 34 47 61 85 26 39 72 105 102 146 30 41 64 89 74 105
37 56 116 166 149 206 17 23 32 45 32 49 0 18 41 20 72 5 18 -9 55 -42 82 -73
58 -67 178 -202 221 -247 41 -44 223 -241 315 -341 148 -160 238 -260 280
-309 23 -27 47 -54 54 -60 12 -10 187 -200 336 -365 47 -51 116 -124 154 -162
66 -65 71 -68 116 -68 34 0 54 6 72 22 29 26 83 135 94 188 3 19 17 55 30 80
13 25 24 54 24 66 0 12 11 41 23 65 13 24 27 61 31 82 4 21 18 59 32 84 13 25
24 56 24 68 0 12 11 42 23 66 13 24 27 61 31 82 4 21 18 59 32 84 13 25 24 55
24 67 0 12 11 39 25 61 13 22 25 51 25 65 0 14 13 52 30 85 16 33 30 69 30 80
0 12 9 39 20 60 12 22 26 60 32 85 6 25 19 59 29 75 9 17 20 48 24 70 4 22 17
58 30 80 12 22 25 56 29 75 3 19 17 57 31 84 14 27 25 58 25 67 0 10 11 42 24
71 13 29 31 74 40 101 9 26 23 68 32 95 9 26 27 70 40 98 13 28 24 60 24 71 0
11 11 41 24 66 14 25 28 63 32 84 4 21 18 58 31 82 12 24 23 53 23 65 0 12 11
41 24 66 13 25 27 63 31 85 3 22 18 58 31 81 13 22 24 51 24 63 0 12 11 43 24
69 13 26 27 63 31 82 4 19 15 49 25 67 11 18 22 49 26 70 3 21 16 56 29 78 12
22 25 57 29 78 4 21 18 59 32 84 13 25 24 56 24 68 0 12 11 42 23 66 13 24 27
62 31 84 4 22 16 51 26 65 10 14 22 44 26 65 3 22 17 60 29 85 12 25 25 62 29
83 4 21 18 59 32 84 13 25 24 55 24 67 0 12 11 42 25 68 14 26 25 56 25 66 0
10 11 41 25 68 14 27 28 65 31 84 4 19 17 55 30 80 13 25 24 54 24 66 0 12 11
41 23 65 13 24 27 62 31 84 4 22 19 58 32 81 13 22 24 52 24 65 0 13 11 44 24
69 13 25 27 61 31 80 4 19 15 49 24 65 10 17 23 53 30 80 7 28 21 64 31 80 10
17 21 48 25 70 4 22 16 54 26 70 10 17 23 52 29 79 6 27 20 60 30 74 11 13 20
35 20 48 0 12 11 36 25 52 20 24 25 41 25 83 0 48 -4 58 -35 88 -29 28 -44 34
-83 36 -26 2 -60 1 -77 -2z m-1150 -773 c0 -15 -8 -29 -23 -36 -12 -6 -33 -20
-45 -31 -12 -12 -35 -28 -52 -37 -16 -9 -50 -32 -75 -51 -25 -20 -60 -42 -78
-50 -18 -9 -41 -23 -51 -33 -21 -19 -87 -67 -118 -85 -10 -7 -34 -21 -52 -32
-19 -11 -45 -29 -60 -41 -14 -12 -39 -29 -56 -38 -16 -9 -50 -32 -75 -51 -25
-20 -59 -42 -75 -49 -17 -8 -39 -24 -49 -35 -11 -12 -23 -21 -29 -21 -5 0 -24
-12 -42 -27 -18 -16 -52 -39 -75 -53 -24 -14 -61 -40 -82 -57 -22 -18 -44 -33
-50 -33 -6 0 -23 -10 -39 -22 -62 -50 -106 -81 -159 -113 -30 -19 -64 -41 -75
-49 -37 -29 -90 -65 -125 -86 -19 -11 -55 -36 -80 -55 -25 -19 -56 -40 -70
-47 -14 -7 -39 -24 -57 -38 -70 -55 -92 -70 -114 -80 -13 -5 -44 -26 -69 -45
-25 -19 -61 -43 -80 -52 -19 -10 -49 -29 -66 -43 -58 -46 -79 -61 -113 -83
-19 -12 -53 -34 -75 -50 -23 -15 -54 -35 -69 -45 -16 -9 -44 -28 -63 -42 -47
-35 -89 -65 -163 -113 -35 -23 -80 -53 -101 -67 -20 -14 -52 -35 -71 -47 -19
-12 -43 -29 -54 -38 -39 -30 -90 -65 -116 -77 -14 -7 -38 -23 -55 -36 -79 -63
-108 -82 -119 -82 -7 0 -18 -7 -25 -15 -14 -17 -126 -95 -137 -95 -4 0 -17
-10 -29 -21 -13 -12 -32 -27 -42 -33 -10 -6 -33 -20 -51 -31 -18 -11 -49 -32
-68 -47 -45 -35 -108 -38 -147 -7 -14 11 -43 25 -64 31 -20 6 -49 18 -63 28
-14 10 -38 22 -55 25 -16 4 -45 18 -64 30 -19 13 -51 26 -71 29 -21 4 -42 13
-49 21 -6 8 -28 19 -48 26 -20 6 -55 21 -77 34 -22 12 -54 26 -72 29 -17 4
-37 14 -43 21 -6 8 -28 19 -48 26 -20 6 -55 21 -77 34 -22 12 -53 25 -69 29
-17 4 -41 15 -55 25 -14 10 -42 22 -61 26 -19 4 -44 15 -55 25 -11 10 -40 24
-65 30 -59 16 -80 35 -80 76 0 37 14 48 75 59 22 4 58 18 81 31 22 13 49 24
60 24 11 0 40 11 65 24 25 13 62 28 83 32 22 4 57 17 80 30 23 13 50 24 61 24
11 0 40 11 65 24 25 13 60 27 79 31 19 4 54 18 79 31 25 13 53 24 62 24 9 0
38 11 64 25 26 14 55 25 65 25 10 0 38 11 63 24 25 13 60 27 79 31 19 4 49 16
67 26 18 10 54 24 80 31 26 6 67 22 91 35 24 13 51 23 60 23 9 0 39 12 66 25
28 14 57 25 65 25 8 0 42 14 75 30 33 16 69 30 80 30 11 0 36 10 55 22 19 11
54 25 78 29 24 5 56 18 72 29 15 11 36 20 47 20 10 0 45 14 78 30 33 16 70 30
83 30 12 0 48 14 79 30 31 17 62 30 70 30 8 0 31 9 53 20 21 11 60 24 86 30
25 6 58 19 71 30 14 11 41 22 62 26 20 4 56 17 81 30 25 13 54 24 65 24 11 0
40 11 65 24 25 13 60 27 79 31 19 4 54 18 79 31 25 13 52 24 61 24 9 0 38 11
66 24 27 13 70 31 95 39 117 40 168 59 201 77 20 11 43 20 51 20 8 0 35 11 60
24 25 13 60 27 79 30 19 4 57 17 84 30 74 35 154 67 206 81 25 7 63 22 84 34
22 12 47 21 56 21 9 0 37 11 62 24 25 14 63 28 84 31 21 4 50 15 65 26 15 10
47 23 72 29 24 5 59 18 78 29 18 10 49 22 68 26 19 4 53 18 76 31 22 13 48 24
57 24 17 0 48 12 87 36 14 8 41 13 60 12 30 -3 35 -7 35 -28z m823 -13 c2 -24
-4 -49 -16 -70 -11 -18 -25 -56 -32 -84 -6 -29 -20 -63 -29 -75 -10 -13 -21
-41 -24 -63 -4 -22 -18 -62 -32 -89 -14 -27 -25 -58 -25 -68 0 -10 -11 -40
-25 -66 -14 -26 -25 -56 -25 -67 0 -11 -14 -47 -30 -80 -16 -33 -30 -69 -30
-80 0 -11 -11 -40 -24 -65 -13 -25 -27 -63 -30 -85 -4 -22 -16 -53 -26 -70
-10 -16 -21 -46 -25 -65 -4 -19 -17 -57 -30 -85 -12 -27 -30 -71 -39 -97 -41
-122 -51 -146 -73 -193 -12 -28 -23 -60 -23 -71 0 -12 -11 -41 -23 -65 -13
-24 -27 -61 -31 -82 -4 -21 -18 -59 -32 -84 -13 -25 -24 -56 -24 -67 0 -12 -9
-39 -21 -61 -12 -21 -27 -62 -35 -89 -7 -28 -22 -69 -33 -91 -12 -21 -21 -48
-21 -59 0 -10 -11 -42 -24 -70 -14 -28 -31 -71 -40 -96 -8 -25 -29 -83 -46
-130 -17 -47 -38 -105 -47 -130 -8 -25 -26 -68 -39 -95 -13 -28 -24 -59 -24
-70 0 -11 -11 -40 -24 -65 -13 -25 -26 -62 -30 -83 -4 -21 -15 -52 -25 -70
-11 -18 -24 -55 -31 -84 -6 -29 -18 -57 -25 -63 -7 -6 -18 -34 -25 -63 -6 -29
-20 -68 -30 -87 -10 -19 -21 -51 -25 -70 -4 -19 -18 -56 -31 -82 -13 -26 -24
-56 -24 -66 0 -11 -11 -40 -24 -65 -14 -25 -28 -63 -32 -84 -4 -21 -18 -58
-31 -82 -12 -24 -23 -53 -23 -65 0 -12 -11 -42 -24 -67 -13 -25 -27 -63 -31
-84 -4 -22 -16 -52 -26 -67 -11 -16 -24 -50 -29 -76 -5 -27 -18 -64 -28 -83
-11 -19 -23 -50 -26 -69 -3 -19 -17 -57 -31 -84 -14 -27 -25 -58 -25 -68 0
-10 -11 -40 -24 -66 -13 -26 -26 -60 -30 -77 -12 -56 -60 -135 -85 -142 -20
-5 -32 3 -69 43 -25 27 -89 96 -142 154 -136 147 -236 256 -524 574 -39 43
-98 106 -131 141 -80 82 -135 143 -225 244 -79 90 -86 97 -165 182 -68 72
-105 118 -105 130 0 6 62 74 138 151 254 260 338 347 737 764 121 126 247 256
280 290 33 33 168 172 300 308 132 137 312 322 400 412 88 90 178 183 201 207
22 23 96 101 164 172 68 72 248 258 400 415 152 157 308 318 346 358 80 84
107 91 112 29z m-751 -304 c3 -6 -10 -26 -26 -44 -17 -18 -31 -35 -31 -38 0
-3 -61 -69 -136 -146 -173 -179 -268 -277 -534 -554 -118 -123 -276 -285 -350
-361 -131 -134 -391 -403 -730 -754 -91 -94 -185 -191 -210 -216 -25 -25 -128
-133 -230 -240 -102 -107 -228 -237 -281 -290 -52 -52 -104 -108 -115 -124
-10 -16 -30 -45 -44 -66 -26 -38 -63 -91 -102 -146 -13 -17 -41 -57 -63 -89
-22 -32 -50 -72 -63 -89 -12 -17 -33 -47 -47 -68 -13 -20 -29 -39 -35 -43 -6
-4 -15 -17 -21 -28 -5 -12 -25 -42 -44 -67 -19 -25 -42 -58 -51 -75 -9 -16
-29 -44 -43 -62 -50 -62 -70 -90 -82 -117 -8 -17 -20 -26 -35 -26 -44 0 -45
30 -42 751 3 658 4 678 23 699 11 12 33 28 50 36 16 8 48 28 70 44 56 43 155
110 162 110 3 0 20 12 38 28 18 15 56 41 85 57 29 17 60 37 69 45 9 8 42 31
72 51 29 19 65 43 79 52 43 29 182 124 242 167 32 22 61 40 66 40 5 0 17 9 28
21 10 12 35 30 54 40 19 11 55 35 80 54 25 19 57 41 72 50 35 19 97 60 123 80
40 30 91 65 125 85 19 11 55 36 80 55 25 19 61 43 81 54 19 11 41 27 48 35 8
9 18 16 24 16 6 0 21 10 34 22 13 12 38 31 57 42 19 12 73 48 121 81 48 33
100 67 117 76 16 8 33 19 36 25 4 5 32 25 62 45 70 45 96 63 144 97 56 39 104
71 176 117 35 22 77 51 94 65 17 14 38 30 47 35 17 10 132 87 183 121 15 10
43 28 60 39 18 11 39 26 47 33 21 18 79 58 119 82 19 11 55 36 80 55 25 19 61
43 81 54 19 11 41 27 48 35 8 9 20 16 27 16 8 0 24 11 36 25 23 27 68 31 75 8z"></path>
</g>
</svg>