 <svg version="1.0" xmlns="http://www.w3.org/2000/svg" width="25" height="25" viewBox="0 0 700.000000 700.000000" preserveAspectRatio="xMidYMid meet">
<metadata>
Created by potrace 1.12, written by Peter Selinger 2001-2015
</metadata>
<g transform="translate(0.000000,700.000000) scale(0.100000,-0.100000)" fill="#ffffff" stroke="none">
<path d="M3446 6985 c-3 -8 -11 -15 -19 -15 -7 0 -26 -14 -43 -31 l-29 -30 0
-542 0 -542 23 -29 c23 -30 90 -66 122 -66 32 0 99 36 122 66 l23 29 0 542 0
542 -29 30 c-17 17 -36 31 -43 31 -8 0 -16 7 -19 15 -4 10 -21 15 -54 15 -33
0 -50 -5 -54 -15z"></path>
<path d="M5815 6009 c-20 -6 -151 -130 -402 -381 -324 -325 -372 -378 -378
-410 -22 -118 57 -200 173 -183 46 6 56 16 415 373 228 227 374 380 383 402
19 44 13 113 -13 149 -38 52 -106 71 -178 50z"></path>
<path d="M1075 6000 c-38 -15 -76 -66 -82 -108 -12 -91 -20 -82 372 -473 274
-274 374 -367 402 -377 91 -32 185 20 198 109 12 85 7 93 -375 475 -195 196
-367 362 -382 370 -29 15 -101 18 -133 4z"></path>
<path d="M3390 5399 c-215 -21 -329 -40 -388 -65 -18 -8 -43 -14 -55 -14 -12
0 -35 -7 -51 -15 -15 -8 -33 -15 -38 -15 -9 0 -37 -11 -113 -45 -58 -26 -190
-90 -200 -97 -25 -19 -118 -78 -122 -78 -15 0 -184 -142 -264 -222 -115 -116
-234 -266 -295 -373 -33 -57 -124 -242 -124 -252 0 -6 -7 -24 -15 -39 -8 -16
-15 -36 -15 -44 0 -9 -4 -20 -9 -25 -11 -12 -39 -113 -51 -181 -4 -28 -12 -60
-18 -70 -5 -11 -13 -59 -17 -109 -4 -49 -10 -127 -13 -173 -4 -45 -4 -119 -1
-165 4 -45 10 -120 14 -167 4 -47 13 -102 21 -123 8 -20 14 -51 14 -68 0 -17
5 -40 12 -52 6 -12 15 -38 19 -57 8 -35 31 -104 50 -150 31 -72 40 -91 76
-165 21 -44 41 -84 45 -90 19 -24 78 -117 78 -122 0 -15 149 -191 227 -269 84
-84 252 -224 268 -224 4 0 24 -12 44 -27 20 -16 45 -33 56 -40 28 -16 184 -93
220 -108 17 -7 41 -18 55 -24 46 -19 115 -42 150 -50 19 -4 45 -13 57 -19 12
-7 35 -12 52 -12 17 0 48 -6 68 -14 21 -8 67 -17 103 -20 36 -3 110 -10 164
-15 96 -10 149 -8 391 18 39 4 83 13 98 19 16 7 42 12 58 12 17 0 40 5 52 12
12 6 38 15 57 19 71 15 164 53 320 129 104 52 110 54 190 109 272 185 499 442
630 711 39 79 51 106 79 170 19 46 42 115 50 150 4 19 13 45 19 57 7 12 12 34
12 50 0 15 6 48 14 73 24 73 40 292 32 441 -9 181 -20 278 -34 312 -7 16 -12
43 -12 60 -1 18 -7 43 -15 57 -8 14 -14 36 -15 50 0 14 -7 38 -15 54 -8 15
-15 33 -15 38 0 6 -7 26 -16 46 -8 21 -21 51 -28 67 -57 132 -160 308 -245
415 -138 173 -322 340 -481 436 -36 21 -67 41 -70 44 -15 15 -290 140 -308
140 -5 0 -23 7 -38 15 -16 8 -40 15 -54 15 -14 1 -36 7 -50 15 -14 8 -38 14
-54 15 -15 0 -49 7 -75 15 -43 13 -177 29 -331 39 -36 2 -103 0 -150 -5z m270
-309 c19 -5 67 -14 105 -19 76 -11 170 -32 225 -52 107 -37 171 -63 200 -80 8
-5 22 -12 30 -15 8 -3 22 -10 30 -15 8 -5 26 -14 40 -20 13 -5 27 -14 30 -18
3 -4 23 -18 45 -31 163 -97 378 -313 475 -475 13 -22 27 -42 31 -45 3 -3 18
-30 33 -60 15 -30 30 -62 35 -70 12 -22 36 -80 53 -125 32 -85 40 -111 49
-153 5 -23 13 -51 19 -61 5 -11 10 -39 10 -63 1 -24 7 -72 15 -108 19 -85 19
-287 0 -365 -8 -33 -15 -79 -15 -103 0 -24 -5 -52 -10 -63 -6 -10 -14 -38 -19
-61 -13 -64 -48 -159 -94 -258 -127 -273 -311 -487 -572 -665 -38 -26 -79 -51
-90 -56 -11 -5 -27 -13 -35 -18 -8 -5 -22 -12 -30 -15 -8 -3 -22 -10 -30 -15
-14 -8 -29 -15 -123 -55 -21 -9 -46 -16 -55 -16 -10 0 -26 -6 -37 -14 -11 -7
-36 -16 -55 -18 -19 -3 -55 -10 -80 -16 -207 -50 -470 -50 -680 0 -25 6 -61
14 -80 18 -19 5 -51 14 -70 20 -80 29 -117 43 -145 55 -16 7 -37 16 -45 19 -8
3 -23 10 -32 16 -10 5 -26 15 -35 20 -10 6 -29 15 -43 21 -13 5 -27 14 -30 18
-3 4 -23 18 -45 31 -163 97 -378 313 -475 475 -13 22 -27 42 -30 45 -7 5 -95
186 -124 253 -9 21 -16 46 -16 55 0 10 -7 27 -15 38 -8 10 -15 32 -15 47 0 15
-7 44 -15 64 -8 19 -15 53 -15 75 0 21 -7 71 -16 109 -25 110 -12 351 28 519
6 25 14 61 18 80 14 60 72 216 101 270 5 8 20 40 35 70 15 30 30 57 33 60 4 3
18 23 31 45 101 169 295 361 490 485 103 66 181 105 285 143 96 35 112 40 150
47 22 4 53 12 68 19 16 6 47 11 70 12 23 0 65 7 92 14 60 15 295 19 345 5z"></path>
<path d="M110 3643 c-29 -5 -80 -50 -80 -70 0 -8 -7 -16 -15 -19 -21 -8 -21
-100 0 -108 8 -3 15 -11 15 -19 0 -7 14 -26 31 -43 l30 -29 538 0 537 0 35 24
c21 14 42 41 53 69 18 43 18 47 2 96 -13 38 -28 59 -54 76 l-36 25 -515 1
c-284 1 -527 -1 -541 -3z"></path>
<path d="M5839 3641 c-51 -13 -109 -87 -109 -139 0 -33 34 -97 64 -122 l30
-25 537 0 c530 0 538 0 566 21 15 11 34 33 41 47 7 15 17 27 23 27 5 0 9 23 9
50 0 28 -4 50 -9 50 -6 0 -16 12 -23 27 -7 14 -26 36 -41 47 -28 21 -38 21
-545 22 -284 1 -528 -1 -543 -5z"></path>
<path d="M1373 1587 l-373 -372 0 -64 c0 -48 5 -69 21 -89 36 -47 69 -62 134
-62 l59 0 373 373 373 373 0 59 c0 103 -52 155 -154 155 l-60 0 -373 -373z"></path>
<path d="M5081 1919 c-39 -40 -41 -44 -41 -103 1 -38 6 -68 16 -81 16 -22 635
-645 700 -705 57 -52 105 -65 164 -43 58 22 77 43 92 97 9 34 9 53 -1 88 -12
41 -52 85 -385 417 l-373 371 -65 0 c-64 0 -67 -1 -107 -41z"></path>
<path d="M3440 1252 c-55 -27 -78 -58 -85 -115 -3 -29 -5 -275 -3 -547 3 -477
4 -496 23 -522 11 -16 30 -31 42 -34 12 -3 27 -12 34 -20 15 -18 83 -18 98 0
7 8 22 17 34 20 12 3 31 18 42 34 19 26 20 45 23 522 2 272 0 518 -3 547 -7
60 -29 89 -86 115 -50 22 -73 22 -119 0z"></path>
</g>
</svg>