 <svg version="1.0" xmlns="http://www.w3.org/2000/svg" width="25.000000pt" height="25.000000pt" viewBox="0 0 700.000000 700.000000" preserveAspectRatio="xMidYMid meet">
<metadata>
Created by potrace 1.12, written by Peter Selinger 2001-2015
</metadata>
<g transform="translate(0.000000,700.000000) scale(0.100000,-0.100000)" fill="#3DB697" stroke="none">
<path d="M3226 6981 c-16 -17 -48 -26 -181 -46 -22 -4 -49 -13 -61 -20 -11 -7
-41 -18 -65 -24 -24 -6 -62 -20 -84 -30 -22 -11 -76 -36 -120 -57 -44 -21 -93
-48 -108 -61 -16 -13 -35 -23 -42 -23 -13 0 -86 -55 -225 -172 -69 -57 -146
-142 -235 -258 -20 -25 -41 -51 -48 -59 -19 -23 -62 -99 -107 -191 -22 -47
-49 -101 -59 -120 -10 -19 -22 -51 -26 -70 -4 -19 -17 -60 -30 -90 -12 -30
-26 -79 -29 -109 -4 -30 -16 -91 -27 -135 -27 -116 -27 -416 0 -532 11 -44 23
-105 27 -135 3 -30 17 -79 29 -109 13 -30 26 -71 30 -90 4 -19 16 -51 26 -70
10 -19 35 -71 55 -115 21 -44 48 -93 61 -108 13 -16 23 -34 23 -41 0 -7 10
-25 23 -39 12 -14 38 -47 57 -73 99 -133 210 -244 344 -344 73 -55 77 -60 74
-94 -3 -28 -8 -33 -56 -48 -29 -9 -64 -26 -78 -37 -15 -12 -33 -21 -40 -21
-15 0 -129 -58 -167 -85 -62 -44 -113 -75 -125 -75 -6 0 -21 -9 -32 -20 -10
-10 -38 -32 -61 -47 -23 -15 -53 -35 -66 -44 -80 -54 -371 -342 -448 -443 -11
-15 -32 -41 -46 -59 -14 -18 -34 -47 -43 -64 -9 -18 -20 -33 -25 -33 -5 0 -16
-15 -26 -32 -9 -18 -31 -58 -50 -88 -62 -101 -101 -175 -113 -208 -6 -18 -20
-45 -32 -59 -11 -14 -20 -33 -20 -43 0 -9 -10 -37 -23 -61 -13 -24 -29 -66
-36 -94 -7 -27 -19 -60 -27 -72 -8 -13 -21 -55 -28 -95 -8 -40 -21 -89 -29
-108 -9 -20 -20 -80 -26 -135 -7 -55 -19 -126 -29 -160 -15 -54 -17 -132 -17
-770 l0 -710 33 -47 c18 -26 42 -50 53 -53 11 -4 25 -18 31 -31 l11 -24 2487
0 2487 0 11 24 c6 13 20 27 31 31 11 3 35 27 53 53 l33 47 0 710 c-1 635 -2
716 -18 770 -9 34 -21 106 -28 160 -6 55 -19 120 -30 145 -10 25 -23 73 -28
107 -5 34 -16 72 -25 85 -8 13 -20 46 -27 73 -7 28 -23 70 -36 94 -13 24 -23
52 -23 61 0 10 -8 28 -19 41 -10 13 -24 41 -30 61 -7 20 -20 47 -30 60 -10 13
-22 34 -26 48 -4 14 -15 34 -24 45 -10 11 -37 54 -62 95 -24 41 -49 82 -56 90
-43 55 -83 111 -83 118 0 5 -10 18 -22 29 -13 12 -48 49 -78 84 -71 82 -169
180 -249 249 -35 30 -69 61 -77 68 -18 17 -93 73 -129 96 -16 11 -38 28 -49
38 -11 10 -24 18 -29 18 -4 0 -23 11 -41 25 -18 14 -37 25 -43 25 -6 0 -22 9
-36 20 -31 24 -143 84 -177 95 -14 4 -32 14 -41 21 -9 8 -40 22 -70 32 -53 17
-54 18 -54 56 0 32 5 42 26 55 102 62 278 225 360 335 24 33 56 75 71 95 15
20 34 50 42 67 7 17 18 34 23 37 9 6 55 96 106 207 34 75 66 171 83 255 8 39
24 109 35 156 15 69 19 125 19 269 0 144 -4 200 -19 269 -11 47 -27 118 -35
156 -16 79 -49 181 -76 240 -56 122 -104 216 -112 221 -6 4 -17 21 -24 38 -8
17 -27 47 -42 67 -15 20 -47 62 -71 95 -60 80 -210 228 -296 291 -38 29 -76
58 -84 65 -30 26 -123 76 -316 169 -22 10 -60 24 -85 30 -25 6 -57 17 -71 25
-14 7 -68 20 -119 28 -65 10 -99 21 -114 35 -21 20 -34 21 -278 21 -238 0
-256 -1 -272 -19z m542 -440 c31 -11 83 -24 115 -30 32 -6 68 -17 80 -26 12
-9 39 -20 60 -26 20 -5 54 -21 74 -34 20 -14 39 -25 43 -25 11 0 111 -62 135
-83 11 -9 52 -44 92 -77 39 -33 97 -90 128 -127 31 -38 68 -81 81 -97 13 -15
24 -32 24 -38 0 -5 11 -24 25 -42 14 -18 25 -37 25 -43 0 -6 11 -27 25 -47 14
-20 28 -49 31 -64 4 -15 17 -47 29 -72 12 -25 25 -66 29 -92 4 -26 17 -73 28
-105 20 -52 22 -78 21 -263 0 -182 -2 -211 -20 -262 -12 -31 -24 -76 -27 -100
-10 -63 -123 -315 -153 -340 -7 -6 -13 -16 -13 -22 0 -6 -11 -25 -25 -41 -14
-17 -50 -60 -81 -98 -31 -37 -88 -94 -127 -127 -40 -33 -85 -71 -102 -85 -16
-14 -35 -25 -41 -25 -6 0 -16 -6 -22 -13 -10 -11 -115 -66 -232 -120 -30 -14
-76 -28 -102 -31 -26 -4 -73 -17 -105 -28 -52 -19 -79 -21 -263 -21 -182 0
-212 2 -265 20 -33 12 -86 26 -118 32 -32 6 -68 17 -80 26 -12 9 -39 20 -60
26 -20 5 -54 21 -74 34 -20 14 -40 25 -46 25 -6 0 -25 11 -43 25 -18 14 -37
25 -43 25 -6 0 -23 11 -38 25 -15 14 -60 52 -100 85 -39 33 -96 90 -127 127
-30 38 -63 77 -73 88 -21 23 -83 124 -83 135 0 4 -11 23 -25 43 -13 20 -29 54
-34 74 -6 21 -17 48 -26 60 -9 12 -20 48 -26 80 -6 32 -20 85 -32 118 -18 53
-21 83 -21 265 0 182 3 212 21 265 12 33 26 86 32 119 6 32 19 72 30 90 10 17
21 44 25 60 4 16 18 45 32 65 13 19 24 39 24 42 0 10 63 112 83 134 9 11 44
52 77 92 33 39 90 96 127 127 38 31 79 65 93 76 38 31 114 80 125 80 6 0 27
11 46 24 20 14 49 28 65 32 16 4 49 17 74 30 25 13 55 24 66 24 12 0 53 10 90
22 97 30 176 37 357 32 120 -3 172 -9 215 -23z m47 -3057 c39 -8 116 -24 171
-34 56 -10 112 -24 125 -30 12 -7 45 -18 73 -25 69 -17 240 -88 316 -130 14
-8 43 -24 65 -35 22 -11 58 -33 81 -48 22 -15 56 -37 75 -49 199 -127 438
-361 574 -561 28 -41 54 -81 60 -90 5 -10 18 -30 28 -45 32 -48 147 -280 147
-296 0 -9 7 -29 16 -46 29 -53 66 -182 116 -405 22 -102 23 -120 26 -670 3
-526 2 -566 -15 -577 -25 -19 -4321 -19 -4347 0 -16 12 -17 50 -13 587 3 542
5 580 24 655 12 44 24 105 28 135 4 30 13 66 20 80 8 14 21 54 30 89 9 35 25
79 36 99 10 20 19 43 19 51 0 19 128 279 142 287 5 4 17 21 24 38 8 17 26 47
40 66 14 19 33 46 42 59 96 135 189 238 334 369 100 90 288 224 383 272 22 11
51 27 65 35 72 40 244 111 315 131 28 7 77 22 110 33 33 10 92 24 130 30 39 7
97 18 130 26 90 20 536 20 630 -1z"></path>
</g>
</svg>