 <svg version="1.0" xmlns="http://www.w3.org/2000/svg" width="25.000000pt" height="25.000000pt" viewBox="0 0 700.000000 700.000000" preserveAspectRatio="xMidYMid meet">
<metadata>
Created by potrace 1.12, written by Peter Selinger 2001-2015
</metadata>
<g transform="translate(0.000000,700.000000) scale(0.100000,-0.100000)" fill="#ffffff" stroke="none">
<path d="M3360 6695 c-30 -13 -61 -24 -69 -25 -44 -1 -197 -139 -248 -223 -22
-37 -49 -125 -64 -211 -15 -91 -26 -109 -76 -137 -27 -15 -66 -30 -88 -34 -22
-3 -53 -15 -70 -25 -16 -10 -50 -24 -75 -30 -25 -7 -52 -18 -60 -25 -8 -7 -35
-22 -60 -34 -66 -32 -103 -51 -120 -62 -8 -5 -28 -17 -43 -27 -113 -68 -139
-87 -260 -186 -111 -91 -241 -228 -332 -351 -78 -104 -81 -109 -147 -223 -44
-77 -118 -229 -118 -243 0 -8 -9 -27 -20 -44 -11 -16 -25 -54 -31 -84 -6 -30
-19 -71 -29 -90 -10 -20 -21 -61 -25 -91 -4 -30 -16 -86 -28 -125 -20 -68 -21
-92 -27 -1085 -6 -992 -6 -1016 -26 -1070 -12 -30 -24 -73 -28 -95 -4 -21 -16
-51 -27 -66 -10 -14 -23 -38 -29 -53 -28 -73 -147 -204 -247 -270 -32 -22 -69
-47 -83 -58 -14 -10 -43 -27 -65 -37 -22 -10 -46 -26 -54 -35 -7 -9 -19 -16
-25 -16 -17 0 -127 -73 -153 -102 -48 -52 -77 -120 -77 -183 1 -124 106 -246
227 -260 29 -3 1276 -5 2772 -3 2702 3 2721 3 2749 23 16 11 39 27 52 36 13 9
39 38 57 65 30 46 32 53 32 144 l0 96 -44 53 c-43 51 -78 79 -167 131 -104 61
-200 121 -261 161 -77 52 -219 224 -238 289 -4 14 -16 35 -26 48 -9 12 -20 42
-24 65 -3 23 -12 71 -20 107 -12 53 -15 233 -19 980 -4 941 -9 1089 -44 1191
-11 30 -23 79 -27 109 -4 29 -18 76 -31 104 -13 28 -24 60 -24 71 0 11 -11 40
-24 65 -13 25 -26 59 -30 75 -4 17 -15 41 -24 55 -9 14 -35 61 -58 105 -50 98
-101 177 -171 268 -18 23 -43 55 -55 71 -50 64 -258 265 -333 321 -134 100
-139 104 -165 117 -14 6 -34 20 -45 29 -20 17 -58 38 -131 73 -21 10 -60 29
-85 42 -26 13 -53 24 -61 24 -8 0 -36 11 -61 24 -25 14 -63 28 -84 32 -54 9
-140 60 -147 87 -3 12 -6 39 -6 59 0 95 -91 291 -166 359 -144 130 -373 186
-514 124z"></path>
<path d="M2791 801 c-11 -7 -11 -17 -1 -60 6 -28 16 -54 21 -57 6 -3 21 -23
34 -45 34 -53 152 -176 199 -208 55 -37 178 -101 193 -101 7 0 41 -10 75 -23
54 -19 82 -22 198 -21 116 0 143 3 188 22 29 12 61 22 70 22 19 0 135 60 198
101 99 66 211 201 256 308 18 45 19 54 7 62 -18 11 -1419 12 -1438 0z"></path>
</g>
</svg>