 <svg version="1.0" xmlns="http://www.w3.org/2000/svg" width="700.000000pt" height="700.000000pt" viewBox="0 0 700.000000 700.000000" preserveAspectRatio="xMidYMid meet">
<metadata>
Created by potrace 1.12, written by Peter Selinger 2001-2015
</metadata>
<g transform="translate(0.000000,700.000000) scale(0.100000,-0.100000)" fill="#A5B492" stroke="none">
<path d="M2311 5887 c-25 -12 -73 -72 -111 -137 -24 -40 -60 -93 -89 -132 -12
-14 -21 -30 -21 -36 0 -5 -12 -25 -27 -45 -37 -48 -63 -86 -122 -177 -84 -129
-45 -118 -421 -122 -304 -4 -329 -6 -382 -26 -32 -12 -65 -22 -75 -22 -10 0
-45 -14 -78 -30 -33 -16 -65 -30 -71 -30 -6 0 -17 -7 -25 -16 -7 -8 -30 -24
-52 -35 -47 -25 -199 -175 -222 -221 -10 -18 -25 -42 -35 -53 -10 -11 -21 -31
-25 -45 -4 -14 -16 -37 -26 -51 -10 -15 -25 -55 -33 -90 -8 -35 -22 -89 -31
-119 -13 -48 -15 -209 -15 -1330 l0 -1276 25 -84 c14 -46 25 -91 25 -101 0
-23 64 -149 112 -219 46 -68 118 -144 181 -190 26 -19 64 -47 84 -62 20 -16
42 -28 50 -28 8 0 33 -11 56 -24 23 -13 58 -27 77 -31 19 -3 64 -16 100 -28
l65 -22 2275 0 2275 0 65 22 c36 12 81 25 100 28 19 4 54 18 77 31 23 13 48
24 56 24 8 0 32 13 53 30 22 16 58 44 82 62 81 62 120 103 192 207 35 50 100
179 100 199 0 9 11 56 25 103 l25 85 -2 1300 c-3 1185 -4 1302 -20 1334 -9 19
-21 61 -27 93 -6 32 -19 69 -30 83 -11 14 -22 38 -26 54 -3 16 -13 34 -21 41
-9 7 -24 30 -35 52 -26 50 -176 200 -226 226 -22 11 -45 27 -52 35 -8 9 -20
16 -27 16 -8 0 -40 14 -71 30 -31 17 -64 30 -75 30 -10 0 -44 10 -76 22 -53
20 -77 22 -382 26 -373 4 -337 -6 -414 112 -66 102 -74 113 -105 155 -17 22
-37 54 -45 72 -8 17 -22 40 -31 50 -25 28 -63 85 -79 118 -8 17 -24 39 -35 49
-12 11 -21 25 -21 32 0 6 -16 26 -35 43 l-36 31 -1172 0 c-910 0 -1177 -3
-1196 -13z m1456 -1530 c18 -9 56 -22 85 -28 29 -6 65 -19 79 -29 15 -11 40
-22 55 -26 16 -4 40 -16 54 -26 14 -10 54 -38 90 -61 87 -55 222 -190 275
-274 24 -37 53 -80 64 -94 11 -14 23 -39 27 -55 4 -16 14 -39 22 -52 8 -12 23
-53 34 -90 11 -37 26 -89 34 -117 12 -39 14 -95 11 -250 -3 -181 -5 -204 -25
-245 -12 -25 -22 -56 -22 -70 0 -14 -14 -52 -30 -85 -16 -33 -30 -65 -30 -71
0 -6 -10 -24 -22 -39 -12 -16 -29 -41 -38 -56 -69 -123 -218 -272 -342 -341
-16 -9 -37 -23 -46 -31 -9 -8 -28 -18 -42 -22 -14 -4 -43 -17 -65 -30 -22 -12
-64 -28 -93 -34 -29 -6 -67 -19 -85 -29 -28 -15 -62 -17 -257 -17 -195 0 -229
2 -257 17 -18 10 -56 23 -85 29 -29 6 -73 22 -98 35 -25 13 -49 24 -54 24 -10
0 -22 8 -140 86 -105 69 -306 286 -306 329 0 7 -9 20 -20 30 -10 9 -24 34 -31
54 -6 20 -18 47 -27 61 -9 14 -24 54 -35 90 -10 36 -25 88 -33 115 -23 76 -16
447 9 492 9 18 22 56 28 85 6 29 20 65 30 79 10 14 21 38 25 55 3 16 15 38 24
49 10 11 26 36 35 55 28 55 63 99 151 187 85 86 180 163 200 163 7 0 25 11 41
24 15 13 39 27 53 31 14 4 39 15 55 25 17 10 55 23 85 30 30 7 64 17 75 23 42
22 87 26 295 24 183 -2 220 -5 247 -20z"></path>
<path d="M3420 3921 c-144 -23 -261 -85 -372 -194 -48 -48 -88 -94 -88 -101 0
-7 -10 -26 -22 -41 -12 -15 -27 -49 -34 -74 -7 -25 -20 -66 -29 -90 -27 -73
-22 -212 10 -312 15 -46 33 -95 41 -109 7 -14 21 -40 29 -58 18 -37 180 -202
200 -202 7 0 28 -11 48 -24 19 -13 54 -29 78 -34 24 -6 62 -17 84 -26 66 -25
204 -21 305 10 47 14 96 31 110 39 14 8 42 23 63 35 56 31 179 160 211 221 91
175 111 334 61 489 -14 47 -33 96 -41 110 -7 14 -20 39 -29 57 -21 45 -149
172 -216 215 -31 20 -71 39 -90 43 -19 4 -54 15 -79 25 -53 21 -175 31 -240
21z"></path>
</g>
</svg>