 <svg version="1.0" xmlns="http://www.w3.org/2000/svg" width="25.000000pt" height="25.000000pt" viewBox="0 0 700.000000 700.000000" preserveAspectRatio="xMidYMid meet">
<metadata>
Created by potrace 1.12, written by Peter Selinger 2001-2015
</metadata>
<g transform="translate(0.000000,700.000000) scale(0.100000,-0.100000)" fill="#ffffff" stroke="none">
<path d="M1245 5670 c-33 -4 -78 -14 -100 -22 -22 -8 -58 -18 -80 -22 -22 -4
-60 -18 -85 -31 -25 -13 -56 -28 -70 -34 -54 -24 -211 -154 -249 -206 -12 -16
-35 -48 -51 -70 -47 -64 -108 -196 -115 -250 -6 -44 -4 -53 17 -72 12 -11 43
-27 68 -33 25 -7 59 -20 75 -30 17 -10 46 -21 65 -25 19 -4 53 -18 75 -30 22
-12 55 -25 73 -29 19 -3 45 -15 59 -26 14 -11 35 -20 47 -20 12 0 48 -13 81
-30 33 -16 69 -30 80 -30 11 0 38 -11 60 -25 22 -13 47 -25 55 -25 8 0 42 -14
75 -30 33 -16 67 -30 75 -30 8 0 42 -14 75 -30 33 -17 65 -30 72 -30 6 0 33
-11 59 -25 26 -14 55 -25 64 -25 9 0 38 -11 64 -25 26 -14 55 -25 64 -25 9 0
44 -14 77 -30 33 -17 66 -30 75 -30 8 0 33 -11 55 -25 22 -13 49 -25 60 -25
11 0 47 -13 80 -30 33 -16 67 -30 75 -30 8 0 29 -9 47 -19 17 -11 51 -25 75
-31 23 -7 54 -20 68 -30 14 -9 48 -22 75 -29 28 -7 57 -18 65 -26 8 -7 35 -18
60 -25 25 -6 59 -20 75 -30 17 -10 46 -21 65 -25 19 -4 53 -18 75 -30 22 -12
55 -25 73 -29 19 -3 46 -14 60 -24 15 -10 49 -24 77 -31 27 -6 57 -18 65 -26
8 -7 35 -18 60 -25 25 -6 59 -20 76 -31 17 -10 38 -19 46 -19 8 0 36 -11 61
-25 26 -13 72 -31 103 -39 51 -13 64 -13 117 0 32 9 80 27 105 40 25 13 52 24
61 24 9 0 39 12 66 25 28 14 57 25 66 25 9 0 36 11 61 24 25 13 60 27 78 31
18 4 53 18 78 31 25 13 52 24 61 24 9 0 30 7 46 16 30 17 113 49 215 85 30 11
71 28 90 38 19 10 51 22 70 26 19 4 49 15 65 25 17 10 49 23 73 30 24 6 58 20
75 31 18 10 39 19 48 19 9 0 36 11 61 24 25 13 60 27 79 31 19 4 50 16 69 26
19 10 61 28 93 39 132 46 168 61 199 80 18 11 42 20 53 20 11 0 47 14 80 30
33 17 68 30 79 30 10 0 33 9 50 19 17 11 51 24 76 31 25 6 54 18 66 25 12 8
46 21 77 30 31 9 59 20 62 26 3 5 32 16 63 25 31 9 71 24 87 34 17 10 45 21
64 25 19 4 54 18 79 31 25 13 52 24 61 24 9 0 36 11 61 24 25 13 60 27 77 31
36 7 150 61 158 74 8 14 -25 164 -40 181 -8 9 -21 36 -30 60 -9 24 -19 47 -24
50 -4 3 -21 25 -36 50 -34 55 -164 187 -224 226 -90 60 -176 100 -244 114 -33
6 -75 19 -95 28 -34 16 -213 17 -2277 18 -1232 1 -2267 -2 -2300 -6z"></path>
<path d="M450 3285 l0 -1184 25 -78 c14 -43 25 -84 25 -92 0 -13 50 -127 68
-157 46 -75 94 -136 149 -190 67 -67 178 -146 223 -159 14 -4 35 -16 48 -26
12 -9 42 -20 65 -24 23 -4 71 -16 107 -28 l65 -22 2275 0 2275 0 65 22 c36 12
84 24 107 28 23 4 53 15 65 24 13 10 40 24 60 30 21 7 40 17 43 21 3 5 31 26
61 46 69 46 124 99 180 172 23 31 51 68 62 82 11 14 23 36 27 50 4 14 14 36
23 50 14 22 45 122 73 235 6 25 8 468 7 1195 l-3 1155 -30 -2 c-16 -1 -57 -16
-89 -33 -32 -16 -68 -30 -80 -30 -12 0 -48 -14 -81 -30 -33 -17 -66 -30 -75
-30 -8 0 -35 -11 -60 -24 -25 -12 -60 -26 -79 -30 -19 -3 -42 -13 -52 -22 -9
-8 -39 -21 -65 -28 -27 -7 -67 -23 -89 -35 -22 -11 -48 -21 -58 -21 -10 0 -40
-11 -67 -25 -27 -14 -55 -25 -62 -25 -8 0 -40 -13 -73 -30 -33 -16 -67 -30
-76 -30 -9 0 -36 -11 -61 -24 -25 -13 -60 -27 -78 -31 -18 -4 -53 -18 -78 -31
-25 -13 -52 -24 -60 -24 -8 0 -38 -11 -66 -24 -28 -14 -71 -31 -96 -39 -96
-32 -179 -65 -201 -81 -13 -9 -33 -16 -44 -16 -11 0 -47 -14 -80 -30 -33 -16
-67 -30 -75 -30 -8 0 -35 -11 -60 -24 -25 -13 -59 -27 -76 -30 -16 -4 -52 -18
-79 -31 -26 -14 -58 -25 -69 -25 -12 0 -39 -11 -61 -25 -22 -13 -49 -25 -60
-25 -11 0 -40 -11 -65 -24 -25 -13 -65 -29 -88 -36 -24 -6 -58 -20 -75 -31
-18 -10 -41 -19 -51 -19 -11 0 -38 -11 -60 -24 -23 -13 -59 -28 -81 -31 -22
-4 -58 -18 -81 -31 -22 -13 -49 -24 -60 -24 -11 0 -42 -12 -69 -27 -43 -23
-62 -27 -135 -27 -74 0 -92 4 -134 27 -27 15 -55 27 -63 27 -7 0 -36 11 -63
25 -27 14 -55 25 -62 25 -8 0 -40 13 -73 30 -33 16 -67 30 -76 30 -9 0 -37 11
-63 25 -26 14 -52 25 -59 25 -7 0 -39 14 -72 30 -33 16 -67 30 -75 30 -8 0
-36 11 -62 25 -26 14 -53 25 -61 25 -8 0 -34 11 -59 24 -25 13 -60 27 -78 31
-18 4 -53 18 -78 31 -25 13 -53 24 -62 24 -9 0 -38 11 -64 25 -26 14 -53 25
-59 25 -7 0 -39 13 -72 30 -33 16 -67 30 -75 30 -8 0 -35 11 -60 24 -25 13
-61 27 -80 31 -19 4 -46 15 -60 25 -14 10 -45 23 -70 30 -25 7 -50 16 -57 22
-7 5 -40 20 -75 33 -142 52 -200 76 -221 89 -12 8 -38 17 -57 21 -19 4 -48 15
-65 25 -16 10 -49 23 -73 30 -24 6 -58 20 -75 31 -18 10 -39 19 -47 19 -9 0
-42 13 -75 30 -33 16 -67 30 -76 30 -9 0 -37 11 -63 25 -26 14 -52 25 -59 25
-7 0 -39 14 -72 30 -33 16 -67 30 -75 30 -8 0 -36 11 -62 25 -26 14 -56 25
-66 25 -10 0 -40 11 -66 25 -26 14 -56 25 -67 25 -19 0 -19 -17 -19 -1185z"></path>
</g>
</svg>