 <svg version="1.0" xmlns="http://www.w3.org/2000/svg" width="700.000000pt" height="700.000000pt" viewBox="0 0 700.000000 700.000000" preserveAspectRatio="xMidYMid meet">
<metadata>
Created by potrace 1.12, written by Peter Selinger 2001-2015
</metadata>
<g transform="translate(0.000000,700.000000) scale(0.100000,-0.100000)" fill="#A5B492" stroke="none">
<path d="M2735 5884 c-27 -8 -84 -22 -125 -30 -40 -9 -94 -27 -118 -40 -25
-13 -51 -24 -58 -24 -19 0 -156 -83 -244 -148 -52 -39 -204 -194 -238 -243
-59 -86 -142 -234 -142 -253 0 -7 -9 -30 -20 -51 -36 -69 -80 -314 -80 -440 0
-60 5 -128 10 -150 6 -22 19 -80 29 -130 18 -86 45 -165 79 -230 38 -74 65
-123 85 -156 38 -61 134 -173 193 -225 32 -27 65 -56 73 -64 47 -43 188 -132
231 -145 14 -4 36 -15 49 -24 14 -9 52 -23 85 -32 34 -9 79 -24 101 -32 67
-25 310 -37 466 -22 80 7 148 19 166 28 16 9 52 21 79 28 27 7 67 23 90 35 22
13 48 24 57 24 8 0 28 10 44 23 15 13 36 27 47 30 34 13 204 153 251 207 16
19 41 46 55 60 30 31 90 116 90 129 0 5 11 22 24 38 13 15 27 39 31 53 4 14
16 37 26 52 11 14 22 41 26 60 3 18 15 51 25 72 24 48 59 271 59 381 0 99 -34
332 -54 371 -8 16 -22 54 -31 85 -9 31 -22 62 -30 68 -8 7 -17 24 -21 39 -14
57 -155 250 -236 325 -92 85 -232 187 -256 187 -5 0 -24 11 -43 25 -19 14 -41
25 -50 25 -8 0 -33 10 -55 21 -38 21 -180 62 -275 79 -76 15 -339 10 -395 -6z"></path>
<path d="M4605 5841 c-28 -5 -64 -15 -80 -23 -17 -9 -45 -19 -64 -23 -36 -8
-132 -56 -196 -99 -49 -33 -135 -124 -135 -143 0 -8 17 -40 37 -71 42 -64 74
-120 97 -172 9 -19 24 -51 35 -70 10 -19 22 -51 26 -70 4 -19 14 -48 22 -64 8
-16 29 -106 45 -200 33 -189 34 -311 4 -451 -9 -38 -16 -91 -16 -118 0 -40 3
-49 23 -56 181 -70 159 -66 337 -66 158 0 169 1 240 28 187 72 285 136 378
248 82 98 98 121 107 149 4 14 16 37 26 51 10 14 25 54 33 90 9 35 23 89 32
119 18 63 12 215 -10 278 -8 21 -17 57 -21 82 -8 48 -70 182 -111 240 -68 95
-203 212 -303 261 -119 57 -217 82 -341 85 -63 1 -138 -1 -165 -5z"></path>
<path d="M5360 4173 c-25 -16 -59 -38 -75 -49 -17 -12 -41 -25 -55 -29 -14 -4
-36 -15 -49 -24 -14 -9 -50 -23 -80 -33 -31 -9 -75 -23 -99 -32 -95 -36 -468
-30 -544 9 -40 20 -157 47 -169 39 -5 -3 -16 -20 -25 -37 -48 -99 -160 -268
-196 -295 -21 -15 -23 -43 -6 -60 7 -7 31 -12 55 -12 69 0 302 -47 373 -75
143 -57 216 -101 338 -201 94 -77 120 -104 173 -177 19 -26 46 -64 62 -84 15
-20 27 -41 27 -48 0 -7 9 -24 20 -38 11 -14 27 -45 35 -69 9 -24 22 -56 30
-73 8 -16 22 -64 30 -105 12 -61 20 -80 45 -102 l30 -28 320 0 320 0 64 26
c56 22 70 33 98 77 l33 52 0 440 0 440 -32 88 c-33 87 -45 108 -116 201 -96
124 -279 210 -475 221 -82 5 -90 4 -132 -22z"></path>
<path d="M1780 3414 c-14 -2 -77 -11 -140 -20 -65 -9 -128 -24 -145 -34 -16
-10 -48 -23 -70 -30 -22 -7 -47 -18 -55 -25 -8 -7 -31 -20 -50 -30 -39 -20
-128 -92 -176 -142 -61 -64 -147 -185 -159 -223 -4 -14 -15 -36 -25 -50 -10
-14 -21 -41 -24 -60 -4 -19 -17 -64 -29 -100 -22 -64 -22 -72 -22 -760 l0
-695 29 -42 c15 -22 50 -55 76 -72 l48 -31 1919 2 1918 3 41 30 c26 18 53 52
70 85 l29 55 0 655 c0 504 -3 664 -13 695 -7 22 -19 72 -27 111 -7 39 -23 86
-34 105 -12 19 -21 42 -21 51 0 9 -11 30 -25 46 -14 17 -25 34 -25 39 0 13
-77 113 -128 166 -44 45 -163 137 -177 137 -4 0 -19 8 -33 19 -104 72 -278
109 -562 118 -199 6 -208 5 -270 -18 -36 -13 -80 -34 -99 -46 -19 -13 -39 -23
-45 -23 -7 0 -30 -9 -51 -20 -22 -11 -65 -27 -96 -35 -31 -8 -72 -22 -92 -30
-20 -8 -108 -22 -197 -31 -148 -15 -174 -15 -335 -1 -132 13 -189 22 -240 42
-37 14 -74 25 -83 25 -14 0 -95 35 -152 66 -131 70 -147 74 -333 73 -95 -1
-183 -3 -197 -5z"></path>
</g>
</svg>