 <svg version="1.0" xmlns="http://www.w3.org/2000/svg" width="700.000000pt" height="700.000000pt" viewBox="0 0 700.000000 700.000000" preserveAspectRatio="xMidYMid meet">
<metadata>
Created by potrace 1.12, written by Peter Selinger 2001-2015
</metadata>
<g transform="translate(0.000000,700.000000) scale(0.100000,-0.100000)" fill="#A5B492" stroke="none">
<path d="M3409 6447 c-20 -8 -62 -34 -93 -60 -30 -25 -86 -66 -123 -91 -38
-25 -86 -59 -108 -75 -22 -17 -69 -51 -105 -76 -36 -26 -83 -60 -105 -76 -22
-16 -51 -37 -65 -47 -14 -9 -52 -37 -85 -62 -33 -25 -87 -63 -120 -85 -56 -36
-109 -76 -145 -109 -8 -7 -28 -21 -45 -30 -16 -9 -50 -32 -75 -51 -25 -19 -61
-46 -80 -60 -19 -14 -51 -36 -70 -50 -19 -14 -51 -36 -72 -50 -20 -13 -39 -29
-43 -35 -3 -6 -23 -19 -43 -30 -20 -11 -57 -36 -82 -55 -44 -34 -80 -60 -150
-110 -19 -13 -52 -37 -72 -52 -69 -51 -158 -113 -163 -113 -3 0 -32 -21 -65
-47 -32 -27 -82 -64 -110 -83 -46 -31 -97 -68 -227 -164 -23 -17 -57 -41 -75
-53 -18 -13 -82 -59 -141 -103 -59 -44 -120 -86 -135 -94 -15 -8 -36 -23 -46
-35 -11 -12 -25 -21 -31 -21 -7 0 -19 -7 -26 -16 -8 -9 -30 -27 -49 -40 -19
-13 -53 -37 -75 -53 -63 -47 -114 -84 -149 -106 -18 -11 -39 -25 -47 -32 -51
-43 -91 -74 -145 -108 -111 -73 -146 -141 -129 -251 10 -67 69 -129 136 -143
28 -6 160 -11 298 -11 219 0 250 -2 262 -17 12 -13 15 -271 19 -1554 l5 -1537
40 -48 c26 -29 56 -52 80 -61 33 -11 187 -14 860 -13 488 0 834 4 855 10 50
14 107 75 119 130 7 28 11 277 11 666 0 585 1 628 21 730 58 309 285 529 581
563 275 31 504 -64 657 -274 66 -90 99 -171 121 -295 19 -106 20 -157 20 -727
0 -403 4 -629 11 -663 13 -59 63 -114 119 -130 53 -15 1661 -13 1712 2 27 8
52 27 81 62 l42 50 5 1536 c4 1283 7 1540 19 1553 12 15 43 17 262 17 299 0
333 6 387 64 31 34 41 54 47 94 15 111 -11 160 -128 247 -34 25 -71 52 -82 61
-71 53 -147 107 -190 135 -16 10 -50 34 -75 54 -25 19 -74 55 -110 81 -36 25
-83 59 -105 75 -22 16 -56 41 -75 54 -19 14 -55 41 -80 60 -25 19 -61 44 -80
55 -19 11 -55 36 -80 55 -25 19 -61 46 -80 60 -19 14 -49 35 -66 47 -17 13
-44 32 -60 43 -16 11 -56 40 -89 66 -33 25 -71 51 -83 58 -13 7 -31 19 -40 28
-15 14 -74 56 -160 115 -18 13 -66 48 -107 78 -41 30 -91 66 -110 80 -20 14
-66 48 -103 75 -37 28 -80 59 -96 70 -35 24 -108 76 -156 110 -90 64 -107 77
-140 100 -19 13 -53 38 -75 54 -45 34 -80 60 -215 156 -19 14 -55 41 -80 60
-25 19 -62 44 -82 55 -20 11 -41 26 -45 33 -4 7 -22 22 -39 33 -37 23 -94 62
-149 103 -22 17 -69 51 -105 76 -36 26 -85 62 -110 80 -25 19 -58 42 -75 51
-40 23 -159 29 -206 11z"></path>
</g>
</svg>