 <svg version="1.0" xmlns="http://www.w3.org/2000/svg" width="700.000000pt" height="700.000000pt" viewBox="0 0 700.000000 700.000000" preserveAspectRatio="xMidYMid meet">
<metadata>
Created by potrace 1.12, written by Peter Selinger 2001-2015
</metadata>
<g transform="translate(0.000000,700.000000) scale(0.100000,-0.100000)" fill="#A5B492" stroke="none">
<path d="M1035 5774 c-27 -9 -75 -21 -105 -28 -54 -13 -166 -64 -240 -109
-113 -69 -213 -168 -296 -294 -35 -53 -64 -102 -64 -110 0 -7 -11 -34 -25 -60
-21 -43 -39 -103 -66 -228 -11 -52 -11 -2838 0 -2890 27 -125 45 -185 66 -228
14 -26 25 -53 25 -61 0 -19 120 -195 167 -243 79 -83 225 -191 283 -208 14 -4
36 -15 49 -24 22 -14 120 -44 236 -71 24 -5 988 -9 2440 -10 2154 0 2406 2
2455 16 30 8 84 22 120 30 35 8 78 23 95 33 16 10 40 22 52 26 13 3 49 24 80
46 32 22 74 50 93 63 68 46 178 170 225 253 8 15 19 35 25 43 27 45 70 143 76
177 3 21 16 65 28 98 l21 60 0 1440 c0 1380 -1 1443 -19 1500 -10 33 -25 87
-33 120 -7 32 -20 66 -27 75 -7 8 -18 31 -25 50 -16 48 -113 188 -172 248 -48
49 -163 142 -175 142 -3 0 -20 11 -37 24 -18 13 -43 27 -57 31 -14 4 -38 15
-55 25 -16 10 -59 26 -95 34 -36 9 -90 23 -120 31 -48 13 -355 15 -2465 14
-2111 0 -2416 -2 -2460 -15z m-187 -341 c54 -40 283 -232 312 -262 14 -14 41
-37 59 -51 38 -27 234 -193 267 -225 31 -30 124 -108 148 -124 28 -20 213
-178 250 -214 15 -15 45 -40 65 -55 39 -29 149 -121 233 -196 79 -70 156 -134
174 -147 22 -15 124 -102 153 -130 20 -21 149 -128 231 -193 34 -27 74 -61 89
-75 110 -108 316 -261 351 -261 8 0 29 -8 45 -18 38 -24 61 -29 169 -41 123
-14 294 2 361 34 28 13 61 27 75 31 14 3 33 14 43 22 10 9 33 25 52 37 67 41
111 75 165 125 30 29 118 103 195 165 77 63 165 137 195 166 30 28 71 63 90
78 37 27 231 190 240 200 10 12 146 127 180 153 19 14 46 36 61 49 14 13 41
36 61 51 20 15 49 40 64 56 34 33 203 176 254 214 19 14 51 41 70 59 42 40
157 137 237 201 33 26 76 62 96 80 41 38 44 40 153 134 125 106 175 144 199
150 24 6 91 -34 138 -84 41 -43 28 -63 -115 -182 -68 -57 -130 -111 -138 -120
-8 -9 -53 -48 -100 -85 -124 -100 -202 -166 -230 -195 -14 -14 -59 -52 -100
-85 -79 -63 -193 -159 -227 -191 -45 -42 -94 -84 -208 -176 -66 -53 -136 -111
-155 -130 -48 -46 -160 -141 -187 -160 -29 -19 -137 -111 -210 -178 -11 -11
-70 -61 -130 -110 -163 -137 -183 -154 -183 -165 0 -16 52 -64 240 -222 96
-81 180 -152 185 -159 9 -11 95 -83 199 -168 21 -17 48 -40 60 -52 12 -11 127
-110 256 -219 129 -110 248 -212 264 -227 15 -16 45 -41 65 -56 52 -38 173
-141 191 -162 8 -9 119 -104 245 -210 127 -106 241 -204 255 -216 14 -13 47
-43 74 -68 l50 -44 -12 -38 c-6 -22 -30 -57 -52 -79 -72 -70 -64 -74 -410 219
-168 142 -309 264 -315 271 -10 12 -207 180 -550 469 -110 93 -207 176 -215
185 -26 29 -676 578 -698 590 -33 18 -51 13 -104 -24 -59 -43 -174 -105 -194
-105 -7 0 -31 -9 -52 -20 -24 -13 -92 -28 -181 -40 l-142 -20 -139 20 c-140
21 -211 44 -320 104 -14 8 -36 19 -50 25 -14 6 -43 25 -65 41 -22 16 -48 29
-58 30 -18 0 -64 -26 -82 -46 -5 -7 -64 -58 -130 -114 -124 -106 -263 -229
-299 -266 -12 -11 -86 -76 -166 -145 -151 -130 -227 -197 -270 -239 -14 -13
-90 -81 -170 -149 -80 -68 -154 -133 -165 -142 -11 -10 -54 -50 -95 -87 -41
-38 -129 -116 -195 -172 -138 -118 -268 -234 -305 -270 -84 -84 -220 -190
-243 -190 -18 0 -44 19 -86 61 -34 34 -61 67 -61 72 0 12 92 103 198 195 97
84 114 98 188 163 33 30 89 79 125 109 35 30 72 64 84 76 11 11 72 65 135 119
63 54 140 121 170 149 30 28 93 85 140 126 46 41 109 98 140 125 30 28 105 93
165 145 61 52 157 137 215 190 58 53 168 150 245 216 77 67 169 148 205 182
l65 61 -42 38 c-72 66 -155 137 -178 153 -21 14 -114 92 -154 130 -35 32 -171
147 -231 194 -34 27 -74 61 -89 76 -26 26 -205 178 -269 229 -19 14 -46 37
-60 51 -15 14 -103 89 -197 168 -93 79 -181 153 -195 166 -14 12 -154 132
-313 265 -196 166 -289 252 -294 269 -6 26 13 47 104 119 36 29 47 28 91 -4z"></path>
</g>
</svg>