 <svg version="1.0" xmlns="http://www.w3.org/2000/svg" width="25.000000pt" height="25.000000pt" viewBox="0 0 700.000000 700.000000" preserveAspectRatio="xMidYMid meet">
<metadata>
Created by potrace 1.12, written by Peter Selinger 2001-2015
</metadata>
<g transform="translate(0.000000,700.000000) scale(0.100000,-0.100000)" fill="#ffffff" stroke="none">
<path d="M2175 5630 c-60 -10 -138 -27 -172 -39 -34 -11 -76 -21 -93 -21 -16
0 -53 -9 -82 -20 -29 -11 -82 -25 -118 -30 -74 -12 -233 -63 -270 -87 -35 -23
-120 -104 -120 -115 0 -4 -11 -26 -25 -47 -40 -59 -48 -138 -35 -349 8 -136
16 -198 30 -240 11 -32 23 -88 27 -127 3 -38 16 -97 28 -130 12 -34 26 -81 30
-105 4 -25 15 -65 26 -90 10 -25 23 -65 29 -89 7 -24 20 -60 31 -80 10 -20 19
-43 19 -51 0 -8 14 -42 30 -75 16 -33 30 -67 30 -76 0 -9 8 -27 19 -40 10 -13
24 -42 31 -64 7 -22 18 -47 25 -55 7 -8 22 -35 34 -60 41 -83 66 -128 82 -146
9 -11 24 -32 33 -49 9 -16 32 -50 51 -75 19 -25 42 -58 51 -75 20 -36 37 -58
139 -183 44 -54 94 -115 110 -136 87 -111 581 -611 684 -691 35 -28 93 -73
130 -102 36 -29 75 -59 86 -68 86 -65 115 -85 123 -85 5 0 17 -9 28 -21 10
-11 32 -27 49 -35 29 -14 76 -44 125 -82 14 -11 36 -23 50 -27 14 -4 38 -18
53 -31 16 -13 34 -24 41 -24 8 0 24 -9 38 -19 13 -11 62 -39 109 -63 46 -24
95 -51 109 -61 13 -9 31 -17 40 -17 9 0 42 -13 75 -30 33 -16 67 -30 75 -30 8
0 32 -9 53 -20 21 -11 63 -26 95 -34 32 -7 71 -20 87 -28 17 -9 50 -19 75 -23
25 -3 70 -15 100 -25 30 -10 91 -23 135 -30 44 -6 125 -21 180 -32 89 -19 135
-22 420 -22 l320 -1 50 33 c28 18 64 45 82 60 82 69 137 208 154 387 5 61 17
137 25 170 14 53 36 220 51 375 7 77 -18 160 -61 197 -53 48 -98 71 -151 78
-27 4 -72 16 -100 26 -27 10 -81 23 -119 29 -38 6 -84 17 -104 26 -19 8 -67
19 -106 25 -39 5 -96 19 -126 29 -30 10 -87 24 -125 29 -39 6 -97 20 -129 31
-70 24 -179 27 -216 5 -14 -8 -43 -24 -65 -35 -22 -11 -65 -36 -95 -55 -30
-19 -74 -43 -96 -54 -23 -11 -45 -24 -48 -30 -4 -6 -26 -20 -49 -31 -23 -11
-67 -36 -97 -54 -30 -19 -74 -43 -96 -54 -23 -11 -45 -25 -48 -31 -11 -18 -86
-13 -120 8 -17 10 -42 22 -55 26 -48 15 -276 146 -381 220 -23 17 -52 37 -64
45 -202 140 -427 366 -584 584 -89 124 -133 193 -158 246 -9 19 -25 45 -35 59
-27 33 -24 93 6 150 14 25 32 62 40 81 8 19 19 42 24 50 10 16 60 123 85 180
9 19 20 42 25 50 51 84 115 269 108 314 -9 60 -49 201 -63 223 -8 12 -19 46
-25 75 -6 29 -19 69 -29 88 -10 19 -23 59 -29 88 -6 29 -19 69 -30 90 -10 20
-21 57 -25 82 -4 25 -14 55 -22 67 -8 12 -20 49 -28 82 -8 32 -21 72 -30 88
-8 15 -20 47 -26 71 -17 65 -68 116 -138 136 -68 19 -56 19 -197 -4z"></path>
</g>
</svg>