 <svg version="1.0" xmlns="http://www.w3.org/2000/svg" width="25.000000pt" height="25.000000pt" viewBox="0 0 700.000000 700.000000" preserveAspectRatio="xMidYMid meet">
<metadata>
Created by potrace 1.12, written by Peter Selinger 2001-2015
</metadata>
<g transform="translate(0.000000,700.000000) scale(0.100000,-0.100000)" fill="#ffffff" stroke="none">
<path d="M3305 6734 c-71 -8 -150 -21 -175 -30 -25 -8 -72 -22 -105 -30 -33
-9 -76 -24 -95 -34 -19 -10 -52 -24 -72 -30 -21 -6 -41 -16 -44 -22 -3 -5 -25
-18 -48 -29 -46 -22 -110 -60 -141 -83 -169 -130 -316 -284 -402 -420 -70
-112 -81 -132 -88 -156 -4 -14 -16 -36 -25 -50 -10 -14 -23 -45 -30 -70 -7
-25 -20 -61 -30 -80 -9 -19 -20 -60 -24 -90 -4 -30 -16 -89 -28 -130 -17 -63
-21 -103 -21 -250 0 -156 3 -187 27 -280 14 -58 26 -116 26 -130 0 -14 11 -47
25 -75 13 -27 25 -57 25 -65 0 -8 14 -42 30 -75 16 -33 30 -64 30 -70 0 -5 13
-29 28 -52 15 -23 40 -64 56 -90 68 -110 278 -332 367 -388 20 -13 40 -29 44
-34 3 -6 25 -19 49 -30 24 -10 46 -23 49 -28 14 -22 252 -129 308 -138 24 -4
65 -16 91 -26 129 -51 607 -51 736 0 26 10 67 22 91 26 63 10 262 101 314 143
16 12 35 22 42 22 7 0 31 15 53 33 22 17 54 43 72 57 70 55 167 149 234 230
68 80 136 178 136 194 0 4 11 22 25 40 14 18 25 38 25 45 0 6 14 37 30 68 17
31 30 63 30 72 0 9 9 35 21 56 11 22 27 76 34 120 8 44 22 105 30 135 12 41
16 100 16 235 0 160 -3 191 -25 280 -14 55 -26 111 -26 125 0 14 -9 44 -20 65
-12 22 -25 60 -31 84 -5 24 -18 56 -28 70 -10 14 -23 40 -28 56 -6 17 -21 47
-34 67 -13 21 -37 59 -54 85 -34 55 -76 112 -137 184 -42 50 -202 190 -270
237 -81 56 -124 82 -134 82 -5 0 -25 11 -43 24 -19 14 -48 28 -65 32 -17 3
-44 14 -61 24 -16 10 -57 25 -90 33 -33 9 -78 22 -100 30 -42 16 -319 48 -395
46 -25 -1 -103 -8 -175 -15z"></path>
<path d="M3320 3195 c-63 -7 -166 -19 -228 -24 -62 -6 -130 -18 -150 -27 -20
-8 -69 -21 -109 -29 -40 -8 -82 -20 -95 -28 -13 -9 -48 -20 -78 -26 -31 -6
-78 -23 -105 -36 -26 -14 -55 -25 -63 -25 -7 0 -26 -8 -40 -19 -15 -10 -44
-24 -64 -30 -21 -7 -41 -17 -44 -23 -4 -6 -30 -21 -58 -34 -50 -24 -92 -50
-176 -109 -23 -16 -57 -39 -75 -50 -122 -76 -403 -367 -490 -509 -11 -18 -30
-45 -42 -60 -13 -16 -23 -33 -23 -39 0 -6 -11 -24 -24 -41 -13 -17 -27 -42
-31 -56 -4 -14 -18 -41 -31 -60 -13 -19 -24 -41 -24 -50 0 -8 -9 -29 -19 -47
-11 -17 -26 -54 -35 -81 -8 -28 -20 -61 -27 -74 -7 -13 -21 -57 -30 -98 -10
-41 -24 -95 -32 -120 -8 -25 -25 -129 -37 -233 -19 -163 -22 -239 -21 -583 0
-359 2 -398 17 -415 17 -19 77 -19 2314 -19 l2297 0 19 21 c18 20 19 41 18
423 -1 372 -3 416 -27 601 -14 110 -33 217 -42 238 -9 22 -21 64 -26 95 -6 31
-19 72 -28 92 -10 19 -21 49 -25 65 -6 27 -30 82 -74 170 -8 17 -21 44 -29 60
-8 17 -18 37 -24 45 -5 8 -20 35 -34 60 -24 42 -63 101 -83 125 -5 6 -17 24
-27 40 -84 134 -373 409 -532 507 -15 10 -48 31 -73 48 -25 17 -64 39 -87 50
-23 11 -45 25 -48 29 -3 5 -27 17 -53 27 -26 10 -58 26 -71 36 -13 10 -31 18
-41 18 -9 0 -38 11 -65 25 -27 13 -71 29 -99 35 -28 6 -61 18 -74 26 -13 8
-58 21 -101 29 -43 7 -95 21 -116 29 -20 9 -83 20 -138 25 -56 6 -133 15 -172
20 -127 18 -305 20 -425 6z"></path>
</g>
</svg>