 <svg version="1.0" xmlns="http://www.w3.org/2000/svg" width="700.000000pt" height="700.000000pt" viewBox="0 0 700.000000 700.000000" preserveAspectRatio="xMidYMid meet">
<metadata>
Created by potrace 1.12, written by Peter Selinger 2001-2015
</metadata>
<g transform="translate(0.000000,700.000000) scale(0.100000,-0.100000)" fill="#A5B492" stroke="none">
<path d="M2130 5980 c-57 -18 -88 -37 -119 -72 -27 -31 -34 -49 -38 -97 -8
-86 2 -124 45 -169 67 -71 27 -67 669 -70 l582 -3 11 -37 c14 -52 13 -194 -2
-215 -12 -15 -89 -17 -948 -20 -874 -2 -939 -4 -995 -21 -33 -10 -80 -22 -105
-27 -42 -8 -127 -41 -195 -76 -16 -9 -43 -23 -60 -31 -117 -61 -310 -254 -376
-377 -61 -115 -98 -197 -105 -235 -3 -19 -16 -66 -27 -105 l-22 -70 0 -1210 0
-1210 22 -57 c11 -31 24 -76 28 -100 4 -24 15 -57 25 -74 9 -17 23 -48 30 -70
7 -21 18 -46 25 -54 7 -8 21 -31 30 -50 26 -51 134 -177 212 -248 68 -61 168
-131 189 -132 5 0 25 -11 43 -24 18 -13 49 -27 69 -31 20 -4 51 -15 67 -25 17
-10 66 -23 110 -30 44 -6 107 -15 141 -21 36 -5 619 -9 1415 -9 1322 0 1357 0
1494 21 77 11 151 27 163 36 13 8 47 21 75 30 28 8 62 24 76 34 13 10 29 19
36 19 6 0 27 11 46 25 19 15 66 50 104 79 39 28 102 90 142 135 71 83 153 208
153 234 0 8 9 25 19 39 11 14 27 53 35 89 8 35 23 82 32 104 14 33 18 80 22
255 3 133 8 220 15 228 13 16 62 9 86 -12 9 -7 31 -18 49 -24 18 -6 45 -20 60
-30 15 -10 42 -24 60 -30 18 -6 45 -20 59 -32 14 -11 33 -20 42 -20 10 0 32
-11 50 -24 19 -14 46 -28 62 -31 16 -4 31 -10 34 -15 3 -4 71 -40 152 -80 82
-39 159 -78 173 -85 14 -7 62 -32 108 -55 80 -40 87 -42 162 -38 88 4 105 14
164 98 l31 45 0 1145 0 1145 -34 53 c-35 56 -60 73 -128 91 -65 18 -136 -6
-348 -114 -104 -54 -203 -104 -220 -112 -16 -7 -41 -20 -55 -27 -14 -8 -106
-54 -205 -104 -296 -148 -301 -150 -309 -109 -3 12 -7 117 -10 232 -4 195 -6
215 -30 280 -14 39 -26 78 -26 88 0 9 -13 43 -30 74 -16 31 -30 61 -30 68 0 6
-9 20 -20 30 -11 10 -20 23 -20 29 0 19 -101 147 -167 213 -34 33 -95 82 -135
108 -40 26 -89 58 -109 71 -19 13 -42 24 -51 24 -8 0 -36 11 -61 24 -25 14
-72 30 -104 36 -32 5 -80 18 -108 27 -40 13 -106 17 -335 20 -162 3 -289 9
-295 14 -5 6 -13 87 -16 182 -5 166 -7 174 -37 238 -30 64 -102 147 -169 196
-16 12 -68 31 -115 42 -82 20 -112 21 -659 20 -316 0 -585 -4 -599 -9z"></path>
</g>
</svg>