 <svg version="1.0" xmlns="http://www.w3.org/2000/svg" width="25.000000pt" height="25.000000pt" viewBox="0 0 700.000000 700.000000" preserveAspectRatio="xMidYMid meet">
<metadata>
Created by potrace 1.12, written by Peter Selinger 2001-2015
</metadata>
<g transform="translate(0.000000,700.000000) scale(0.100000,-0.100000)" fill="#ffffff" stroke="none">
<path d="M3455 6990 c-33 -4 -97 -15 -143 -24 -46 -9 -155 -21 -243 -26 -89
-6 -178 -18 -202 -26 -23 -8 -85 -22 -138 -30 -53 -8 -116 -23 -140 -33 -24
-10 -66 -22 -94 -26 -27 -4 -63 -15 -80 -25 -16 -10 -53 -23 -82 -29 -28 -6
-67 -20 -85 -31 -18 -11 -42 -20 -54 -20 -12 0 -37 -11 -57 -24 -19 -13 -48
-27 -65 -30 -16 -4 -44 -18 -63 -32 -18 -13 -38 -24 -45 -24 -14 0 -145 -65
-184 -90 -56 -38 -85 -56 -126 -80 -103 -60 -121 -72 -164 -105 -25 -19 -61
-46 -80 -59 -46 -31 -267 -221 -350 -300 -106 -102 -328 -361 -394 -461 -14
-22 -44 -65 -66 -95 -22 -30 -40 -60 -40 -67 0 -6 -10 -24 -23 -40 -28 -34
-58 -84 -125 -208 -27 -51 -82 -173 -82 -182 0 -6 -9 -21 -19 -35 -11 -13 -24
-44 -31 -68 -7 -25 -18 -52 -25 -60 -8 -8 -19 -37 -26 -65 -6 -27 -20 -66 -30
-85 -9 -20 -22 -61 -28 -93 -5 -31 -17 -70 -25 -85 -8 -16 -20 -60 -26 -98 -6
-38 -19 -96 -30 -129 -11 -34 -24 -116 -30 -188 -9 -122 -25 -187 -49 -201 -8
-5 -11 -102 -11 -318 0 -290 1 -311 19 -334 21 -27 36 -109 47 -249 3 -49 14
-110 24 -135 10 -25 21 -73 25 -105 4 -33 16 -80 26 -105 10 -25 25 -75 34
-113 8 -37 21 -77 29 -90 8 -12 18 -40 22 -62 4 -22 17 -58 30 -81 13 -22 24
-47 24 -55 0 -14 12 -41 95 -209 45 -91 71 -140 125 -230 14 -23 36 -61 50
-85 39 -66 121 -188 144 -212 12 -12 35 -41 51 -63 131 -179 369 -425 544
-562 23 -18 70 -56 104 -84 34 -28 76 -59 92 -68 17 -9 48 -30 70 -47 22 -16
60 -41 85 -55 25 -13 65 -38 90 -54 71 -47 307 -170 325 -170 4 0 19 -8 33
-19 15 -10 43 -22 62 -26 19 -4 53 -17 75 -30 22 -12 58 -25 80 -29 22 -4 55
-16 73 -27 18 -10 60 -23 93 -28 34 -6 72 -17 85 -26 13 -8 56 -19 96 -25 40
-6 98 -19 128 -30 33 -11 107 -23 185 -29 137 -11 204 -26 212 -48 4 -10 70
-13 313 -13 261 0 309 2 320 15 18 22 70 33 205 45 66 6 150 19 186 30 36 11
95 24 131 29 36 5 80 16 97 25 17 9 57 21 89 27 31 6 71 19 87 29 17 10 48 21
70 25 22 4 55 16 72 26 18 10 52 23 75 30 24 6 50 17 59 25 9 8 38 21 66 29
28 8 56 22 63 30 6 7 28 19 47 26 20 6 51 22 71 35 19 13 39 24 44 24 5 0 24
11 41 24 18 13 42 27 53 30 12 4 29 15 39 26 10 11 23 20 30 20 7 0 30 12 52
28 21 15 46 32 54 37 116 75 422 330 525 436 125 130 277 311 344 410 19 28
43 60 52 70 9 10 27 35 38 56 11 21 34 58 50 83 17 25 37 61 46 80 9 19 23 42
31 51 21 24 143 271 143 290 0 9 7 22 15 29 8 7 22 38 31 69 9 31 24 70 34 86
10 17 21 48 25 70 3 22 15 54 25 72 10 17 22 53 25 80 4 26 18 76 31 110 13
34 24 77 24 96 0 19 11 78 25 132 17 65 29 147 36 250 13 197 33 353 48 368
14 14 15 69 0 84 -13 13 -36 187 -49 381 -6 84 -18 172 -26 195 -8 23 -21 84
-29 137 -8 53 -23 116 -34 141 -10 24 -22 66 -26 94 -4 27 -15 66 -25 85 -10
20 -22 54 -26 75 -3 22 -17 58 -29 80 -13 22 -26 56 -30 75 -4 19 -16 51 -26
70 -10 19 -39 78 -64 130 -51 105 -79 157 -142 260 -24 38 -43 72 -43 76 0 3
-11 19 -25 36 -14 16 -25 36 -25 43 0 7 -9 24 -20 37 -24 28 -75 94 -115 148
-137 185 -409 466 -583 602 -20 16 -45 35 -54 43 -9 7 -29 22 -45 32 -35 22
-101 72 -125 96 -10 9 -24 17 -32 17 -8 0 -28 11 -44 25 -17 14 -34 25 -39 25
-5 0 -27 13 -49 30 -21 16 -44 30 -51 30 -6 0 -24 11 -40 24 -15 13 -39 27
-53 31 -14 4 -32 13 -40 20 -19 15 -157 81 -190 91 -14 4 -36 15 -49 25 -12
10 -39 21 -60 25 -20 3 -50 14 -68 24 -17 10 -59 25 -92 34 -34 9 -71 22 -84
30 -12 8 -50 19 -84 25 -34 5 -76 17 -94 26 -18 10 -64 21 -103 26 -39 5 -100
18 -136 28 -41 13 -125 24 -230 31 -183 12 -270 24 -344 45 -27 8 -50 14 -50
13 -1 0 -28 -4 -61 -8z m246 -245 c263 -15 315 -22 419 -50 30 -8 69 -15 87
-15 19 0 64 -11 102 -24 37 -13 88 -27 112 -31 24 -4 58 -15 74 -25 17 -10 48
-22 70 -26 22 -4 64 -20 94 -35 30 -16 59 -29 66 -29 6 0 20 -9 30 -20 10 -11
23 -20 29 -20 21 0 154 -88 245 -162 89 -72 87 -100 -10 -166 -92 -62 -117
-75 -161 -88 -26 -8 -50 -19 -53 -24 -12 -20 -117 -11 -184 15 -36 14 -75 31
-86 37 -11 7 -33 18 -50 26 -16 8 -49 33 -72 55 -39 38 -43 45 -49 109 -8 85
-22 102 -78 95 -64 -8 -179 -43 -217 -66 -19 -12 -41 -21 -49 -21 -8 0 -37
-12 -64 -26 -70 -37 -154 -39 -216 -3 -56 32 -109 41 -169 28 -60 -13 -148
-89 -191 -166 -31 -54 -32 -61 -29 -147 6 -211 3 -243 -35 -321 -20 -39 -36
-76 -36 -82 0 -6 -7 -16 -15 -23 -9 -7 -20 -32 -26 -57 -12 -47 -72 -133 -93
-133 -7 0 -27 12 -43 28 -17 15 -52 43 -79 62 -70 51 -68 49 -108 172 -21 62
-47 123 -58 135 -23 24 -52 30 -64 12 -3 -6 -25 -19 -48 -28 -23 -10 -47 -26
-55 -35 -7 -9 -18 -16 -23 -16 -21 0 -122 -98 -158 -152 -30 -47 -38 -70 -43
-125 -8 -78 -2 -86 60 -77 56 8 82 1 129 -37 21 -17 53 -37 70 -44 29 -12 74
-58 74 -76 0 -16 -127 -138 -154 -149 -16 -6 -63 -7 -116 -3 -65 4 -93 3 -105
-7 -12 -10 -15 -38 -15 -146 0 -73 -5 -145 -10 -160 -8 -21 -7 -32 5 -51 16
-24 24 -28 106 -57 48 -17 69 -45 69 -91 0 -24 -52 -85 -73 -85 -7 0 -29 -9
-50 -20 -21 -11 -57 -23 -81 -26 -24 -4 -48 -9 -52 -13 -17 -12 -55 -72 -74
-117 -12 -27 -47 -72 -89 -112 -55 -54 -70 -76 -79 -112 -29 -126 -57 -219
-77 -255 -21 -37 -22 -51 -20 -210 1 -93 6 -194 10 -223 7 -45 4 -63 -19 -122
l-27 -68 20 -41 c24 -46 132 -141 161 -141 11 0 48 -11 83 -24 36 -13 95 -27
133 -31 38 -5 98 -16 134 -26 95 -27 242 -26 312 3 43 17 74 21 170 22 l117 1
36 -35 c41 -39 110 -137 120 -172 4 -13 18 -41 31 -64 13 -22 24 -49 24 -60 0
-11 11 -39 24 -64 13 -25 26 -57 30 -72 3 -14 51 -73 105 -130 99 -103 104
-111 157 -248 17 -44 18 -264 2 -361 -13 -80 -2 -150 37 -234 14 -32 27 -87
34 -150 19 -171 73 -303 163 -395 42 -43 101 -85 119 -85 7 0 30 25 51 57 48
72 79 94 156 108 34 6 76 17 94 24 18 8 56 17 83 21 101 14 228 116 294 236
11 19 27 41 35 48 9 8 16 19 16 26 0 7 11 29 25 49 14 21 30 58 35 84 17 73
20 81 42 93 33 18 64 3 81 -40 21 -51 58 -105 94 -135 24 -20 43 -26 88 -27
53 -2 60 0 84 28 36 42 67 60 129 74 63 13 77 31 87 114 4 32 15 80 25 105 25
62 36 176 20 195 -10 12 -37 15 -124 15 -107 0 -113 1 -175 34 -36 18 -68 42
-72 52 -12 29 -10 214 2 256 12 47 97 134 154 159 41 18 69 49 115 125 54 91
82 124 156 190 176 157 196 188 174 279 -7 29 -10 67 -7 86 20 112 20 109 -3
134 -35 38 -82 48 -182 42 -49 -3 -127 -2 -173 3 -71 7 -94 14 -135 41 -51 33
-92 90 -106 145 -4 16 -17 43 -29 59 -13 17 -26 41 -30 55 -4 13 -16 36 -26
50 -34 46 -53 300 -30 388 23 85 65 62 76 -41 3 -34 20 -100 38 -146 29 -77
40 -93 125 -180 88 -91 162 -186 162 -208 0 -6 6 -16 14 -22 23 -19 316 42
374 77 84 52 128 108 161 207 16 50 34 115 40 146 12 67 63 149 93 149 11 0
31 -9 44 -19 16 -12 49 -21 97 -26 40 -4 91 -16 115 -28 44 -22 102 -78 102
-99 0 -7 12 -30 28 -52 27 -39 27 -42 32 -227 l5 -187 58 -60 c57 -60 57 -61
57 -123 0 -103 46 -131 94 -57 39 59 42 94 17 176 -26 87 -26 113 -1 180 11
29 20 66 20 83 0 46 16 69 50 69 50 0 54 -46 35 -362 -11 -189 -21 -281 -35
-328 -10 -36 -24 -101 -29 -144 -6 -44 -18 -93 -27 -110 -8 -17 -19 -55 -24
-84 -6 -32 -19 -65 -35 -83 -14 -17 -25 -37 -25 -44 0 -32 -51 -73 -123 -99
-80 -29 -128 -74 -149 -139 -5 -18 -12 -112 -15 -211 -7 -203 -16 -231 -96
-301 -23 -20 -51 -44 -62 -53 -69 -61 -124 -90 -246 -128 -59 -18 -65 -26 -73
-96 -4 -31 -16 -68 -26 -81 -10 -13 -22 -37 -26 -53 -4 -16 -15 -45 -24 -64
-10 -19 -21 -57 -25 -85 -4 -27 -11 -57 -16 -66 -12 -24 -233 -208 -314 -262
-38 -26 -89 -60 -113 -77 -23 -16 -61 -40 -83 -52 -23 -13 -62 -35 -88 -50
-74 -42 -226 -118 -238 -118 -5 0 -21 -9 -35 -19 -13 -11 -43 -24 -66 -30 -23
-7 -57 -20 -75 -30 -17 -10 -50 -22 -72 -26 -22 -4 -53 -15 -70 -25 -16 -10
-50 -21 -75 -25 -25 -4 -64 -15 -87 -25 -23 -10 -76 -24 -117 -30 -41 -6 -99
-19 -128 -29 -29 -10 -96 -22 -148 -26 -52 -3 -140 -14 -195 -22 -135 -21
-468 -21 -590 0 -49 8 -133 18 -185 22 -52 4 -121 16 -152 26 -32 11 -92 24
-133 30 -41 5 -94 18 -117 29 -24 10 -61 22 -83 26 -22 3 -56 14 -75 24 -19 9
-57 22 -84 29 -27 7 -60 21 -74 32 -14 10 -32 19 -40 19 -15 0 -130 48 -187
77 -70 37 -123 66 -170 93 -27 16 -61 35 -75 41 -14 7 -43 25 -65 40 -22 14
-67 43 -99 64 -33 21 -67 45 -77 54 -10 9 -37 30 -60 46 -86 62 -109 90 -109
132 0 36 -5 44 -49 79 -32 25 -55 54 -66 81 -15 38 -15 46 -1 94 9 28 33 76
53 106 21 30 46 67 56 82 25 36 18 147 -13 215 -24 52 -24 98 -4 406 5 79 2
108 -15 170 -18 66 -27 81 -75 127 -30 29 -70 60 -88 69 -18 9 -45 26 -59 36
-29 22 -58 24 -179 13 -84 -7 -86 -7 -118 20 -18 15 -39 39 -47 54 -7 14 -26
38 -42 52 -127 120 -121 110 -128 174 -8 74 -29 125 -66 161 -24 23 -40 28
-102 33 -83 7 -134 35 -174 93 -22 33 -47 129 -65 248 -11 80 -2 356 17 465 8
44 17 123 20 175 4 52 16 119 26 149 10 29 23 89 29 133 6 44 20 96 30 116 10
20 21 57 25 80 11 69 59 163 107 208 45 44 149 104 178 104 33 0 142 64 151
89 15 37 78 119 97 125 9 3 87 14 173 25 102 12 165 25 182 36 32 20 44 58 50
155 6 90 45 184 86 204 14 8 58 17 96 21 39 4 83 15 100 25 52 32 125 52 164
46 90 -16 86 -19 89 57 3 66 1 70 -53 167 -62 110 -64 133 -22 187 18 23 22
41 22 104 0 66 -4 82 -24 109 -53 72 -34 138 52 180 23 12 65 34 92 50 28 16
66 37 85 46 19 9 46 22 60 30 14 7 41 21 60 29 19 9 58 27 85 40 28 14 57 25
65 25 8 0 35 11 60 24 25 13 63 26 85 30 22 4 50 14 63 22 13 9 54 22 91 29
37 8 84 21 104 30 20 8 80 22 134 30 54 8 116 21 138 29 24 8 126 19 255 26
118 7 217 14 219 16 6 5 -18 6 282 -11z m1591 -684 c18 -11 47 -27 63 -35 17
-8 49 -32 72 -53 63 -56 50 -69 -70 -65 -175 5 -283 -19 -419 -93 -51 -29 -85
-10 -51 28 11 12 25 40 31 62 20 68 46 101 95 118 24 8 54 23 66 33 12 11 31
22 44 26 40 13 135 1 169 -21z m-1478 -116 c20 -14 40 -25 44 -25 8 0 109 -62
130 -80 6 -6 12 -26 12 -45 0 -47 -48 -101 -103 -115 -23 -6 -59 -18 -81 -26
-21 -8 -81 -17 -134 -19 -134 -5 -182 17 -104 48 47 19 118 84 132 122 7 18 9
52 5 87 -4 31 -4 62 0 67 11 19 61 12 99 -14z m-224 -1048 c55 -28 85 -50 115
-87 42 -52 89 -76 125 -65 11 4 47 -3 80 -14 33 -12 67 -21 75 -21 9 0 41 -11
73 -24 31 -13 86 -26 122 -30 36 -4 97 -15 135 -26 39 -10 98 -22 132 -25 42
-5 72 -15 94 -31 18 -13 39 -24 46 -24 7 0 27 -13 45 -29 18 -15 43 -33 56
-40 19 -10 22 -19 22 -79 0 -43 -6 -78 -16 -97 -9 -16 -23 -42 -31 -57 -21
-41 -91 -88 -130 -88 -49 0 -136 54 -183 112 -22 28 -40 56 -40 62 0 23 -64
88 -111 111 -60 31 -123 32 -210 5 -98 -30 -242 -45 -289 -31 -39 12 -116 88
-150 149 -27 49 -75 111 -90 118 -8 3 -76 10 -150 14 -114 6 -144 11 -193 34
-65 29 -75 44 -57 86 18 44 46 56 140 63 61 4 101 13 140 31 79 37 150 32 250
-17z"></path>
</g>
</svg>